<svg width="140" height="62" viewBox="0 0 140 62" fill="none" xmlns="http://www.w3.org/2000/svg">
<g clip-path="url(#clip0_1_465)">
<path d="M36.0637 44.1883L38.6444 39.7338H25.6418C27.081 37.0611 27.5773 34.3389 27.5773 32.0621C27.5773 27.6571 24.8974 25.8752 21.2249 25.8752C15.468 25.8752 10.0089 29.0429 10.0089 38.5459C10.0089 39.4369 10.0586 40.3773 10.2074 41.3177C3.25951 43.6934 0.083313 48.0491 0.083313 52.8499C0.083313 57.4037 3.01137 61.0166 9.41339 61.0166C12.3415 61.0166 16.1628 60.1751 18.545 57.5025C21.076 59.6307 24.1033 61.0166 27.5277 61.0166C32.0935 61.0166 33.7808 58.5915 33.7808 54.3346C33.7808 51.0683 32.0438 47.1581 26.4358 44.1883H36.0637ZM14.8725 37.2591C14.8725 28.4985 18.2968 26.4692 21.4234 26.4692C24.7981 26.4692 26.8825 28.251 26.8825 32.0621C26.8825 37.9522 23.9545 43.7428 16.5102 46.6138C15.4184 43.0004 14.8725 39.4863 14.8725 37.2591ZM0.778106 52.8499C0.778106 47.3561 4.59946 43.842 10.3067 41.9114C11.1504 47.2075 13.8799 53.246 18.0983 57.1064C16.2124 59.4821 12.7385 60.4225 9.11564 60.4225C3.50765 60.4225 0.778106 56.9582 0.778106 52.8499ZM33.1853 54.3346C33.1853 58.1954 31.8949 60.4225 28.1232 60.4225C22.6145 60.4225 18.7435 53.6915 16.7087 47.1087C19.2894 46.1185 21.3738 44.7326 22.9123 43.2479C30.5054 45.9703 33.1853 50.5731 33.1853 54.3346Z" fill="#8C6F5E"/>
<path d="M44.9863 43.6439C35.6562 46.9106 33.5718 52.751 33.5222 55.8691C33.4726 59.0863 35.7555 61.0166 39.3783 61.0166C46.4751 61.0166 51.3388 58.2942 55.2095 51.5632L69.5026 26.8651H75.0113L75.3089 26.3701H51.4381L51.1401 26.8651H64.0436L49.7011 51.5632C45.4329 58.9377 42.4056 60.4225 39.3783 60.4225C35.5073 60.4225 34.2666 58.5417 34.2666 55.8691C34.2666 52.6024 36.4502 47.4549 44.9863 44.2874V43.6439Z" fill="#8C6F5E"/>
<path d="M56.7711 60.0268L56.4731 60.5217H87.1929L87.4909 60.0268H82.0319V25.8752L62.2799 60.0268H56.7711ZM69.9722 47.9005L77.0689 35.6752V47.9005H69.9722ZM62.9747 60.0268L69.6742 48.3954H77.0689V60.0268H62.9747Z" fill="#8C6F5E"/>
<path d="M104.357 60.5217L106.937 56.0671H87.3836L120.337 26.3701H98.5996L96.0193 30.8247H114.381L81.4283 60.5217H104.357Z" fill="#8C6F5E"/>
<path d="M123.937 60.5217L126.517 56.0671H106.964L139.917 26.3701H118.18L115.599 30.8247H133.961L101.008 60.5217H123.937Z" fill="#8C6F5E"/>
<path d="M28.9673 14.112C27.0302 15.4424 22.9138 17.4379 16.1684 17.4379C7.93559 17.4379 3.68081 14.4971 2.43552 13.3768C3.68081 12.2565 7.93559 9.3857 16.1684 9.3857C22.9138 9.3857 27.0302 11.3462 28.9673 12.6416V3.08397C26.027 1.85864 21.7377 0.983398 16.1684 0.983398C8.14314 0.983398 2.29715 2.94394 0.0832825 5.07953V20.5888C2.36633 22.8644 8.07396 25.8402 16.1684 25.8402C21.8068 25.8402 26.0616 24.5449 28.9673 22.9694V14.112Z" fill="#8C6F5E"/>
<path d="M30.351 25.4901H34.1561V17.648H46.955V25.4901H50.7601V1.3335H46.955V8.89556H34.1561V1.3335H30.351V25.4901Z" fill="#8C6F5E"/>
<path d="M52.1398 25.4901H78.2908V17.0878H55.9446V14.8822H67.9135V11.7314H55.9446V9.7358H78.2908V1.3335H52.1398V25.4901Z" fill="#8C6F5E"/>
<path d="M79.6712 14.5671V22.7243C81.7812 24.4748 87.9386 25.8752 94.4072 25.8752C101.083 25.8752 106.964 24.4748 109.074 22.7243V14.5671L84.6178 10.1209C86.97 9.52572 90.1869 9.03561 94.3724 9.03561C103.747 9.03561 108.417 11.4512 109.109 12.2215V4.06424C106.791 2.24374 101.049 0.983398 94.3724 0.983398C87.973 0.983398 81.8851 2.24374 79.6712 4.06424V12.2215L104.231 16.7027C101.844 17.3329 98.6274 17.823 94.4072 17.823C84.9637 17.823 80.3975 15.3373 79.6712 14.5671Z" fill="#8C6F5E"/>
<path d="M110.479 14.5671V22.7243C112.589 24.4748 118.747 25.8752 125.215 25.8752C131.891 25.8752 137.772 24.4748 139.882 22.7243V14.5671L115.426 10.1209C117.778 9.52572 120.995 9.03561 125.181 9.03561C134.555 9.03561 139.225 11.4512 139.917 12.2215V4.06424C137.599 2.24374 131.857 0.983398 125.181 0.983398C118.781 0.983398 112.693 2.24374 110.479 4.06424V12.2215L135.039 16.7027C132.652 17.3329 129.435 17.823 125.215 17.823C115.772 17.823 111.206 15.3373 110.479 14.5671Z" fill="#8C6F5E"/>
</g>
<defs>
<clipPath id="clip0_1_465">
<rect width="139.833" height="60.0332" fill="white" transform="translate(0.0832825 0.983398)"/>
</clipPath>
</defs>
</svg>
