<svg width="90" height="76" viewBox="0 0 90 76" fill="none" xmlns="http://www.w3.org/2000/svg">
<g clip-path="url(#clip0_1_477)">
<path d="M3.89703 38.2452C3.98849 38.409 4.05176 38.527 4.11894 38.6425C7.50255 44.4352 11.8508 49.3852 17.2304 53.3882C24.7332 58.9711 33.1266 62.1976 42.5124 62.7068C45.3588 62.8613 48.1929 62.7515 51.0174 62.3822C54.1455 61.9735 57.1922 61.2268 60.1607 60.1567C66.7398 57.7852 72.5304 54.1569 77.5337 49.2724C80.1964 46.6725 82.5572 43.8229 84.5714 40.6909C85.0783 39.9023 85.5591 39.0968 86.0526 38.2984C85.9725 38.154 85.9104 38.0363 85.8436 37.9213C83.942 34.6493 81.6944 31.6359 79.1019 28.8788C76.29 25.888 73.1824 23.2518 69.7051 21.0631C63.2729 17.0138 56.3053 14.5293 48.7002 13.9232C46.6181 13.7569 44.5351 13.7297 42.4499 13.8415C40.0593 13.9698 37.6931 14.2822 35.3538 14.7897C31.6199 15.5999 28.0503 16.8841 24.6346 18.5892C16.7603 22.5201 10.4668 28.2344 5.5914 35.5362C5.00315 36.4172 4.46591 37.3326 3.89703 38.2452ZM42.6892 75.6443C42.6958 75.523 42.7076 75.4016 42.7079 75.2803C42.7085 72.4259 42.7081 69.5716 42.7079 66.7172V66.3079C39.7241 66.1581 36.8013 65.7441 33.8765 65.0566C33.2816 67.7217 32.6963 70.3444 32.1031 73.0019C30.9345 72.7453 29.7864 72.4939 28.5942 72.2326C29.1876 69.5129 29.7732 66.8269 30.3671 64.105C28.0077 63.36 25.731 62.4751 23.4861 61.3952C22.1014 63.6823 20.729 65.9496 19.3397 68.2454C18.3034 67.6154 17.2966 67.0034 16.2552 66.3706C17.6002 64.1427 18.9333 61.9346 20.2849 59.6957C17.415 58.0275 14.7381 56.123 12.1934 53.9448C10.6187 55.9317 9.05619 57.9036 7.47212 59.903C6.5271 59.1487 5.6071 58.4142 4.64638 57.6476C6.28608 55.5761 7.90295 53.5333 9.5373 51.469C9.20303 51.0965 8.87863 50.7363 8.55598 50.3751C7.11806 48.765 5.69194 47.1445 4.37935 45.4293C2.83529 43.4117 1.44889 41.2904 0.223346 39.0642C0.00143427 38.702 0.00143433 38.4031 0.00143433 38.2506C0.00143433 38.1226 0.00143427 37.8786 0.226289 37.4728C2.18451 33.9541 4.4897 30.6799 7.14064 27.6501C7.79042 26.9071 8.4704 26.1911 9.1621 25.4349C7.67494 23.5559 6.17918 21.6656 4.6606 19.7465C5.56885 18.9492 6.51583 18.2491 7.47166 17.4737C8.91173 19.2834 10.3337 21.0886 11.7821 22.911C12.6573 22.2094 13.504 21.5008 14.3826 20.8343C15.2562 20.1713 16.1495 19.5318 17.0573 18.9161C17.9741 18.2942 18.9196 17.7143 19.8972 17.087C18.6818 15.0732 17.4633 13.0549 16.2245 11.0025C17.2568 10.3745 18.2624 9.76273 19.3097 9.12544C20.5755 11.2053 21.827 13.2623 23.0925 15.3419C25.3994 14.2037 27.7554 13.2493 30.2354 12.4657C29.6148 9.62959 28.9964 6.80357 28.3689 3.93639C29.5464 3.67746 30.6947 3.4249 31.8869 3.16277C32.5004 5.96156 33.1068 8.72869 33.7252 11.5496C36.6829 10.8473 39.6599 10.3976 42.6914 10.2468C42.698 10.0977 42.7071 9.98958 42.7071 9.88141C42.7083 6.771 42.7085 3.66054 42.7079 0.550094C42.7076 0.452991 42.6958 0.356134 42.6892 0.259277H46.3487C46.3423 0.331859 46.3303 0.40444 46.3303 0.477021C46.3293 3.61174 46.3293 6.74644 46.3305 9.88141C46.3305 9.97559 46.3455 10.07 46.3565 10.197C49.3934 10.2902 52.3802 10.6835 55.3592 11.3372C55.96 8.59579 56.551 5.89829 57.1502 3.16375C58.3312 3.42268 59.4802 3.67452 60.6781 3.93714C60.0661 6.71287 59.4622 9.45477 58.852 12.2241C61.3766 12.9639 63.7867 13.9085 66.1545 15.0263C67.3506 13.0561 68.5316 11.1099 69.7335 9.12915C70.7694 9.75931 71.782 10.375 72.8132 11.0028C71.6496 12.9306 70.5127 14.8142 69.3608 16.7219C72.2894 18.3987 74.987 20.3326 77.5511 22.4936C78.8883 20.8058 80.197 19.1541 81.5237 17.4797C82.4806 18.2251 83.4357 18.9318 84.3456 19.7549C82.973 21.4978 81.616 23.2204 80.2074 25.0085C80.3718 25.1436 80.543 25.2625 80.6882 25.4077C83.4514 28.1704 85.8424 31.2326 87.9455 34.5186C88.695 35.6909 89.5236 36.8272 89.9695 38.1714C89.9829 38.2143 89.991 38.2442 89.991 38.281C89.991 38.3173 89.9811 38.3406 89.9695 38.3909C89.8662 38.7378 89.7367 39.0699 89.5573 39.3901C88.4285 41.4035 87.1587 43.3254 85.8105 45.1948C84.1371 47.514 82.2588 49.6596 80.2185 51.6629C80.1163 51.7627 80.0182 51.8669 79.9096 51.9782C81.4093 53.8764 82.8888 55.7478 84.3903 57.6482C83.4311 58.4142 82.5119 59.1493 81.5678 59.9035C80.1006 58.0603 78.667 56.2365 77.2474 54.4555C75.8835 55.4702 74.5881 56.4876 73.2364 57.4235C71.876 58.3649 70.4593 59.2254 69.0472 60.1346C70.2898 62.1918 71.5468 64.2733 72.8143 66.3729C71.7628 67.0116 70.7577 67.6224 69.7289 68.2477C68.3958 66.0536 67.0864 63.8994 65.7638 61.7221C63.4668 62.7829 61.1199 63.6509 58.683 64.3697C59.2637 67.0145 59.8367 69.625 60.4174 72.2697C59.2236 72.5304 58.0751 72.7807 56.8942 73.0385C56.3222 70.4303 55.7597 67.8651 55.2011 65.3179C53.7061 65.5565 52.2574 65.83 50.7972 66.01C49.3257 66.1912 47.8429 66.28 46.33 66.4118V66.7544C46.3298 69.6087 46.3293 72.4625 46.33 75.3169C46.33 75.426 46.3423 75.5352 46.3487 75.6443H42.6892Z" fill="#101010"/>
<path d="M49.9003 35.8962C47.8018 35.8962 46.1006 34.1949 46.1006 32.0965C46.1006 29.998 47.8018 28.2968 49.9003 28.2968C51.999 28.2968 53.7 29.998 53.7 32.0965C53.7 34.1949 51.999 35.8962 49.9003 35.8962ZM44.9962 21.9805C36.3612 21.9805 29.3611 28.9804 29.3611 37.6156C29.3611 46.2505 36.3612 53.2507 44.9962 53.2507C53.6314 53.2507 60.6316 46.2505 60.6316 37.6156C60.6316 28.9804 53.6314 21.9805 44.9962 21.9805Z" fill="#101010"/>
</g>
<defs>
<clipPath id="clip0_1_477">
<rect width="89.9971" height="75.4814" fill="white" transform="translate(0.00143433 0.259277)"/>
</clipPath>
</defs>
</svg>
