<svg width="50" height="50" viewBox="0 0 50 50" fill="none" xmlns="http://www.w3.org/2000/svg">
<rect width="50" height="50" rx="25" fill="url(#paint0_radial_1_701)"/>
<rect width="50" height="50" rx="25" fill="url(#paint1_linear_1_701)"/>
<path fill-rule="evenodd" clip-rule="evenodd" d="M25 32.25C29.0041 32.25 32.25 29.0041 32.25 25C32.25 20.9959 29.0041 17.75 25 17.75C20.9959 17.75 17.75 20.9959 17.75 25C17.75 29.0041 20.9959 32.25 25 32.25ZM25 29.8333C27.6693 29.8333 29.8333 27.6693 29.8333 25C29.8333 22.3306 27.6693 20.1667 25 20.1667C22.3306 20.1667 20.1667 22.3306 20.1667 25C20.1667 27.6693 22.3306 29.8333 25 29.8333Z" fill="white"/>
<path d="M32.25 16.5415C31.5827 16.5415 31.0417 17.0825 31.0417 17.7498C31.0417 18.4172 31.5827 18.9582 32.25 18.9582C32.9174 18.9582 33.4584 18.4172 33.4584 17.7498C33.4584 17.0825 32.9174 16.5415 32.25 16.5415Z" fill="white"/>
<path fill-rule="evenodd" clip-rule="evenodd" d="M12.4985 15.6671C11.7083 17.2179 11.7083 19.2481 11.7083 23.3085V26.6918C11.7083 30.7522 11.7083 32.7824 12.4985 34.3332C13.1936 35.6974 14.3027 36.8065 15.6669 37.5016C17.2177 38.2918 19.2479 38.2918 23.3083 38.2918H26.6916C30.752 38.2918 32.7822 38.2918 34.333 37.5016C35.6972 36.8065 36.8063 35.6974 37.5014 34.3332C38.2916 32.7824 38.2916 30.7522 38.2916 26.6918V23.3085C38.2916 19.2481 38.2916 17.2179 37.5014 15.6671C36.8063 14.3029 35.6972 13.1938 34.333 12.4987C32.7822 11.7085 30.752 11.7085 26.6916 11.7085H23.3083C19.2479 11.7085 17.2177 11.7085 15.6669 12.4987C14.3027 13.1938 13.1936 14.3029 12.4985 15.6671ZM26.6916 14.1252H23.3083C21.2382 14.1252 19.831 14.127 18.7433 14.2159C17.6838 14.3025 17.142 14.4594 16.764 14.652C15.8546 15.1154 15.1152 15.8548 14.6518 16.7642C14.4592 17.1422 14.3023 17.684 14.2157 18.7435C14.1268 19.8312 14.125 21.2384 14.125 23.3085V26.6918C14.125 28.7619 14.1268 30.1691 14.2157 31.2568C14.3023 32.3164 14.4592 32.8582 14.6518 33.2362C15.1152 34.1456 15.8546 34.8849 16.764 35.3483C17.142 35.5409 17.6838 35.6979 18.7433 35.7844C19.831 35.8732 21.2382 35.8752 23.3083 35.8752H26.6916C28.7617 35.8752 30.1689 35.8732 31.2566 35.7844C32.3162 35.6979 32.858 35.5409 33.236 35.3483C34.1454 34.8849 34.8847 34.1456 35.3481 33.2362C35.5407 32.8582 35.6977 32.3164 35.7842 31.2568C35.873 30.1691 35.875 28.7619 35.875 26.6918V23.3085C35.875 21.2384 35.873 19.8312 35.7842 18.7435C35.6977 17.684 35.5407 17.1422 35.3481 16.7642C34.8847 15.8548 34.1454 15.1154 33.236 14.652C32.858 14.4594 32.3162 14.3025 31.2566 14.2159C30.1689 14.127 28.7617 14.1252 26.6916 14.1252Z" fill="white"/>
<defs>
<radialGradient id="paint0_radial_1_701" cx="0" cy="0" r="1" gradientUnits="userSpaceOnUse" gradientTransform="translate(1.74963e-06 2.91592) rotate(44.9478) scale(66.6478)">
<stop stop-color="#4962D6"/>
<stop offset="0.611547" stop-color="#EAC585"/>
<stop offset="0.745" stop-color="#EE6446"/>
<stop offset="0.861682" stop-color="#F37479"/>
<stop offset="0.995469" stop-color="#FF9DFF"/>
</radialGradient>
<linearGradient id="paint1_linear_1_701" x1="25" y1="5.79053e-07" x2="44.4298" y2="55.5285" gradientUnits="userSpaceOnUse">
<stop stop-color="#DD4063"/>
<stop offset="0.44" stop-color="#FF9955"/>
<stop offset="1" stop-color="#4764D7"/>
</linearGradient>
</defs>
</svg>
