<svg width="274" height="26" viewBox="0 0 274 26" fill="none" xmlns="http://www.w3.org/2000/svg">
<g clip-path="url(#clip0_1_106)">
<path d="M120.715 0.149851C121.335 0.428827 121.956 0.705755 122.573 0.987599C123.29 1.31491 124.001 1.64919 124.72 1.97323C124.861 2.03714 124.908 2.11251 124.908 2.235C124.909 4.09853 124.915 5.96206 124.921 7.82599C124.93 10.5818 124.941 13.3375 124.953 16.0933C124.958 17.2182 124.965 18.3435 124.978 19.4684C124.98 19.6266 124.911 19.7232 124.732 19.8011C124.018 20.1116 123.311 20.4311 122.602 20.7494C122.486 20.8019 122.379 20.8035 122.263 20.7502C120.98 20.1685 119.698 19.5872 118.413 19.0096C118.257 18.9392 118.196 18.8462 118.196 18.7077C118.195 17.786 118.187 16.8642 118.181 15.9421C118.18 15.895 118.171 15.8483 118.166 15.8012C118.15 15.7987 118.135 15.7967 118.119 15.7942C118.002 16.004 117.885 16.2133 117.769 16.423C116.983 17.8384 116.197 19.2534 115.412 20.6687C114.554 22.2156 113.695 23.7624 112.84 25.3101C112.607 25.7308 112.61 25.7288 112.035 25.6313C111.583 25.5547 111.125 25.499 110.672 25.4228C110.534 25.3994 110.397 25.3515 110.274 25.2954C109.147 24.7817 108.021 24.2651 106.898 23.7461C106.73 23.6682 106.567 23.5793 106.419 23.4798C106.37 23.447 106.337 23.352 106.362 23.3065C107.074 22.0009 107.795 20.6982 108.514 19.3955C108.835 18.8146 109.157 18.2345 109.489 17.6336C109.35 17.5664 109.214 17.498 109.074 17.4341C108.379 17.1174 107.686 16.7983 106.986 16.4886C106.791 16.4022 106.718 16.2944 106.719 16.1187C106.72 13.9676 106.713 11.8165 106.706 9.66535C106.702 8.66907 106.696 7.67278 106.684 6.67691C106.682 6.48928 106.765 6.37007 106.981 6.27299C111.29 4.34227 115.594 2.40624 119.9 0.471021C120.135 0.36533 120.368 0.256771 120.602 0.149441C120.639 0.14985 120.677 0.149851 120.715 0.149851ZM124.174 2.15758C124.079 2.11088 124.028 2.08384 123.975 2.05967C122.938 1.59225 121.899 1.12852 120.866 0.655367C120.71 0.583677 120.602 0.57999 120.443 0.652499C118.631 1.47509 116.812 2.29031 114.997 3.10839C112.533 4.21815 110.071 5.32832 107.608 6.43931C107.558 6.46184 107.516 6.49338 107.471 6.52001C107.493 6.54623 107.497 6.55729 107.507 6.56179C108.614 7.06198 109.72 7.5634 110.833 8.05786C110.897 8.08653 111.021 8.07998 111.089 8.05008C111.708 7.77888 112.319 7.49827 112.934 7.22175C116.347 5.68513 119.76 4.14892 123.172 2.6123C123.494 2.46646 123.816 2.32021 124.174 2.15758ZM107.208 6.85552C107.201 6.93704 107.191 6.99316 107.191 7.04969C107.199 10.0185 107.21 12.9873 107.213 15.956C107.213 16.0949 107.273 16.1707 107.422 16.2379C108.42 16.6889 109.414 17.1461 110.409 17.6004C110.504 17.6438 110.604 17.6807 110.737 17.7352C110.737 17.6496 110.737 17.5963 110.737 17.5435C110.733 16.82 110.728 16.0961 110.725 15.3727C110.716 13.1126 110.706 10.8525 110.702 8.59246C110.702 8.48226 110.651 8.42409 110.534 8.37125C109.728 8.00665 108.927 7.63632 108.123 7.26886C107.829 7.1349 107.534 7.00299 107.208 6.85552ZM109.934 17.8167C109.892 17.8769 109.858 17.9187 109.833 17.9629C108.867 19.7101 107.903 21.4577 106.932 23.2033C106.878 23.3012 106.901 23.3393 107.011 23.3888C107.874 23.7751 108.733 24.1664 109.594 24.5555C109.871 24.6809 110.148 24.8058 110.453 24.9439C112.028 22.105 113.592 19.2837 115.156 16.4628C115.143 16.4525 115.13 16.4423 115.116 16.4321C115.048 16.4616 114.979 16.491 114.911 16.5214C113.655 17.0785 112.398 17.634 111.145 18.194C111.006 18.2558 110.894 18.2575 110.758 18.1915C110.496 18.0637 110.223 17.9474 109.934 17.8167ZM121.902 10.8869C121.849 10.8517 121.817 10.8226 121.776 10.8038C120.693 10.3101 119.609 9.8161 118.521 9.32902C118.456 9.29953 118.329 9.30199 118.263 9.33189C116.719 10.0238 115.18 10.7223 113.639 11.4175C113.529 11.467 113.483 11.5256 113.484 11.6301C113.489 12.5813 113.487 13.5325 113.488 14.4841C113.488 14.5312 113.495 14.5788 113.501 14.6668C116.32 13.399 119.102 12.147 121.902 10.8869ZM122.179 13.2593C122.096 13.292 122.057 13.3056 122.019 13.3224C120.96 13.798 119.902 14.2756 118.839 14.7471C118.707 14.8057 118.653 14.8692 118.654 14.9909C118.667 16.16 118.674 17.3288 118.675 18.498C118.675 18.6278 118.723 18.7044 118.87 18.7704C119.89 19.2296 120.906 19.6962 121.923 20.1595C122.003 20.1956 122.085 20.2275 122.179 20.2673C122.179 17.9269 122.179 15.6086 122.179 13.2593ZM122.137 5.59828C122.086 5.60033 122.071 5.59787 122.061 5.60197C120.964 6.09478 119.867 6.58883 118.768 7.08042C118.66 7.12876 118.627 7.1898 118.628 7.28484C118.638 7.79486 118.641 8.30529 118.64 8.81531C118.64 8.9124 118.685 8.96566 118.792 9.01359C119.648 9.39743 120.501 9.78702 121.355 10.1741C121.605 10.2872 121.855 10.399 122.137 10.5256C122.137 8.86447 122.137 7.23527 122.137 5.59828ZM113.501 11.0344C113.573 11.009 113.626 10.9943 113.673 10.973C115.125 10.3175 116.576 9.66043 118.03 9.00785C118.136 8.96033 118.165 8.90667 118.164 8.81859C118.158 8.38804 118.158 7.95708 118.154 7.52653C118.153 7.48106 118.143 7.43518 118.135 7.37373C118.066 7.39913 118.026 7.41183 117.989 7.42863C116.525 8.08817 115.061 8.74731 113.602 9.41218C113.538 9.44127 113.481 9.52525 113.48 9.58424C113.473 10.0197 113.48 10.4556 113.484 10.891C113.485 10.9336 113.494 10.9754 113.501 11.0344Z" fill="#E4B91C"/>
<path d="M67.3492 0.149871C67.9362 0.41246 68.5248 0.673411 69.1102 0.938459C69.85 1.27356 70.5862 1.61439 71.3275 1.94744C71.4877 2.01954 71.5307 2.11581 71.5307 2.25264C71.5313 3.90806 71.536 5.56307 71.5433 7.21849C71.5586 10.7964 71.5754 14.3748 71.5922 17.9527C71.5943 18.4632 71.5937 18.9736 71.6048 19.484C71.6079 19.6315 71.537 19.7204 71.3743 19.7933C68.8577 20.9211 66.3452 22.0546 63.8286 23.1828C61.8177 24.0845 59.8025 24.9796 57.791 25.8804C57.6597 25.9394 57.5563 25.9418 57.4229 25.8812C56.1649 25.3069 54.9052 24.7346 53.6414 24.1684C53.4529 24.084 53.3799 23.982 53.3831 23.812C53.3946 23.2074 53.3952 22.6027 53.3826 21.9981C53.3789 21.8301 53.4597 21.7375 53.6393 21.6568C56.2704 20.4758 58.8983 19.2911 61.5273 18.1072C62.5538 17.6451 63.5787 17.1805 64.6078 16.7225C64.7522 16.6582 64.8131 16.5861 64.8094 16.453C64.7979 16.0519 64.8058 15.65 64.8052 15.2486C64.8052 15.1966 64.7995 15.1441 64.7958 15.0827C64.7485 15.0896 64.7191 15.0868 64.7029 15.097C64.444 15.2613 64.14 15.2756 63.8239 15.2768C61.7788 15.2863 59.7337 15.3022 57.6886 15.3096C57.5704 15.31 57.4413 15.2674 57.3357 15.2199C56.0735 14.6517 54.8149 14.0778 53.5537 13.5075C53.4067 13.4412 53.3416 13.3547 53.3416 13.2191C53.3369 11.0238 53.329 8.82803 53.3169 6.63268C53.3159 6.47865 53.3721 6.37788 53.5558 6.2984C54.2594 5.99362 54.9562 5.679 55.6503 5.36152C55.8141 5.28655 55.9449 5.29557 56.105 5.36971C57.3546 5.94569 58.6069 6.51757 59.8629 7.08535C60.0387 7.16483 60.1039 7.26028 60.1039 7.41881C60.1012 8.49416 60.1128 9.56951 60.1133 10.6449C60.1133 10.7596 60.1553 10.7985 60.306 10.8038C60.5433 10.8124 60.746 10.7673 60.9524 10.6731C62.1553 10.1238 63.3634 9.58098 64.5742 9.04146C64.727 8.97346 64.7779 8.89603 64.7774 8.76003C64.7674 6.34142 64.7674 3.92281 64.7554 1.50419C64.7543 1.31329 64.8388 1.20801 65.0478 1.1183C65.7362 0.822937 66.4151 0.514055 67.0971 0.20968C67.1339 0.193294 67.1649 0.169534 67.1985 0.149052C67.2473 0.149871 67.2982 0.149871 67.3492 0.149871ZM68.5452 18.5672C68.4833 18.5283 68.4486 18.5 68.4072 18.4816C67.3334 17.9945 66.2602 17.5066 65.1822 17.0257C65.1171 16.9966 64.9953 16.999 64.9276 17.0273C64.5816 17.1719 64.2445 17.33 63.9042 17.4833C60.7045 18.924 57.5053 20.3644 54.3061 21.8055C54.2505 21.8305 54.2006 21.8645 54.1302 21.9043C54.1817 21.9309 54.2059 21.9448 54.2321 21.9563C55.3017 22.4389 56.3733 22.919 57.4397 23.4061C57.5783 23.4696 57.6786 23.4708 57.8188 23.4073C60.4992 22.1943 63.1828 20.9858 65.8659 19.7765C66.7485 19.3783 67.6306 18.9801 68.5452 18.5672ZM68.7868 10.513C68.7868 10.4208 68.7873 10.3622 68.7868 10.3036C68.7815 9.46136 68.7752 8.61952 68.771 7.77726C68.7631 6.32585 68.7558 4.87444 68.7526 3.42303C68.7526 3.32512 68.7091 3.27145 68.6025 3.22352C67.7293 2.8323 66.8588 2.43698 65.9877 2.04289C65.7551 1.93761 65.5225 1.83151 65.2563 1.71025C65.25 1.78809 65.2426 1.83438 65.2426 1.88067C65.25 4.18908 65.2584 6.4975 65.2636 8.80591C65.2636 8.90873 65.3119 8.96568 65.4248 9.01647C66.4891 9.49577 67.5497 9.97958 68.6125 10.4613C68.6524 10.4802 68.7007 10.4884 68.7868 10.513ZM53.8089 6.8453C53.8089 6.93665 53.8089 6.9854 53.8089 7.03374C53.8136 9.03573 53.8205 11.0377 53.8199 13.0397C53.8199 13.1593 53.884 13.2171 54.0027 13.2703C55.0507 13.7427 56.0966 14.2179 57.1436 14.6914C57.195 14.7148 57.2512 14.732 57.3352 14.7635C57.3399 14.6878 57.3462 14.6357 57.3462 14.5837C57.3441 13.8553 57.3405 13.127 57.3378 12.3986C57.3336 11.125 57.3284 9.85176 57.3279 8.57814C57.3279 8.47696 57.288 8.41633 57.173 8.36471C56.2725 7.95997 55.3757 7.55031 54.4778 7.14271C54.2715 7.04889 54.0636 6.95836 53.8089 6.8453ZM68.5216 10.8812C68.4444 10.8403 68.3961 10.8116 68.3436 10.7874C67.2835 10.3016 66.224 9.81489 65.1591 9.3356C65.0888 9.30405 64.9554 9.30364 64.8851 9.33478C63.7178 9.8534 62.5554 10.3794 61.3929 10.9046C61.343 10.9271 61.3005 10.9591 61.2385 10.9968C61.2921 11.023 61.3173 11.0361 61.3435 11.048C62.3711 11.5187 63.4028 11.984 64.423 12.4637C64.6388 12.5653 64.7953 12.567 65.0147 12.4658C66.1651 11.9353 67.3266 11.4195 68.5216 10.8812ZM68.7978 13.2638C68.7154 13.2904 68.6797 13.2982 68.6487 13.3121C67.5734 13.7959 66.497 14.2785 65.4269 14.7689C65.3587 14.8004 65.3004 14.8934 65.2988 14.9581C65.2883 15.4682 65.2956 15.9786 65.2904 16.4886C65.2893 16.5906 65.334 16.6492 65.4484 16.7008C66.2612 17.0654 67.0698 17.4353 67.8795 17.8036C68.1824 17.9412 68.4854 18.0793 68.7978 18.2215C68.7978 16.5648 68.7978 14.9295 68.7978 13.2638ZM59.343 7.30657C59.301 7.27584 59.29 7.26396 59.2748 7.257C58.1685 6.75599 57.0627 6.25416 55.9533 5.75725C55.9023 5.73431 55.8057 5.7339 55.7543 5.75643C55.2292 5.98584 54.7089 6.22139 54.189 6.45735C54.1518 6.47415 54.126 6.50774 54.0861 6.54051C55.2271 7.05545 56.346 7.5581 57.4612 8.06525C57.5725 8.11605 57.6502 8.08369 57.7385 8.04313C58.1207 7.8678 58.5029 7.69246 58.8847 7.51713C59.0306 7.45036 59.1766 7.38276 59.343 7.30657ZM70.8041 2.15309C69.6242 1.61603 68.4927 1.10027 67.3576 0.589022C67.3124 0.568539 67.221 0.5796 67.1701 0.602132C66.664 0.827852 66.1636 1.06136 65.6579 1.28667C65.5204 1.34812 65.5219 1.38171 65.6579 1.44316C66.7275 1.92532 67.7934 2.41281 68.865 2.8917C68.9359 2.92324 69.0672 2.92283 69.1396 2.89293C69.5255 2.73316 69.902 2.55947 70.2811 2.38987C70.4444 2.31695 70.6061 2.2428 70.8041 2.15309ZM57.3804 25.4298C57.3804 25.3429 57.3804 25.2909 57.3804 25.2389C57.3804 24.8177 57.3741 24.397 57.3846 23.9759C57.3877 23.8591 57.3326 23.7997 57.2092 23.744C56.4038 23.3803 55.6025 23.0103 54.7992 22.6433C54.5062 22.5093 54.2122 22.3778 53.8992 22.2361C53.885 22.2893 53.8698 22.3213 53.8693 22.3528C53.8677 22.8133 53.8646 23.2742 53.8745 23.7346C53.8756 23.7891 53.9381 23.862 54 23.8927C54.2725 24.0275 54.555 24.15 54.8343 24.2766C55.6666 24.6535 56.4988 25.0299 57.3804 25.4298ZM63.6863 12.6272C63.6911 12.6112 63.6958 12.5948 63.7005 12.5788C63.6643 12.5575 63.6307 12.5334 63.5924 12.5158C62.6945 12.1073 61.794 11.703 60.9004 11.2897C60.7171 11.2049 60.5344 11.1704 60.3244 11.1737C60.17 11.1762 60.1091 11.211 60.1117 11.3359C60.1191 11.7173 60.1191 12.0991 60.1117 12.4805C60.1091 12.6075 60.1753 12.6399 60.3281 12.6391C61.2805 12.6317 62.233 12.6305 63.1854 12.6272C63.3519 12.6268 63.5194 12.6272 63.6863 12.6272Z" fill="#FF9D97"/>
<path d="M30.9456 25.9644C30.2373 25.6379 29.529 25.3114 28.8202 24.9857C28.2085 24.7047 27.5984 24.4216 26.9825 24.1467C26.8239 24.0759 26.7662 23.987 26.7656 23.8473C26.7614 22.2619 26.7483 20.6761 26.7431 19.0907C26.7294 15.1318 26.7184 11.1729 26.7063 7.21358C26.7058 7.00548 26.71 6.79737 26.7 6.58927C26.6937 6.4594 26.7583 6.38198 26.9037 6.31684C28.7388 5.49466 30.5702 4.66757 32.4032 3.84293C34.9009 2.72006 37.3997 1.59883 39.8974 0.475962C40.131 0.37109 40.3589 0.258435 40.5899 0.149876C40.6409 0.149876 40.6918 0.149876 40.7422 0.149876C41.1848 0.349788 41.6275 0.548882 42.0696 0.749613C42.9459 1.14739 43.8206 1.5468 44.6985 1.94212C44.8534 2.01176 44.9117 2.10107 44.9122 2.24281C44.9149 4.84413 44.9238 7.44545 44.9322 10.0468C44.9343 10.6215 44.9359 11.1963 44.9474 11.771C44.9506 11.9328 44.8797 12.0303 44.6933 12.1143C41.1864 13.6927 37.6837 15.2764 34.18 16.8594C34.0099 16.936 33.844 17.0195 33.6686 17.0875C33.5526 17.1326 33.5232 17.1953 33.5237 17.2891C33.5289 18.3296 33.531 19.3701 33.5331 20.4107C33.5358 21.8326 33.5358 23.2549 33.541 24.6768C33.5415 24.7993 33.4654 24.8694 33.342 24.9243C32.587 25.2577 31.8319 25.5916 31.0769 25.9259C31.0559 25.9353 31.0402 25.9517 31.0218 25.9648C30.9966 25.9644 30.9708 25.9644 30.9456 25.9644ZM27.192 6.84366C27.192 6.93993 27.192 6.99278 27.192 7.04603C27.2067 10.9365 27.2214 14.827 27.2356 18.7176C27.2419 20.3681 27.2487 22.0182 27.2487 23.6687C27.2487 23.7936 27.2965 23.8649 27.4361 23.9272C28.2069 24.27 28.9719 24.6203 29.739 24.9677C30.0656 25.1156 30.3933 25.2614 30.7629 25.4273C30.7629 25.3278 30.7629 25.261 30.7629 25.1942C30.7508 21.2939 30.7388 17.3935 30.7262 13.4928C30.7209 11.8624 30.713 10.2319 30.7115 8.60109C30.7115 8.48515 30.6569 8.42371 30.5329 8.36799C29.7816 8.0288 29.0344 7.68305 28.2857 7.34057C27.9386 7.18122 27.5895 7.02391 27.192 6.84366ZM27.4734 6.51594C27.5028 6.54871 27.5075 6.55977 27.517 6.56428C28.6123 7.0616 29.7086 7.55728 30.8028 8.05624C30.912 8.10581 30.9976 8.09352 31.1005 8.04682C31.8613 7.70066 32.6237 7.35737 33.3866 7.01408C36.9203 5.42256 40.4545 3.83146 43.9881 2.23953C44.0391 2.21659 44.0832 2.18505 44.1462 2.14859C44.0947 2.12278 44.07 2.10926 44.0438 2.09738C42.959 1.60539 41.8727 1.11626 40.7926 0.618523C40.654 0.554616 40.5705 0.602547 40.4687 0.648428C38.559 1.50871 36.6499 2.36898 34.7402 3.22967C32.3701 4.29765 30 5.36562 27.6299 6.43442C27.5784 6.45695 27.5301 6.48603 27.4734 6.51594ZM41.9084 10.8804C41.8249 10.8382 41.774 10.81 41.7204 10.7854C40.6656 10.3024 39.6097 9.82145 38.5569 9.33601C38.4493 9.28644 38.3663 9.28439 38.2597 9.33273C36.7318 10.0263 35.2028 10.7186 33.6718 11.4081C33.5484 11.4634 33.4932 11.5248 33.4943 11.6416C33.5006 12.5879 33.4974 13.5346 33.4985 14.4813C33.4985 14.5272 33.5069 14.5735 33.5142 14.6529C36.3238 13.3896 39.0982 12.143 41.9084 10.8804ZM42.1394 10.5052C42.1394 8.85467 42.1394 7.22997 42.1394 5.59093C42.0853 5.60527 42.0612 5.60855 42.0407 5.61756C40.948 6.10751 39.8543 6.59664 38.7664 7.09232C38.7018 7.12182 38.6435 7.20662 38.6425 7.26643C38.6325 7.78137 38.6388 8.29671 38.6351 8.81165C38.6346 8.90628 38.6719 8.96282 38.7822 9.01238C39.8533 9.49168 40.9207 9.97631 41.9898 10.4589C42.0307 10.4777 42.0785 10.4867 42.1394 10.5052ZM38.1416 7.38605C38.1043 7.38605 38.0964 7.384 38.0917 7.38646C36.6005 8.0587 35.1104 8.73218 33.6177 9.40156C33.5058 9.45154 33.4764 9.5138 33.477 9.60639C33.4806 10.0472 33.478 10.488 33.4796 10.9288C33.4796 10.9603 33.4932 10.9914 33.5027 11.0324C33.5646 11.0099 33.6124 10.9963 33.6549 10.9771C35.113 10.3192 36.5696 9.65923 38.0297 9.0046C38.14 8.95503 38.1563 8.8944 38.1558 8.81083C38.1537 8.37496 38.1552 7.93908 38.1542 7.50321C38.1547 7.46552 38.1468 7.42824 38.1416 7.38605Z" fill="#44B5B1"/>
<path d="M137.602 25.9644C136.748 25.576 135.894 25.1873 135.04 24.7993C134.569 24.5855 134.099 24.3704 133.624 24.1623C133.462 24.0914 133.393 24.0009 133.392 23.853C133.391 22.6834 133.379 21.5139 133.374 20.3443C133.359 15.9683 133.345 11.5924 133.33 7.21645C133.33 6.99851 133.332 6.78016 133.324 6.56223C133.321 6.45613 133.37 6.38526 133.489 6.33241C134.215 6.00837 134.94 5.68269 135.663 5.35456C135.791 5.29639 135.901 5.29393 136.031 5.35292C137.319 5.93586 138.609 6.51635 139.9 7.09519C140.044 7.15951 140.093 7.2443 140.093 7.37376C140.09 8.31023 140.097 9.24711 140.101 10.1836C140.101 10.2221 140.106 10.2602 140.154 10.3114C140.233 10.1783 140.315 10.0464 140.389 9.91158C141.7 7.54294 143.01 5.1739 144.32 2.80527C144.716 2.08837 145.114 1.37188 145.511 0.654981C145.64 0.421476 145.702 0.389933 146.036 0.437043C146.616 0.518974 147.199 0.595171 147.772 0.702091C147.986 0.742237 148.179 0.85776 148.376 0.946656C149.511 1.46037 150.644 1.97612 151.777 2.49147C151.989 2.58815 152.019 2.65124 151.918 2.83353C151.434 3.70938 150.946 4.5844 150.46 5.45984C149.676 6.8752 148.894 8.29098 148.11 9.70634C147.469 10.8632 146.83 12.0209 146.183 13.1757C146.13 13.2695 146.142 13.3248 146.225 13.3978C147.492 14.521 148.755 15.6464 150.02 16.7709C150.649 17.3292 151.276 17.8888 151.908 18.4443C152.029 18.5504 152.046 18.6414 151.936 18.7593C151.339 19.4 150.749 20.0448 150.152 20.686C150.014 20.8342 149.882 20.849 149.674 20.7535C148.635 20.2788 147.596 19.8036 146.558 19.3283C146.476 19.2907 146.396 19.2489 146.311 19.2161C145.896 19.0543 145.566 18.82 145.263 18.5447C144.396 17.7549 143.506 16.9794 142.629 16.1961C142.536 16.113 142.464 16.1048 142.339 16.1609C141.665 16.4653 140.986 16.7639 140.304 17.0589C140.163 17.1199 140.118 17.1965 140.119 17.3206C140.137 19.7487 140.147 22.1771 140.167 24.6055C140.168 24.7723 140.096 24.8694 139.913 24.9488C139.165 25.2725 138.423 25.6043 137.679 25.9337C137.663 25.9406 137.652 25.9537 137.639 25.9644C137.627 25.9644 137.614 25.9644 137.602 25.9644ZM133.823 6.85472C133.816 6.93829 133.808 6.99482 133.808 7.05177C133.823 11.1893 133.837 15.3268 133.854 19.4639C133.86 20.8711 133.871 22.2783 133.874 23.6855C133.874 23.8002 133.923 23.8641 134.047 23.9198C134.872 24.2889 135.692 24.6633 136.514 25.0353C136.791 25.1606 137.07 25.2835 137.388 25.4257C137.388 25.3343 137.388 25.2774 137.388 25.2204C137.376 21.6925 137.364 18.1645 137.352 14.6366C137.345 12.6247 137.338 10.6129 137.336 8.6015C137.336 8.48392 137.294 8.4151 137.157 8.35406C136.353 7.99766 135.555 7.63184 134.755 7.27052C134.455 7.13493 134.155 7.00261 133.823 6.85472ZM143.719 12.9197C143.761 12.855 143.798 12.805 143.827 12.7521C144.105 12.2536 144.381 11.7546 144.658 11.2557C145.439 9.84972 146.221 8.44419 147.001 7.03825C147.815 5.57373 148.625 4.10797 149.442 2.64468C149.503 2.53448 149.499 2.47508 149.351 2.40872C148.268 1.92492 147.19 1.43333 146.11 0.945017C146.058 0.921257 146 0.904871 145.938 0.882339C145.914 0.918799 145.899 0.939691 145.886 0.961403C145.298 2.02282 144.711 3.08506 144.122 4.14607C142.818 6.49504 141.512 8.84401 140.205 11.1922C140.163 11.2684 140.163 11.3134 140.268 11.3605C141.41 11.8734 142.549 12.39 143.719 12.9197ZM134.073 6.49996C134.165 6.55035 134.222 6.58599 134.284 6.61466C135.328 7.09314 136.372 7.56998 137.415 8.04928C137.518 8.09639 137.603 8.10335 137.711 8.05338C138.202 7.82643 138.697 7.60603 139.19 7.38154C139.24 7.3586 139.283 7.32665 139.35 7.28732C138.185 6.76214 137.051 6.25007 135.915 5.74046C135.879 5.72448 135.813 5.72243 135.778 5.73759C135.223 5.98338 134.669 6.23245 134.073 6.49996ZM140.13 14.6566C141.219 14.1655 142.267 13.6931 143.355 13.2028C142.247 12.6981 141.198 12.22 140.13 11.7337C140.13 12.721 140.13 13.6681 140.13 14.6566ZM142.956 15.8889C142.978 15.9204 142.983 15.9352 142.996 15.9454C143.99 16.8323 144.983 17.7196 145.981 18.6045C146.038 18.6553 146.115 18.6954 146.191 18.7298C146.945 19.074 147.701 19.4156 148.457 19.7573C148.506 19.7794 148.561 19.7937 148.613 19.8117C148.596 19.7605 148.566 19.729 148.533 19.6995C147.484 18.7651 146.434 17.8306 145.383 16.8966C144.894 16.4612 144.404 16.0253 143.91 15.5931C143.869 15.5571 143.769 15.5144 143.734 15.5292C143.473 15.6394 143.222 15.7631 142.956 15.8889ZM150.198 2.2932C150.207 2.2805 150.216 2.26821 150.225 2.25551C150.185 2.22765 150.149 2.19324 150.103 2.17235C149.311 1.80898 148.52 1.44439 147.723 1.08758C147.608 1.03596 147.464 1.02408 147.334 0.993766C147.328 1.0081 147.322 1.02285 147.316 1.03719C147.34 1.04989 147.365 1.06341 147.39 1.07488C148.156 1.42309 148.921 1.77334 149.692 2.11704C149.851 2.18832 150.029 2.23543 150.198 2.2932Z" fill="#73B1E7"/>
<path d="M4.26266 25.9643C3.82792 25.7624 3.39527 25.5575 2.95842 25.3593C2.07631 24.9586 1.19369 24.5596 0.307386 24.1651C0.138842 24.0901 0.0700594 23.9951 0.0695343 23.8427C0.0684842 22.6285 0.0579831 21.4143 0.0532576 20.1996C0.0401311 16.6807 0.0291047 13.1613 0.0170283 9.64238C0.0133529 8.63627 0.0107278 7.63015 -0.000823532 6.62404C-0.00239871 6.47287 0.0558829 6.38029 0.231253 6.30409C0.933783 5.99767 1.62896 5.68101 2.32362 5.36393C2.46276 5.30044 2.5788 5.29306 2.72476 5.35943C4.00644 5.94155 5.29178 6.51875 6.57765 7.09555C6.7189 7.15905 6.77508 7.24139 6.77403 7.37248C6.76983 8.2942 6.77613 9.21634 6.77875 10.1381C6.77875 10.1905 6.77875 10.2433 6.77875 10.2958C6.79713 10.2999 6.81551 10.3044 6.83388 10.3085C6.91317 10.1749 6.99613 10.0426 7.07069 9.90743C8.22109 7.82883 9.36992 5.74983 10.5193 3.67123C11.0764 2.66389 11.635 1.65654 12.1926 0.649197C12.3176 0.423476 12.3848 0.390703 12.7046 0.436175C13.2911 0.519745 13.8807 0.595122 14.4593 0.704501C14.6793 0.745876 14.8762 0.867134 15.0789 0.958897C16.1968 1.46564 17.313 1.97485 18.4304 2.48282C18.6761 2.59466 18.7002 2.65037 18.5868 2.8552C17.2495 5.26398 15.9116 7.67194 14.5759 10.0811C14.0046 11.111 13.4402 12.1429 12.8642 13.1712C12.808 13.2711 12.8227 13.3272 12.9099 13.4047C14.2241 14.5685 15.5341 15.7348 16.8452 16.9003C17.4191 17.4103 17.9893 17.9232 18.57 18.4287C18.7102 18.5504 18.7233 18.6487 18.5994 18.7802C18.004 19.416 17.417 20.0563 16.8232 20.6929C16.6945 20.8309 16.5638 20.8506 16.3763 20.7646C15.0747 20.1693 13.7736 19.5741 12.4772 18.9727C12.3612 18.9191 12.2688 18.8289 12.1774 18.7478C11.237 17.915 10.2956 17.083 9.3652 16.2436C9.22291 16.1154 9.11947 16.1084 8.93885 16.1916C8.29513 16.4882 7.64248 16.7733 6.9893 17.0572C6.85069 17.1174 6.79765 17.1895 6.7987 17.3157C6.81708 19.7441 6.82758 22.173 6.84806 24.6014C6.84964 24.7759 6.76825 24.8734 6.58133 24.9545C5.81789 25.2868 5.05971 25.6272 4.29994 25.9643C4.28787 25.9643 4.27527 25.9643 4.26266 25.9643ZM4.06892 25.4289C4.06892 25.3298 4.06892 25.2675 4.06892 25.2052C4.05684 21.6867 4.04476 18.1686 4.03269 14.65C4.02586 12.6284 4.01746 10.6063 4.01431 8.58465C4.01431 8.47773 3.97441 8.41546 3.85102 8.36057C2.95421 7.96115 2.06266 7.55436 1.16849 7.15085C0.957411 7.05581 0.744761 6.96323 0.498508 6.85385C0.493258 6.9407 0.486957 6.99764 0.486957 7.05417C0.497458 10.3101 0.50586 13.5657 0.519511 16.8216C0.528962 19.1112 0.545764 21.4003 0.55364 23.6899C0.554165 23.8071 0.609297 23.8677 0.732161 23.9222C1.23359 24.1442 1.73082 24.3724 2.22963 24.5981C2.82662 24.8681 3.42362 25.1376 4.06892 25.4289ZM12.6358 0.879424C12.6043 0.908099 12.588 0.917112 12.5807 0.929812C11.6786 2.55328 10.7766 4.17675 9.87608 5.80063C8.88267 7.59246 7.89136 9.38471 6.89427 11.1753C6.83861 11.2753 6.85331 11.3195 6.97565 11.3736C7.6535 11.6739 8.3261 11.9811 9.00028 12.2863C9.45918 12.494 9.91809 12.7025 10.3927 12.918C10.4316 12.8664 10.4678 12.8271 10.4925 12.7836C11.3142 11.3056 12.1344 9.82714 12.955 8.34869C14.012 6.44379 15.0679 4.53847 16.1274 2.63439C16.1863 2.52829 16.1716 2.47217 16.034 2.41113C15.1146 2.00229 14.201 1.58608 13.2848 1.17233C13.0679 1.0736 12.8505 0.976102 12.6358 0.879424ZM6.03422 7.30202C5.98329 7.27129 5.97016 7.26105 5.95388 7.25409C4.84548 6.75431 3.7376 6.25371 2.62553 5.75843C2.57092 5.73426 2.46696 5.73836 2.40973 5.76294C2.04271 5.91902 1.68199 6.08452 1.31918 6.24715C1.14118 6.32703 0.963187 6.40733 0.764714 6.49663C0.82037 6.53473 0.848724 6.56095 0.883903 6.57733C1.96028 7.07138 3.0377 7.56338 4.11355 8.05824C4.21488 8.10494 4.29732 8.09634 4.3934 8.0521C4.8187 7.85546 5.24715 7.66292 5.67402 7.46875C5.78691 7.41713 5.89928 7.36428 6.03422 7.30202ZM6.81183 11.7337C6.81183 12.7189 6.81183 13.6693 6.81183 14.6558C7.89976 14.1654 8.9462 13.6939 10.0336 13.2035C8.93307 12.7013 7.88558 12.2236 6.81183 11.7337ZM9.62825 15.8925C9.65556 15.9236 9.66763 15.9404 9.68338 15.9548C10.67 16.8343 11.6566 17.7143 12.6458 18.5921C12.7072 18.6466 12.787 18.6921 12.8679 18.729C13.5405 19.0362 14.2147 19.3406 14.8894 19.6454C15.0185 19.7035 15.1498 19.7584 15.28 19.815C15.2695 19.7584 15.238 19.724 15.2023 19.6921C14.1726 18.7761 13.1425 17.8601 12.1123 16.9441C11.6056 16.4935 11.1 16.0424 10.5907 15.5939C10.5503 15.5582 10.4589 15.5087 10.4305 15.521C10.1607 15.6365 9.89971 15.7643 9.62825 15.8925ZM14.0067 0.990031C14.0004 1.00396 13.9936 1.0183 13.9873 1.03223C14.0057 1.04288 14.0225 1.05517 14.0419 1.06418C14.8741 1.44106 15.7048 1.81999 16.5407 2.19196C16.6462 2.23907 16.7769 2.25095 16.8961 2.27922C16.8657 2.22515 16.8263 2.19237 16.7785 2.17066C15.9925 1.81057 15.207 1.44885 14.4158 1.09531C14.2939 1.04124 14.1438 1.02444 14.0067 0.990031Z" fill="#3D1701"/>
<path d="M94.0322 0.149871C94.9379 0.556659 95.8447 0.962629 96.7494 1.37024C97.1663 1.55827 97.579 1.75204 97.9964 1.93966C98.1529 2.01012 98.2301 2.09738 98.2274 2.24936C98.2164 2.86876 98.218 3.48857 98.2264 4.10797C98.2285 4.25627 98.1576 4.34352 97.9953 4.41644C96.2212 5.21322 94.4512 6.01492 92.677 6.81129C92.5557 6.86578 92.5101 6.92518 92.5106 7.03374C92.5248 9.5564 92.5347 12.0787 92.5452 14.6013C92.5557 17.0843 92.5647 19.5672 92.5794 22.0501C92.5804 22.1988 92.5122 22.2893 92.3504 22.3598C91.6427 22.6691 90.9375 22.9813 90.2344 23.2975C90.0806 23.3667 89.9556 23.3655 89.7986 23.293C88.5537 22.7207 87.3062 22.1521 86.0534 21.5909C85.857 21.5028 85.7798 21.4 85.7793 21.2246C85.773 17.5226 85.7609 13.8201 85.7499 10.118C85.7499 10.0701 85.7431 10.0222 85.7368 9.94558C85.5735 10.0144 85.4375 10.0705 85.3026 10.1291C85.0148 10.2545 84.735 10.3925 84.4378 10.5015C84.3359 10.5392 84.1647 10.5416 84.0697 10.4994C82.7812 9.92714 81.5011 9.34297 80.2158 8.76536C80.0766 8.70268 80.0236 8.62279 80.0236 8.50113C80.0236 7.86165 80.0194 7.22259 80.0105 6.58312C80.0089 6.46022 80.0625 6.38443 80.2032 6.32134C84.6856 4.30993 89.1665 2.29565 93.6468 0.28137C93.7392 0.239995 93.8274 0.193295 93.9177 0.149052C93.9555 0.149871 93.9939 0.149871 94.0322 0.149871ZM89.8049 22.8514C89.7839 17.9306 89.7629 13.0557 89.7419 8.15988C89.6569 8.18241 89.6196 8.18733 89.5886 8.20126C88.5175 8.6822 87.4485 9.16559 86.3747 9.64284C86.2471 9.69937 86.2209 9.76778 86.2214 9.87061C86.2309 11.0152 86.2356 12.1602 86.2424 13.3048C86.2571 15.9065 86.2723 18.5082 86.2834 21.1099C86.2839 21.2181 86.3275 21.2804 86.4472 21.334C87.2164 21.6785 87.9819 22.0288 88.749 22.3766C89.0819 22.5269 89.4153 22.6761 89.8049 22.8514ZM97.4734 2.14858C96.3115 1.61767 95.1921 1.10437 94.0674 0.598035C94.0112 0.573046 93.8967 0.589432 93.8327 0.618108C89.8522 2.40626 85.8738 4.19728 81.8954 5.9887C81.5295 6.15339 81.1635 6.31848 80.7645 6.49832C80.8537 6.5487 80.9136 6.58803 80.9797 6.61876C82.0178 7.09437 83.0579 7.56711 84.0933 8.04641C84.2257 8.10745 84.3191 8.08737 84.4383 8.03371C88.6902 6.11775 92.9432 4.20342 97.1957 2.28869C97.2813 2.25018 97.3616 2.20553 97.4734 2.14858ZM84.0198 10.0521C84.0198 9.95746 84.0198 9.90871 84.0198 9.85996C84.0198 9.43433 84.0162 9.00869 84.0225 8.58306C84.024 8.47532 83.9784 8.41428 83.8571 8.35979C82.7812 7.87845 81.709 7.39178 80.6353 6.90756C80.6012 6.89241 80.5592 6.88831 80.5187 6.87889C80.5072 6.90634 80.4967 6.92026 80.4967 6.93419C80.4983 7.40939 80.4962 7.8846 80.5093 8.35939C80.5109 8.41141 80.588 8.47942 80.6537 8.50973C81.5022 8.90341 82.3549 9.29176 83.2065 9.68135C83.4617 9.79728 83.7163 9.91321 84.0198 10.0521Z" fill="#8C6F5E"/>
</g>
<path d="M167.872 10V4.4H170.28C170.888 4.4 171.365 4.52267 171.712 4.768C172.059 5.01333 172.232 5.37067 172.232 5.84C172.232 6.29867 172.067 6.65067 171.736 6.896C171.405 7.136 170.971 7.256 170.432 7.256L170.576 7.016C171.2 7.016 171.677 7.14133 172.008 7.392C172.344 7.63733 172.512 7.99733 172.512 8.472C172.512 8.952 172.336 9.328 171.984 9.6C171.637 9.86667 171.12 10 170.432 10H167.872ZM168.664 9.368H170.416C170.843 9.368 171.163 9.29067 171.376 9.136C171.595 8.976 171.704 8.73333 171.704 8.408C171.704 8.08267 171.595 7.84533 171.376 7.696C171.163 7.54667 170.843 7.472 170.416 7.472H168.664V9.368ZM168.664 6.864H170.224C170.613 6.864 170.909 6.78667 171.112 6.632C171.32 6.47733 171.424 6.25067 171.424 5.952C171.424 5.648 171.32 5.41867 171.112 5.264C170.909 5.10933 170.613 5.032 170.224 5.032H168.664V6.864ZM176.713 10L175.073 7.936L175.705 7.552L177.617 10H176.713ZM173.641 10V5.76H174.409V10H173.641ZM174.177 8.208V7.552H175.577V8.208H174.177ZM175.769 7.968L175.057 7.872L176.681 5.76H177.505L175.769 7.968ZM178.316 11.6C178.113 11.6 177.916 11.5653 177.724 11.496C177.532 11.432 177.366 11.336 177.228 11.208L177.556 10.632C177.662 10.7333 177.78 10.8107 177.908 10.864C178.036 10.9173 178.172 10.944 178.316 10.944C178.502 10.944 178.657 10.896 178.78 10.8C178.902 10.704 179.017 10.5333 179.124 10.288L179.388 9.704L179.468 9.608L181.132 5.76H181.884L179.828 10.424C179.705 10.7227 179.566 10.9573 179.412 11.128C179.262 11.2987 179.097 11.4187 178.916 11.488C178.734 11.5627 178.534 11.6 178.316 11.6ZM179.324 10.136L177.388 5.76H178.188L179.836 9.536L179.324 10.136ZM184.321 10.048C183.889 10.048 183.502 9.95467 183.161 9.768C182.825 9.58133 182.561 9.32533 182.369 9C182.177 8.67467 182.081 8.30133 182.081 7.88C182.081 7.45867 182.177 7.08533 182.369 6.76C182.561 6.43467 182.825 6.18133 183.161 6C183.502 5.81333 183.889 5.72 184.321 5.72C184.705 5.72 185.046 5.79733 185.345 5.952C185.649 6.10133 185.883 6.32533 186.049 6.624L185.465 7C185.326 6.792 185.155 6.64 184.953 6.544C184.755 6.44267 184.542 6.392 184.313 6.392C184.035 6.392 183.787 6.45333 183.569 6.576C183.35 6.69867 183.177 6.872 183.049 7.096C182.921 7.31467 182.857 7.576 182.857 7.88C182.857 8.184 182.921 8.448 183.049 8.672C183.177 8.896 183.35 9.06933 183.569 9.192C183.787 9.31467 184.035 9.376 184.313 9.376C184.542 9.376 184.755 9.328 184.953 9.232C185.155 9.13067 185.326 8.976 185.465 8.768L186.049 9.136C185.883 9.42933 185.649 9.656 185.345 9.816C185.046 9.97067 184.705 10.048 184.321 10.048ZM186.963 10V5.76H187.731V7.56H190.147V5.76H190.915V10H190.147V8.224H187.731V10H186.963ZM194.144 10.048C193.718 10.048 193.339 9.95467 193.008 9.768C192.678 9.58133 192.416 9.32533 192.224 9C192.032 8.66933 191.936 8.296 191.936 7.88C191.936 7.45867 192.032 7.08533 192.224 6.76C192.416 6.43467 192.678 6.18133 193.008 6C193.339 5.81333 193.718 5.72 194.144 5.72C194.566 5.72 194.942 5.81333 195.272 6C195.608 6.18133 195.87 6.43467 196.056 6.76C196.248 7.08 196.344 7.45333 196.344 7.88C196.344 8.30133 196.248 8.67467 196.056 9C195.87 9.32533 195.608 9.58133 195.272 9.768C194.942 9.95467 194.566 10.048 194.144 10.048ZM194.144 9.376C194.416 9.376 194.659 9.31467 194.872 9.192C195.091 9.06933 195.262 8.896 195.384 8.672C195.507 8.44267 195.568 8.17867 195.568 7.88C195.568 7.576 195.507 7.31467 195.384 7.096C195.262 6.872 195.091 6.69867 194.872 6.576C194.659 6.45333 194.416 6.392 194.144 6.392C193.872 6.392 193.63 6.45333 193.416 6.576C193.203 6.69867 193.032 6.872 192.904 7.096C192.776 7.31467 192.712 7.576 192.712 7.88C192.712 8.17867 192.776 8.44267 192.904 8.672C193.032 8.896 193.203 9.06933 193.416 9.192C193.63 9.31467 193.872 9.376 194.144 9.376ZM199.261 10.048C198.808 10.048 198.408 9.95467 198.061 9.768C197.72 9.58133 197.453 9.32533 197.261 9C197.075 8.67467 196.981 8.30133 196.981 7.88C196.981 7.45867 197.072 7.08533 197.253 6.76C197.44 6.43467 197.693 6.18133 198.013 6C198.339 5.81333 198.704 5.72 199.109 5.72C199.52 5.72 199.883 5.81067 200.197 5.992C200.512 6.17333 200.757 6.42933 200.933 6.76C201.115 7.08533 201.205 7.46667 201.205 7.904C201.205 7.936 201.203 7.97333 201.197 8.016C201.197 8.05867 201.195 8.09867 201.189 8.136H197.581V7.584H200.789L200.477 7.776C200.483 7.504 200.427 7.26133 200.309 7.048C200.192 6.83467 200.029 6.66933 199.821 6.552C199.619 6.42933 199.381 6.368 199.109 6.368C198.843 6.368 198.605 6.42933 198.397 6.552C198.189 6.66933 198.027 6.83733 197.909 7.056C197.792 7.26933 197.733 7.51467 197.733 7.792V7.92C197.733 8.20267 197.797 8.456 197.925 8.68C198.059 8.89867 198.243 9.06933 198.477 9.192C198.712 9.31467 198.981 9.376 199.285 9.376C199.536 9.376 199.763 9.33333 199.965 9.248C200.173 9.16267 200.355 9.03467 200.509 8.864L200.933 9.36C200.741 9.584 200.501 9.75467 200.213 9.872C199.931 9.98933 199.613 10.048 199.261 10.048ZM206.233 10.048C205.801 10.048 205.415 9.95467 205.073 9.768C204.737 9.58133 204.473 9.32533 204.281 9C204.089 8.67467 203.993 8.30133 203.993 7.88C203.993 7.45867 204.089 7.08533 204.281 6.76C204.473 6.43467 204.737 6.18133 205.073 6C205.415 5.81333 205.801 5.72 206.233 5.72C206.617 5.72 206.959 5.79733 207.257 5.952C207.561 6.10133 207.796 6.32533 207.961 6.624L207.377 7C207.239 6.792 207.068 6.64 206.865 6.544C206.668 6.44267 206.455 6.392 206.225 6.392C205.948 6.392 205.7 6.45333 205.481 6.576C205.263 6.69867 205.089 6.872 204.961 7.096C204.833 7.31467 204.769 7.576 204.769 7.88C204.769 8.184 204.833 8.448 204.961 8.672C205.089 8.896 205.263 9.06933 205.481 9.192C205.7 9.31467 205.948 9.376 206.225 9.376C206.455 9.376 206.668 9.328 206.865 9.232C207.068 9.13067 207.239 8.976 207.377 8.768L207.961 9.136C207.796 9.42933 207.561 9.656 207.257 9.816C206.959 9.97067 206.617 10.048 206.233 10.048ZM210.629 10.048C210.202 10.048 209.824 9.95467 209.493 9.768C209.162 9.58133 208.901 9.32533 208.709 9C208.517 8.66933 208.421 8.296 208.421 7.88C208.421 7.45867 208.517 7.08533 208.709 6.76C208.901 6.43467 209.162 6.18133 209.493 6C209.824 5.81333 210.202 5.72 210.629 5.72C211.05 5.72 211.426 5.81333 211.757 6C212.093 6.18133 212.354 6.43467 212.541 6.76C212.733 7.08 212.829 7.45333 212.829 7.88C212.829 8.30133 212.733 8.67467 212.541 9C212.354 9.32533 212.093 9.58133 211.757 9.768C211.426 9.95467 211.05 10.048 210.629 10.048ZM210.629 9.376C210.901 9.376 211.144 9.31467 211.357 9.192C211.576 9.06933 211.746 8.896 211.869 8.672C211.992 8.44267 212.053 8.17867 212.053 7.88C212.053 7.576 211.992 7.31467 211.869 7.096C211.746 6.872 211.576 6.69867 211.357 6.576C211.144 6.45333 210.901 6.392 210.629 6.392C210.357 6.392 210.114 6.45333 209.901 6.576C209.688 6.69867 209.517 6.872 209.389 7.096C209.261 7.31467 209.197 7.576 209.197 7.88C209.197 8.17867 209.261 8.44267 209.389 8.672C209.517 8.896 209.688 9.06933 209.901 9.192C210.114 9.31467 210.357 9.376 210.629 9.376ZM213.858 10V5.76H217.786V10H217.018V6.24L217.202 6.432H214.442L214.626 6.24V10H213.858ZM221.44 10.048C221.088 10.048 220.765 9.968 220.472 9.808C220.184 9.64267 219.952 9.4 219.776 9.08C219.605 8.76 219.52 8.36 219.52 7.88C219.52 7.4 219.603 7 219.768 6.68C219.939 6.36 220.168 6.12 220.456 5.96C220.749 5.8 221.077 5.72 221.44 5.72C221.856 5.72 222.224 5.81067 222.544 5.992C222.864 6.17333 223.117 6.42667 223.304 6.752C223.491 7.072 223.584 7.448 223.584 7.88C223.584 8.312 223.491 8.69067 223.304 9.016C223.117 9.34133 222.864 9.59467 222.544 9.776C222.224 9.95733 221.856 10.048 221.44 10.048ZM219.192 11.552V5.76H219.928V6.904L219.88 7.888L219.96 8.872V11.552H219.192ZM221.376 9.376C221.648 9.376 221.891 9.31467 222.104 9.192C222.323 9.06933 222.493 8.896 222.616 8.672C222.744 8.44267 222.808 8.17867 222.808 7.88C222.808 7.576 222.744 7.31467 222.616 7.096C222.493 6.872 222.323 6.69867 222.104 6.576C221.891 6.45333 221.648 6.392 221.376 6.392C221.109 6.392 220.867 6.45333 220.648 6.576C220.435 6.69867 220.264 6.872 220.136 7.096C220.013 7.31467 219.952 7.576 219.952 7.88C219.952 8.17867 220.013 8.44267 220.136 8.672C220.264 8.896 220.435 9.06933 220.648 9.192C220.867 9.31467 221.109 9.376 221.376 9.376ZM226.436 10.048C226.009 10.048 225.631 9.95467 225.3 9.768C224.969 9.58133 224.708 9.32533 224.516 9C224.324 8.66933 224.228 8.296 224.228 7.88C224.228 7.45867 224.324 7.08533 224.516 6.76C224.708 6.43467 224.969 6.18133 225.3 6C225.631 5.81333 226.009 5.72 226.436 5.72C226.857 5.72 227.233 5.81333 227.564 6C227.9 6.18133 228.161 6.43467 228.348 6.76C228.54 7.08 228.636 7.45333 228.636 7.88C228.636 8.30133 228.54 8.67467 228.348 9C228.161 9.32533 227.9 9.58133 227.564 9.768C227.233 9.95467 226.857 10.048 226.436 10.048ZM226.436 9.376C226.708 9.376 226.951 9.31467 227.164 9.192C227.383 9.06933 227.553 8.896 227.676 8.672C227.799 8.44267 227.86 8.17867 227.86 7.88C227.86 7.576 227.799 7.31467 227.676 7.096C227.553 6.872 227.383 6.69867 227.164 6.576C226.951 6.45333 226.708 6.392 226.436 6.392C226.164 6.392 225.921 6.45333 225.708 6.576C225.495 6.69867 225.324 6.872 225.196 7.096C225.068 7.31467 225.004 7.576 225.004 7.88C225.004 8.17867 225.068 8.44267 225.196 8.672C225.324 8.896 225.495 9.06933 225.708 9.192C225.921 9.31467 226.164 9.376 226.436 9.376ZM229.665 10V5.76H231.633C232.129 5.76 232.518 5.856 232.801 6.048C233.089 6.23467 233.233 6.50133 233.233 6.848C233.233 7.19467 233.097 7.464 232.825 7.656C232.558 7.84267 232.204 7.936 231.761 7.936L231.881 7.728C232.388 7.728 232.764 7.82133 233.009 8.008C233.254 8.19467 233.377 8.46933 233.377 8.832C233.377 9.2 233.238 9.488 232.961 9.696C232.689 9.89867 232.27 10 231.705 10H229.665ZM230.417 9.408H231.649C231.969 9.408 232.209 9.36 232.369 9.264C232.529 9.16267 232.609 9.00267 232.609 8.784C232.609 8.56 232.534 8.39733 232.385 8.296C232.241 8.18933 232.012 8.136 231.697 8.136H230.417V9.408ZM230.417 7.584H231.569C231.862 7.584 232.084 7.53067 232.233 7.424C232.388 7.312 232.465 7.15733 232.465 6.96C232.465 6.75733 232.388 6.60533 232.233 6.504C232.084 6.40267 231.862 6.352 231.569 6.352H230.417V7.584ZM236.315 10.048C235.888 10.048 235.51 9.95467 235.179 9.768C234.848 9.58133 234.587 9.32533 234.395 9C234.203 8.66933 234.107 8.296 234.107 7.88C234.107 7.45867 234.203 7.08533 234.395 6.76C234.587 6.43467 234.848 6.18133 235.179 6C235.51 5.81333 235.888 5.72 236.315 5.72C236.736 5.72 237.112 5.81333 237.443 6C237.779 6.18133 238.04 6.43467 238.227 6.76C238.419 7.08 238.515 7.45333 238.515 7.88C238.515 8.30133 238.419 8.67467 238.227 9C238.04 9.32533 237.779 9.58133 237.443 9.768C237.112 9.95467 236.736 10.048 236.315 10.048ZM236.315 9.376C236.587 9.376 236.83 9.31467 237.043 9.192C237.262 9.06933 237.432 8.896 237.555 8.672C237.678 8.44267 237.739 8.17867 237.739 7.88C237.739 7.576 237.678 7.31467 237.555 7.096C237.432 6.872 237.262 6.69867 237.043 6.576C236.83 6.45333 236.587 6.392 236.315 6.392C236.043 6.392 235.8 6.45333 235.587 6.576C235.374 6.69867 235.203 6.872 235.075 7.096C234.947 7.31467 234.883 7.576 234.883 7.88C234.883 8.17867 234.947 8.44267 235.075 8.672C235.203 8.896 235.374 9.06933 235.587 9.192C235.8 9.31467 236.043 9.376 236.315 9.376ZM244.435 10L243.083 7.936L243.715 7.552L245.347 10H244.435ZM242.203 8.208V7.552H243.579V8.208H242.203ZM243.787 7.968L243.059 7.872L244.411 5.76H245.235L243.787 7.968ZM239.675 10H238.763L240.387 7.552L241.019 7.936L239.675 10ZM242.435 10H241.667V5.76H242.435V10ZM241.899 8.208H240.531V7.552H241.899V8.208ZM240.323 7.968L238.875 5.76H239.691L241.043 7.872L240.323 7.968ZM249.008 9.64V6.432H247.168L247.128 7.248C247.118 7.51467 247.099 7.77333 247.072 8.024C247.051 8.26933 247.014 8.496 246.96 8.704C246.912 8.912 246.84 9.08267 246.744 9.216C246.648 9.34933 246.52 9.432 246.36 9.464L245.6 9.328C245.766 9.33333 245.899 9.28 246 9.168C246.102 9.05067 246.179 8.89067 246.232 8.688C246.291 8.48533 246.334 8.256 246.36 8C246.387 7.73867 246.408 7.46933 246.424 7.192L246.488 5.76H249.776V9.64H249.008ZM245.432 10.984V9.328H250.424V10.984H249.704V10H246.16V10.984H245.432ZM253.233 10.048C252.78 10.048 252.38 9.95467 252.033 9.768C251.692 9.58133 251.425 9.32533 251.233 9C251.046 8.67467 250.953 8.30133 250.953 7.88C250.953 7.45867 251.044 7.08533 251.225 6.76C251.412 6.43467 251.665 6.18133 251.985 6C252.31 5.81333 252.676 5.72 253.081 5.72C253.492 5.72 253.854 5.81067 254.169 5.992C254.484 6.17333 254.729 6.42933 254.905 6.76C255.086 7.08533 255.177 7.46667 255.177 7.904C255.177 7.936 255.174 7.97333 255.169 8.016C255.169 8.05867 255.166 8.09867 255.161 8.136H251.553V7.584H254.761L254.449 7.776C254.454 7.504 254.398 7.26133 254.281 7.048C254.164 6.83467 254.001 6.66933 253.793 6.552C253.59 6.42933 253.353 6.368 253.081 6.368C252.814 6.368 252.577 6.42933 252.369 6.552C252.161 6.66933 251.998 6.83733 251.881 7.056C251.764 7.26933 251.705 7.51467 251.705 7.792V7.92C251.705 8.20267 251.769 8.456 251.897 8.68C252.03 8.89867 252.214 9.06933 252.449 9.192C252.684 9.31467 252.953 9.376 253.257 9.376C253.508 9.376 253.734 9.33333 253.937 9.248C254.145 9.16267 254.326 9.03467 254.481 8.864L254.905 9.36C254.713 9.584 254.473 9.75467 254.185 9.872C253.902 9.98933 253.585 10.048 253.233 10.048ZM256.288 10V5.76H257.056V7.56H259.472V5.76H260.24V10H259.472V8.224H257.056V10H256.288ZM261.654 10V5.76H262.422V8.848L265.022 5.76H265.718V10H264.95V6.912L262.358 10H261.654ZM269.016 10.048C268.563 10.048 268.163 9.95467 267.816 9.768C267.475 9.58133 267.208 9.32533 267.016 9C266.83 8.67467 266.736 8.30133 266.736 7.88C266.736 7.45867 266.827 7.08533 267.008 6.76C267.195 6.43467 267.448 6.18133 267.768 6C268.094 5.81333 268.459 5.72 268.864 5.72C269.275 5.72 269.638 5.81067 269.952 5.992C270.267 6.17333 270.512 6.42933 270.688 6.76C270.87 7.08533 270.96 7.46667 270.96 7.904C270.96 7.936 270.958 7.97333 270.952 8.016C270.952 8.05867 270.95 8.09867 270.944 8.136H267.336V7.584H270.544L270.232 7.776C270.238 7.504 270.182 7.26133 270.064 7.048C269.947 6.83467 269.784 6.66933 269.576 6.552C269.374 6.42933 269.136 6.368 268.864 6.368C268.598 6.368 268.36 6.42933 268.152 6.552C267.944 6.66933 267.782 6.83733 267.664 7.056C267.547 7.26933 267.488 7.51467 267.488 7.792V7.92C267.488 8.20267 267.552 8.456 267.68 8.68C267.814 8.89867 267.998 9.06933 268.232 9.192C268.467 9.31467 268.736 9.376 269.04 9.376C269.291 9.376 269.518 9.33333 269.72 9.248C269.928 9.16267 270.11 9.03467 270.264 8.864L270.688 9.36C270.496 9.584 270.256 9.75467 269.968 9.872C269.686 9.98933 269.368 10.048 269.016 10.048ZM167.04 21.992L167.088 21.344C167.125 21.3493 167.16 21.3547 167.192 21.36C167.224 21.3653 167.253 21.368 167.28 21.368C167.451 21.368 167.584 21.3093 167.68 21.192C167.781 21.0747 167.856 20.92 167.904 20.728C167.952 20.5307 167.987 20.3093 168.008 20.064C168.029 19.8187 168.045 19.5733 168.056 19.328L168.128 17.76H171.384V22H170.616V18.208L170.8 18.432H168.624L168.8 18.2L168.744 19.376C168.728 19.7493 168.699 20.0987 168.656 20.424C168.613 20.7493 168.547 21.0347 168.456 21.28C168.371 21.5253 168.251 21.7173 168.096 21.856C167.947 21.9947 167.752 22.064 167.512 22.064C167.443 22.064 167.368 22.056 167.288 22.04C167.213 22.0293 167.131 22.0133 167.04 21.992ZM172.789 22V17.76H173.557V19.496H174.837V20.208H173.557V22H172.789ZM176.541 22.048C176.125 22.048 175.754 21.9547 175.429 21.768C175.109 21.5813 174.856 21.3253 174.669 21C174.482 20.6693 174.389 20.296 174.389 19.88C174.389 19.4587 174.482 19.0853 174.669 18.76C174.856 18.4293 175.109 18.1733 175.429 17.992C175.754 17.8107 176.125 17.72 176.541 17.72C176.952 17.72 177.32 17.8107 177.645 17.992C177.97 18.1733 178.226 18.4293 178.413 18.76C178.6 19.0853 178.693 19.4587 178.693 19.88C178.693 20.3013 178.6 20.6747 178.413 21C178.226 21.3253 177.97 21.5813 177.645 21.768C177.32 21.9547 176.952 22.048 176.541 22.048ZM176.541 21.376C176.808 21.376 177.045 21.3147 177.253 21.192C177.461 21.064 177.626 20.8907 177.749 20.672C177.872 20.448 177.933 20.184 177.933 19.88C177.933 19.576 177.872 19.3147 177.749 19.096C177.626 18.872 177.461 18.6987 177.253 18.576C177.045 18.4533 176.808 18.392 176.541 18.392C176.28 18.392 176.042 18.4533 175.829 18.576C175.621 18.6987 175.456 18.872 175.333 19.096C175.21 19.3147 175.149 19.576 175.149 19.88C175.149 20.184 175.21 20.448 175.333 20.672C175.456 20.8907 175.621 21.064 175.829 21.192C176.042 21.3147 176.28 21.376 176.541 21.376ZM181.677 22.064C181.325 22.064 181.013 22.008 180.741 21.896C180.474 21.784 180.245 21.6187 180.053 21.4C179.861 21.176 179.714 20.896 179.613 20.56C179.517 20.2187 179.469 19.8187 179.469 19.36C179.469 18.9973 179.501 18.672 179.565 18.384C179.629 18.096 179.719 17.84 179.837 17.616C179.959 17.392 180.109 17.1973 180.285 17.032C180.466 16.8667 180.669 16.7307 180.893 16.624C181.122 16.512 181.373 16.4267 181.645 16.368L183.581 15.936L183.693 16.648L181.909 17.032C181.802 17.0533 181.674 17.0853 181.525 17.128C181.375 17.1707 181.223 17.2373 181.069 17.328C180.914 17.4133 180.77 17.5333 180.637 17.688C180.503 17.8427 180.397 18.0453 180.317 18.296C180.237 18.5413 180.197 18.8453 180.197 19.208C180.197 19.3093 180.199 19.3867 180.205 19.44C180.21 19.4933 180.215 19.5467 180.221 19.6C180.231 19.6533 180.239 19.7333 180.245 19.84L179.925 19.512C180.01 19.2187 180.146 18.9627 180.333 18.744C180.519 18.5253 180.743 18.3573 181.005 18.24C181.271 18.1173 181.562 18.056 181.877 18.056C182.271 18.056 182.621 18.1413 182.925 18.312C183.234 18.4827 183.477 18.7173 183.653 19.016C183.829 19.3147 183.917 19.656 183.917 20.04C183.917 20.4293 183.823 20.7787 183.637 21.088C183.455 21.392 183.197 21.632 182.861 21.808C182.525 21.9787 182.13 22.064 181.677 22.064ZM181.749 21.424C182.021 21.424 182.261 21.3653 182.469 21.248C182.677 21.1253 182.839 20.9627 182.957 20.76C183.074 20.552 183.133 20.32 183.133 20.064C183.133 19.808 183.074 19.5813 182.957 19.384C182.839 19.1867 182.677 19.032 182.469 18.92C182.261 18.8027 182.015 18.744 181.733 18.744C181.466 18.744 181.226 18.8 181.013 18.912C180.799 19.0187 180.634 19.1707 180.517 19.368C180.399 19.56 180.341 19.784 180.341 20.04C180.341 20.296 180.399 20.5307 180.517 20.744C180.639 20.952 180.805 21.1173 181.013 21.24C181.226 21.3627 181.471 21.424 181.749 21.424ZM189.126 22V17.76H189.894V22H189.126ZM186.846 19.2C187.384 19.2053 187.792 19.328 188.07 19.568C188.352 19.808 188.494 20.1467 188.494 20.584C188.494 21.0427 188.339 21.3973 188.03 21.648C187.726 21.8933 187.288 22.0133 186.718 22.008L184.934 22V17.76H185.702V19.192L186.846 19.2ZM186.662 21.424C187.003 21.4293 187.264 21.36 187.446 21.216C187.627 21.072 187.718 20.8587 187.718 20.576C187.718 20.2987 187.627 20.096 187.446 19.968C187.27 19.84 187.008 19.7733 186.662 19.768L185.702 19.752V21.416L186.662 21.424ZM190.635 22L192.459 19.632L192.451 20.024L190.715 17.76H191.571L192.899 19.504H192.571L193.899 17.76H194.739L192.979 20.04L192.987 19.632L194.827 22H193.955L192.555 20.144L192.867 20.192L191.491 22H190.635ZM197.623 22V17.76H198.415L200.239 20.896H199.919L201.791 17.76H202.511V22H201.815V18.624L201.943 18.696L200.231 21.52H199.895L198.175 18.64L198.327 18.608V22H197.623ZM205.814 22.048C205.361 22.048 204.961 21.9547 204.614 21.768C204.273 21.5813 204.006 21.3253 203.814 21C203.628 20.6747 203.534 20.3013 203.534 19.88C203.534 19.4587 203.625 19.0853 203.806 18.76C203.993 18.4347 204.246 18.1813 204.566 18C204.892 17.8133 205.257 17.72 205.662 17.72C206.073 17.72 206.436 17.8107 206.75 17.992C207.065 18.1733 207.31 18.4293 207.486 18.76C207.668 19.0853 207.758 19.4667 207.758 19.904C207.758 19.936 207.756 19.9733 207.75 20.016C207.75 20.0587 207.748 20.0987 207.742 20.136H204.134V19.584H207.342L207.03 19.776C207.036 19.504 206.98 19.2613 206.862 19.048C206.745 18.8347 206.582 18.6693 206.374 18.552C206.172 18.4293 205.934 18.368 205.662 18.368C205.396 18.368 205.158 18.4293 204.95 18.552C204.742 18.6693 204.58 18.8373 204.462 19.056C204.345 19.2693 204.286 19.5147 204.286 19.792V19.92C204.286 20.2027 204.35 20.456 204.478 20.68C204.612 20.8987 204.796 21.0693 205.03 21.192C205.265 21.3147 205.534 21.376 205.838 21.376C206.089 21.376 206.316 21.3333 206.518 21.248C206.726 21.1627 206.908 21.0347 207.062 20.864L207.486 21.36C207.294 21.584 207.054 21.7547 206.766 21.872C206.484 21.9893 206.166 22.048 205.814 22.048ZM211.118 22.048C210.766 22.048 210.443 21.968 210.15 21.808C209.862 21.6427 209.63 21.4 209.454 21.08C209.283 20.76 209.198 20.36 209.198 19.88C209.198 19.4 209.28 19 209.446 18.68C209.616 18.36 209.846 18.12 210.134 17.96C210.427 17.8 210.755 17.72 211.118 17.72C211.534 17.72 211.902 17.8107 212.222 17.992C212.542 18.1733 212.795 18.4267 212.982 18.752C213.168 19.072 213.262 19.448 213.262 19.88C213.262 20.312 213.168 20.6907 212.982 21.016C212.795 21.3413 212.542 21.5947 212.222 21.776C211.902 21.9573 211.534 22.048 211.118 22.048ZM208.87 23.552V17.76H209.606V18.904L209.558 19.888L209.638 20.872V23.552H208.87ZM211.054 21.376C211.326 21.376 211.568 21.3147 211.782 21.192C212 21.0693 212.171 20.896 212.294 20.672C212.422 20.4427 212.486 20.1787 212.486 19.88C212.486 19.576 212.422 19.3147 212.294 19.096C212.171 18.872 212 18.6987 211.782 18.576C211.568 18.4533 211.326 18.392 211.054 18.392C210.787 18.392 210.544 18.4533 210.326 18.576C210.112 18.6987 209.942 18.872 209.814 19.096C209.691 19.3147 209.63 19.576 209.63 19.88C209.63 20.1787 209.691 20.4427 209.814 20.672C209.942 20.896 210.112 21.0693 210.326 21.192C210.544 21.3147 210.787 21.376 211.054 21.376ZM216.113 22.048C215.687 22.048 215.308 21.9547 214.977 21.768C214.647 21.5813 214.385 21.3253 214.193 21C214.001 20.6693 213.905 20.296 213.905 19.88C213.905 19.4587 214.001 19.0853 214.193 18.76C214.385 18.4347 214.647 18.1813 214.977 18C215.308 17.8133 215.687 17.72 216.113 17.72C216.535 17.72 216.911 17.8133 217.241 18C217.577 18.1813 217.839 18.4347 218.025 18.76C218.217 19.08 218.313 19.4533 218.313 19.88C218.313 20.3013 218.217 20.6747 218.025 21C217.839 21.3253 217.577 21.5813 217.241 21.768C216.911 21.9547 216.535 22.048 216.113 22.048ZM216.113 21.376C216.385 21.376 216.628 21.3147 216.841 21.192C217.06 21.0693 217.231 20.896 217.353 20.672C217.476 20.4427 217.537 20.1787 217.537 19.88C217.537 19.576 217.476 19.3147 217.353 19.096C217.231 18.872 217.06 18.6987 216.841 18.576C216.628 18.4533 216.385 18.392 216.113 18.392C215.841 18.392 215.599 18.4533 215.385 18.576C215.172 18.6987 215.001 18.872 214.873 19.096C214.745 19.3147 214.681 19.576 214.681 19.88C214.681 20.1787 214.745 20.4427 214.873 20.672C215.001 20.896 215.172 21.0693 215.385 21.192C215.599 21.3147 215.841 21.376 216.113 21.376ZM219.342 22V17.76H223.27V22H222.502V18.24L222.686 18.432H219.926L220.11 18.24V22H219.342ZM226.924 22.048C226.572 22.048 226.25 21.968 225.956 21.808C225.668 21.6427 225.436 21.4 225.26 21.08C225.09 20.76 225.004 20.36 225.004 19.88C225.004 19.4 225.087 19 225.252 18.68C225.423 18.36 225.652 18.12 225.94 17.96C226.234 17.8 226.562 17.72 226.924 17.72C227.34 17.72 227.708 17.8107 228.028 17.992C228.348 18.1733 228.602 18.4267 228.788 18.752C228.975 19.072 229.068 19.448 229.068 19.88C229.068 20.312 228.975 20.6907 228.788 21.016C228.602 21.3413 228.348 21.5947 228.028 21.776C227.708 21.9573 227.34 22.048 226.924 22.048ZM224.676 23.552V17.76H225.412V18.904L225.364 19.888L225.444 20.872V23.552H224.676ZM226.86 21.376C227.132 21.376 227.375 21.3147 227.588 21.192C227.807 21.0693 227.978 20.896 228.1 20.672C228.228 20.4427 228.292 20.1787 228.292 19.88C228.292 19.576 228.228 19.3147 228.1 19.096C227.978 18.872 227.807 18.6987 227.588 18.576C227.375 18.4533 227.132 18.392 226.86 18.392C226.594 18.392 226.351 18.4533 226.132 18.576C225.919 18.6987 225.748 18.872 225.62 19.096C225.498 19.3147 225.436 19.576 225.436 19.88C225.436 20.1787 225.498 20.4427 225.62 20.672C225.748 20.896 225.919 21.0693 226.132 21.192C226.351 21.3147 226.594 21.376 226.86 21.376ZM230.104 22V17.76H230.872V20.848L233.472 17.76H234.168V22H233.4V18.912L230.808 22H230.104ZM238.291 22V20.512L238.411 20.656H237.059C236.494 20.656 236.051 20.536 235.731 20.296C235.416 20.056 235.259 19.7067 235.259 19.248C235.259 18.7573 235.427 18.3867 235.763 18.136C236.104 17.8853 236.558 17.76 237.123 17.76H238.979V22H238.291ZM235.219 22L236.371 20.376H237.163L236.043 22H235.219ZM238.291 20.272V18.216L238.411 18.432H237.147C236.795 18.432 236.523 18.4987 236.331 18.632C236.139 18.76 236.043 18.9733 236.043 19.272C236.043 19.8267 236.4 20.104 237.115 20.104H238.411L238.291 20.272ZM241.237 22V18.232L241.429 18.432H239.685V17.76H243.557V18.432H241.821L242.005 18.232V22H241.237ZM244.263 22V17.76H245.031V20.848L247.631 17.76H248.327V22H247.559V18.912L244.967 22H244.263ZM249.737 22V17.76H250.505V20.848L253.105 17.76H253.801V22H253.033V18.912L250.441 22H249.737ZM251.721 17.208C251.332 17.208 251.025 17.1147 250.801 16.928C250.583 16.736 250.471 16.4613 250.465 16.104H250.985C250.991 16.3067 251.057 16.4667 251.185 16.584C251.319 16.7013 251.495 16.76 251.713 16.76C251.932 16.76 252.108 16.7013 252.241 16.584C252.375 16.4667 252.444 16.3067 252.449 16.104H252.985C252.98 16.4613 252.865 16.736 252.641 16.928C252.417 17.1147 252.111 17.208 251.721 17.208Z" fill="#8C6F5E"/>
<defs>
<clipPath id="clip0_1_106">
<rect width="152" height="25.8319" fill="white" transform="translate(0 0.0840721)"/>
</clipPath>
</defs>
</svg>
