<svg width="126" height="23" viewBox="0 0 126 23" fill="none" xmlns="http://www.w3.org/2000/svg">
<g clip-path="url(#clip0_1_762)">
<path d="M100.072 0.847361C100.585 1.07863 101.1 1.3082 101.612 1.54185C102.206 1.81319 102.796 2.0903 103.391 2.35893C103.509 2.4119 103.547 2.47439 103.548 2.57593C103.549 4.12078 103.553 5.66562 103.558 7.21081C103.566 9.49531 103.575 11.7798 103.585 14.0643C103.589 14.9968 103.594 15.9297 103.606 16.8623C103.607 16.9934 103.55 17.0735 103.402 17.138C102.81 17.3954 102.224 17.6603 101.636 17.9242C101.539 17.9677 101.451 17.969 101.354 17.9249C100.291 17.4427 99.2286 16.9608 98.1635 16.4819C98.0337 16.4235 97.9833 16.3464 97.9833 16.2316C97.9824 15.4675 97.9759 14.7034 97.9706 13.939C97.9702 13.8999 97.9628 13.8612 97.9584 13.8222C97.9454 13.8201 97.9323 13.8184 97.9193 13.8164C97.8226 13.9903 97.7256 14.1638 97.6289 14.3377C96.9778 15.511 96.3262 16.684 95.675 17.8573C94.9638 19.1396 94.2517 20.422 93.5431 21.705C93.3502 22.0538 93.3529 22.0521 92.8762 21.9712C92.501 21.9077 92.1215 21.8615 91.7458 21.7984C91.6314 21.779 91.5178 21.7393 91.4159 21.6928C90.4814 21.2669 89.5486 20.8387 88.6175 20.4084C88.4778 20.3439 88.3429 20.2702 88.2202 20.1876C88.1797 20.1605 88.1527 20.0817 88.1731 20.044C88.7634 18.9617 89.3606 17.8818 89.9569 16.8018C90.2228 16.3203 90.4896 15.8394 90.7656 15.3412C90.6498 15.2855 90.5371 15.2288 90.4213 15.1758C89.845 14.9133 89.2705 14.6488 88.6902 14.392C88.5283 14.3204 88.4683 14.231 88.4687 14.0854C88.4696 12.3021 88.4639 10.5189 88.4578 8.73562C88.4548 7.90971 88.45 7.0838 88.44 6.25823C88.4382 6.10269 88.507 6.00387 88.6863 5.92338C92.2581 4.32284 95.8265 2.71788 99.3957 1.11361C99.5907 1.02599 99.784 0.935997 99.9781 0.847021C100.009 0.847361 100.04 0.847361 100.072 0.847361ZM102.939 2.51175C102.86 2.47303 102.818 2.45062 102.774 2.43058C101.914 2.0431 101.053 1.65867 100.197 1.26643C100.067 1.207 99.9777 1.20394 99.8458 1.26405C98.3436 1.94597 96.8363 2.62178 95.3311 3.29996C93.2889 4.21994 91.2474 5.14026 89.206 6.06126C89.1647 6.07994 89.1294 6.10609 89.0924 6.12816C89.1107 6.14989 89.1142 6.15906 89.122 6.1628C90.04 6.57745 90.9571 6.99312 91.879 7.40302C91.9326 7.42679 92.0353 7.42136 92.0919 7.39657C92.6046 7.17175 93.1117 6.93913 93.621 6.7099C96.4502 5.43605 99.2795 4.16255 102.109 2.8887C102.376 2.76781 102.642 2.64657 102.939 2.51175ZM88.8744 6.40629C88.8683 6.47387 88.8604 6.5204 88.8604 6.56726C88.867 9.02835 88.8757 11.4894 88.8783 13.9505C88.8783 14.0657 88.9279 14.1285 89.0515 14.1842C89.879 14.5581 90.7029 14.9371 91.5282 15.3137C91.607 15.3497 91.6897 15.3803 91.7998 15.4254C91.7998 15.3544 91.7998 15.3103 91.7998 15.2665C91.7963 14.6668 91.792 14.0667 91.7898 13.4669C91.7824 11.5934 91.7746 9.71978 91.7711 7.8462C91.7711 7.75485 91.7289 7.70663 91.6318 7.66282C90.9637 7.36057 90.299 7.05357 89.6326 6.74895C89.3893 6.6379 89.1447 6.52855 88.8744 6.40629ZM91.1338 15.493C91.0995 15.5429 91.0712 15.5776 91.0507 15.6142C90.2498 17.0626 89.4507 18.5114 88.6458 19.9584C88.6006 20.0396 88.6197 20.0712 88.7111 20.1123C89.4263 20.4325 90.1388 20.7568 90.8522 21.0794C91.0821 21.1834 91.3119 21.2869 91.5643 21.4014C92.8697 19.0479 94.1668 16.7091 95.4635 14.3706C95.4522 14.3621 95.4413 14.3536 95.43 14.3452C95.3734 14.3696 95.3168 14.3941 95.2602 14.4192C94.219 14.881 93.177 15.3415 92.138 15.8058C92.0231 15.8571 91.9304 15.8584 91.8177 15.8037C91.6 15.6978 91.3741 15.6013 91.1338 15.493ZM101.056 9.74831C101.012 9.7191 100.985 9.69499 100.951 9.67937C100.053 9.27015 99.155 8.86059 98.2531 8.45681C98.1987 8.43235 98.0938 8.43439 98.0385 8.45918C96.7588 9.03277 95.4831 9.61179 94.2055 10.1881C94.1141 10.2292 94.0763 10.2777 94.0767 10.3643C94.0815 11.1529 94.0793 11.9415 94.0802 12.7303C94.0802 12.7694 94.0858 12.8088 94.0915 12.8818C96.428 11.8307 98.7341 10.7929 101.056 9.74831ZM101.285 11.7149C101.216 11.7421 101.184 11.7533 101.153 11.7672C100.275 12.1615 99.3974 12.5575 98.5165 12.9484C98.4068 12.9969 98.3619 13.0496 98.3632 13.1504C98.3741 14.1197 98.3798 15.0885 98.3802 16.0578C98.3802 16.1654 98.4203 16.2289 98.5417 16.2836C99.3879 16.6643 100.23 17.0511 101.073 17.4352C101.139 17.4651 101.207 17.4916 101.285 17.5245C101.285 15.5844 101.285 13.6626 101.285 11.7149ZM101.25 5.36406C101.208 5.36576 101.196 5.36372 101.188 5.36711C100.278 5.77565 99.3683 6.18521 98.4573 6.59273C98.368 6.63281 98.3402 6.68341 98.3415 6.7622C98.3493 7.185 98.3524 7.60814 98.3511 8.03095C98.3511 8.11143 98.3885 8.15558 98.4773 8.19531C99.1872 8.51352 99.8941 8.83648 100.602 9.1574C100.809 9.25113 101.017 9.34384 101.25 9.44878C101.25 8.0717 101.25 6.7211 101.25 5.36406ZM94.0915 9.87057C94.1511 9.84951 94.1947 9.83728 94.2334 9.81962C95.4374 9.27626 96.64 8.73154 97.8453 8.19056C97.9332 8.15116 97.958 8.10668 97.9571 8.03366C97.9515 7.67674 97.9515 7.31948 97.9484 6.96256C97.948 6.92486 97.9393 6.88683 97.9323 6.83589C97.8757 6.85694 97.8427 6.86747 97.8118 6.88139C96.5982 7.42815 95.3847 7.97457 94.1746 8.52574C94.122 8.54985 94.0745 8.61947 94.0737 8.66838C94.0676 9.02937 94.0737 9.39071 94.0767 9.7517C94.0776 9.78702 94.0854 9.82166 94.0915 9.87057Z" fill="#E4B91C"/>
<path d="M55.8317 0.847397C56.3183 1.06508 56.8063 1.28141 57.2916 1.50113C57.9049 1.77892 58.5151 2.06147 59.1297 2.33757C59.2625 2.39734 59.2982 2.47714 59.2982 2.59057C59.2986 3.9629 59.3025 5.33489 59.3086 6.70721C59.3212 9.67329 59.3352 12.6397 59.3491 15.6058C59.3509 16.0289 59.3504 16.4521 59.3596 16.8752C59.3622 16.9975 59.3034 17.0712 59.1685 17.1316C57.0822 18.0665 54.9995 19.0062 52.9132 19.9415C51.2461 20.6889 49.5756 21.431 47.908 22.1777C47.7992 22.2267 47.7135 22.2287 47.6029 22.1784C46.56 21.7023 45.5158 21.2279 44.4681 20.7586C44.3118 20.6886 44.2513 20.604 44.254 20.4631C44.2635 19.9618 44.264 19.4606 44.2535 18.9593C44.2505 18.8201 44.3175 18.7434 44.4664 18.6765C46.6475 17.6974 48.826 16.7153 51.0054 15.7338C51.8564 15.3507 52.706 14.9656 53.5592 14.586C53.6789 14.5326 53.7293 14.4729 53.7263 14.3625C53.7167 14.03 53.7232 13.6969 53.7228 13.3641C53.7228 13.3209 53.718 13.2775 53.715 13.2265C53.6758 13.2323 53.6514 13.2299 53.6379 13.2384C53.4233 13.3746 53.1713 13.3865 52.9093 13.3875C51.2139 13.3953 49.5185 13.4086 47.8232 13.4147C47.7252 13.415 47.6182 13.3797 47.5307 13.3403C46.4843 12.8693 45.4409 12.3935 44.3954 11.9208C44.2735 11.8658 44.2196 11.7941 44.2196 11.6817C44.2157 9.86177 44.2091 8.04151 44.1991 6.22159C44.1982 6.0939 44.2448 6.01035 44.3972 5.94447C44.9804 5.69181 45.558 5.43099 46.1335 5.1678C46.2693 5.10566 46.3776 5.11313 46.5104 5.1746C47.5463 5.65207 48.5845 6.12616 49.6256 6.59684C49.7714 6.66273 49.8254 6.74185 49.8254 6.87328C49.8232 7.76473 49.8328 8.65619 49.8332 9.54764C49.8332 9.64273 49.8681 9.67499 49.993 9.67941C50.1897 9.68654 50.3577 9.64918 50.5288 9.57107C51.526 9.11567 52.5276 8.66569 53.5313 8.21844C53.658 8.16207 53.7002 8.09788 53.6997 7.98513C53.6915 5.98013 53.6915 3.97512 53.6815 1.97012C53.6806 1.81186 53.7507 1.72459 53.9239 1.65021C54.4945 1.40536 55.0574 1.1493 55.6228 0.896978C55.6532 0.883394 55.6789 0.863698 55.7068 0.846718C55.7473 0.847397 55.7895 0.847397 55.8317 0.847397ZM56.8232 16.1152C56.7719 16.0829 56.7431 16.0595 56.7088 16.0442C55.8186 15.6404 54.9289 15.236 54.0353 14.8373C53.9814 14.8132 53.8804 14.8152 53.8242 14.8386C53.5374 14.9585 53.2579 15.0896 52.9759 15.2166C50.3234 16.411 47.6713 17.605 45.0192 18.7997C44.973 18.8205 44.9317 18.8486 44.8733 18.8816C44.916 18.9037 44.936 18.9152 44.9578 18.9247C45.8444 19.3248 46.7328 19.7228 47.6168 20.1266C47.7318 20.1792 47.8149 20.1802 47.9311 20.1276C50.1532 19.122 52.3778 18.1202 54.6021 17.1177C55.3337 16.7876 56.065 16.4575 56.8232 16.1152ZM57.0235 9.43829C57.0235 9.36188 57.0239 9.31331 57.0235 9.26475C57.0191 8.56653 57.0139 7.86865 57.0104 7.17043C57.0039 5.96722 56.9978 4.76402 56.9952 3.56081C56.9952 3.47965 56.959 3.43516 56.8707 3.39542C56.1468 3.07111 55.4252 2.74339 54.703 2.41669C54.5102 2.32942 54.3174 2.24146 54.0967 2.14094C54.0915 2.20546 54.0854 2.24384 54.0854 2.28221C54.0915 4.19586 54.0984 6.10952 54.1028 8.02317C54.1028 8.10841 54.1428 8.15561 54.2364 8.19772C55.1187 8.59506 55.998 8.99613 56.879 9.3955C56.912 9.41112 56.9521 9.41791 57.0235 9.43829ZM44.607 6.39784C44.607 6.47357 44.607 6.51398 44.607 6.55406C44.6109 8.21369 44.6165 9.87332 44.6161 11.5329C44.6161 11.6321 44.6692 11.68 44.7676 11.7241C45.6364 12.1157 46.5034 12.5096 47.3714 12.9022C47.414 12.9216 47.4606 12.9358 47.5302 12.962C47.5341 12.8992 47.5394 12.856 47.5394 12.8129C47.5376 12.2091 47.5346 11.6053 47.5324 11.0015C47.5289 9.94565 47.5246 8.89017 47.5241 7.83435C47.5241 7.75047 47.4911 7.70021 47.3957 7.65742C46.6492 7.32189 45.9058 6.98229 45.1615 6.64439C44.9904 6.56662 44.8181 6.49157 44.607 6.39784ZM56.8037 9.74359C56.7397 9.70963 56.6996 9.68586 56.6561 9.66582C55.7773 9.26305 54.8989 8.85961 54.0162 8.46227C53.9579 8.43612 53.8473 8.43579 53.789 8.4616C52.8214 8.89153 51.8577 9.32758 50.894 9.76295C50.8526 9.78163 50.8174 9.80812 50.766 9.83936C50.8104 9.86109 50.8313 9.87196 50.8531 9.88181C51.7049 10.272 52.5602 10.6578 53.4059 11.0555C53.5848 11.1397 53.7145 11.141 53.8965 11.0572C54.8502 10.6174 55.813 10.1898 56.8037 9.74359ZM57.0326 11.7187C56.9643 11.7408 56.9347 11.7472 56.909 11.7588C56.0176 12.1599 55.1252 12.5599 54.2382 12.9664C54.1816 12.9926 54.1333 13.0696 54.132 13.1233C54.1233 13.5461 54.1294 13.9692 54.125 14.3921C54.1241 14.4766 54.1611 14.5252 54.256 14.568C54.9298 14.8702 55.6001 15.1769 56.2713 15.4822C56.5225 15.5963 56.7736 15.7107 57.0326 15.8286C57.0326 14.4552 57.0326 13.0995 57.0326 11.7187ZM49.1947 6.78023C49.1599 6.75476 49.1507 6.74491 49.1381 6.73914C48.221 6.32381 47.3043 5.90779 46.3846 5.49586C46.3424 5.47684 46.2623 5.4765 46.2196 5.49518C45.7844 5.68536 45.353 5.88063 44.9221 6.07624C44.8912 6.09016 44.8699 6.11801 44.8368 6.14517C45.7826 6.57205 46.7102 6.98874 47.6347 7.40917C47.727 7.45128 47.7914 7.42445 47.8645 7.39083C48.1814 7.24548 48.4983 7.10013 48.8147 6.95478C48.9357 6.89943 49.0567 6.8434 49.1947 6.78023ZM58.6958 2.50805C57.7177 2.06283 56.7797 1.63527 55.8387 1.21145C55.8012 1.19447 55.7255 1.20364 55.6833 1.22232C55.2637 1.40944 54.8489 1.60301 54.4297 1.78979C54.3156 1.84073 54.317 1.86858 54.4297 1.91952C55.3163 2.31923 56.1999 2.72335 57.0883 3.12035C57.1471 3.1465 57.2559 3.14616 57.316 3.12137C57.6359 2.98892 57.948 2.84493 58.2622 2.70434C58.3976 2.64389 58.5317 2.58242 58.6958 2.50805ZM47.5677 21.8042C47.5677 21.7322 47.5677 21.6891 47.5677 21.6459C47.5677 21.2968 47.5624 20.9481 47.5711 20.5989C47.5738 20.5022 47.5281 20.4529 47.4258 20.4067C46.7581 20.1052 46.0938 19.7985 45.4279 19.4942C45.185 19.3832 44.9412 19.2742 44.6818 19.1567C44.6701 19.2008 44.6574 19.2273 44.657 19.2534C44.6557 19.6352 44.6531 20.0172 44.6614 20.3989C44.6622 20.4441 44.714 20.5045 44.7654 20.53C44.9913 20.6417 45.2255 20.7433 45.457 20.8482C46.1469 21.1606 46.8368 21.4727 47.5677 21.8042ZM52.7952 11.191C52.7992 11.1777 52.8031 11.1641 52.807 11.1509C52.777 11.1332 52.7491 11.1132 52.7173 11.0986C51.973 10.76 51.2265 10.4248 50.4857 10.0822C50.3338 10.0119 50.1823 9.98335 50.0082 9.98606C49.8803 9.9881 49.8298 10.017 49.8319 10.1205C49.838 10.4367 49.838 10.7532 49.8319 11.0694C49.8298 11.1747 49.8846 11.2015 50.0113 11.2008C50.8008 11.1947 51.5904 11.1937 52.38 11.191C52.518 11.1906 52.6568 11.191 52.7952 11.191Z" fill="#FF9D97"/>
<path d="M25.6536 22.2473C25.0664 21.9767 24.4792 21.706 23.8916 21.436C23.3845 21.2031 22.8788 20.9684 22.3682 20.7405C22.2367 20.6818 22.1889 20.6081 22.1884 20.4923C22.1849 19.178 22.1741 17.8634 22.1697 16.5492C22.1584 13.2673 22.1492 9.98536 22.1392 6.70312C22.1388 6.5306 22.1423 6.35808 22.134 6.18557C22.1288 6.07791 22.1823 6.01373 22.3029 5.95973C23.8242 5.27815 25.3424 4.5925 26.8619 3.90888C28.9325 2.97803 31.0039 2.04855 33.0745 1.1177C33.2682 1.03076 33.4571 0.93737 33.6486 0.847376C33.6909 0.847376 33.7331 0.847376 33.7749 0.847376C34.1418 1.0131 34.5087 1.17815 34.8752 1.34455C35.6017 1.67431 36.3269 2.00542 37.0546 2.33313C37.183 2.39086 37.2313 2.4649 37.2318 2.5824C37.234 4.73887 37.2414 6.89533 37.2483 9.0518C37.2501 9.52826 37.2514 10.0047 37.2609 10.4812C37.2636 10.6153 37.2048 10.6961 37.0503 10.7658C34.1431 12.0743 31.2394 13.3872 28.3349 14.6994C28.1938 14.7629 28.0563 14.8322 27.9109 14.8885C27.8147 14.9259 27.7903 14.9778 27.7908 15.0556C27.7951 15.9182 27.7969 16.7808 27.7986 17.6434C27.8008 18.8221 27.8008 20.0012 27.8051 21.18C27.8056 21.2815 27.7425 21.3396 27.6402 21.3851C27.0143 21.6615 26.3883 21.9383 25.7624 22.2154C25.745 22.2232 25.732 22.2368 25.7167 22.2477C25.6958 22.2473 25.6745 22.2473 25.6536 22.2473ZM22.5419 6.39646C22.5419 6.47627 22.5419 6.52007 22.5419 6.56422C22.554 9.78941 22.5662 13.0146 22.578 16.2398C22.5832 17.6081 22.5889 18.976 22.5889 20.3442C22.5889 20.4478 22.6285 20.5069 22.7443 20.5585C23.3832 20.8428 24.0174 21.1331 24.6534 21.4211C24.9241 21.5437 25.1957 21.6646 25.5021 21.8021C25.5021 21.7196 25.5021 21.6642 25.5021 21.6089C25.4921 18.3756 25.4821 15.1422 25.4717 11.9085C25.4673 10.5569 25.4608 9.2053 25.4595 7.85335C25.4595 7.75724 25.4142 7.7063 25.3115 7.66011C24.6886 7.37892 24.0692 7.0923 23.4485 6.8084C23.1608 6.67629 22.8714 6.54588 22.5419 6.39646ZM22.7752 6.12478C22.7995 6.15195 22.8035 6.16112 22.8113 6.16485C23.7193 6.57713 24.6281 6.98804 25.5352 7.40168C25.6257 7.44277 25.6967 7.43258 25.782 7.39387C26.4127 7.1069 27.0447 6.82232 27.6772 6.53773C30.6065 5.21838 33.5363 3.89937 36.4657 2.57968C36.5079 2.56066 36.5445 2.53451 36.5967 2.50429C36.5541 2.4829 36.5336 2.47169 36.5118 2.46184C35.6126 2.05398 34.712 1.6485 33.8167 1.23588C33.7017 1.1829 33.6325 1.22264 33.5481 1.26067C31.965 1.97383 30.3824 2.687 28.7993 3.4005C26.8345 4.28584 24.8697 5.17118 22.9049 6.0572C22.8622 6.07588 22.8222 6.09999 22.7752 6.12478ZM34.7416 9.74289C34.6724 9.70791 34.6302 9.68448 34.5858 9.6641C33.7113 9.26371 32.836 8.86502 31.9633 8.46259C31.874 8.4215 31.8053 8.4198 31.7169 8.45988C30.4503 9.03482 29.1828 9.60875 27.9135 10.1803C27.8112 10.2261 27.7655 10.2771 27.7664 10.3739C27.7716 11.1583 27.769 11.9432 27.7699 12.728C27.7699 12.766 27.7768 12.8044 27.7829 12.8703C30.1121 11.8229 32.412 10.7895 34.7416 9.74289ZM34.9331 9.43182C34.9331 8.06356 34.9331 6.7167 34.9331 5.35796C34.8883 5.36984 34.8683 5.37256 34.8513 5.38003C33.9455 5.7862 33.0388 6.19168 32.1369 6.6026C32.0834 6.62705 32.0351 6.69735 32.0342 6.74693C32.026 7.17381 32.0312 7.60102 32.0281 8.0279C32.0277 8.10635 32.0586 8.15322 32.15 8.19431C33.038 8.59164 33.9229 8.99339 34.8091 9.39344C34.843 9.40906 34.8826 9.41653 34.9331 9.43182ZM31.619 6.84609C31.5881 6.84609 31.5815 6.84439 31.5776 6.84643C30.3415 7.40372 29.1062 7.96202 27.8687 8.51693C27.776 8.55836 27.7516 8.60998 27.752 8.68673C27.7551 9.05214 27.7529 9.41755 27.7542 9.78296C27.7542 9.80911 27.7655 9.83492 27.7734 9.86888C27.8247 9.8502 27.8643 9.839 27.8996 9.82304C29.1083 9.27764 30.3158 8.73054 31.5263 8.18786C31.6177 8.14676 31.6312 8.0965 31.6307 8.02722C31.629 7.66589 31.6303 7.30455 31.6294 6.94322C31.6299 6.91197 31.6233 6.88107 31.619 6.84609Z" fill="#44B5B1"/>
<path d="M114.07 22.2474C113.363 21.9254 112.655 21.6032 111.947 21.2816C111.557 21.1043 111.167 20.926 110.773 20.7535C110.638 20.6947 110.581 20.6197 110.581 20.4971C110.58 19.5275 110.57 18.558 110.566 17.5884C110.553 13.9608 110.542 10.3332 110.529 6.70553C110.529 6.52487 110.531 6.34386 110.525 6.16319C110.522 6.07523 110.563 6.01648 110.661 5.97267C111.263 5.70405 111.864 5.43407 112.463 5.16205C112.569 5.11382 112.661 5.11178 112.769 5.16069C113.836 5.64394 114.906 6.12515 115.976 6.60501C116.095 6.65833 116.136 6.72863 116.135 6.83594C116.133 7.61227 116.139 8.38894 116.142 9.16526C116.142 9.19719 116.147 9.22877 116.186 9.27122C116.252 9.16085 116.319 9.0515 116.381 8.93977C117.468 6.97619 118.554 5.01228 119.64 3.04871C119.968 2.45441 120.298 1.86044 120.627 1.26614C120.734 1.07257 120.786 1.04642 121.062 1.08547C121.543 1.15339 122.026 1.21656 122.502 1.3052C122.679 1.33848 122.839 1.43424 123.002 1.50794C123.943 1.9338 124.882 2.36135 125.821 2.78857C125.998 2.86872 126.022 2.92102 125.939 3.07214C125.537 3.79821 125.133 4.5236 124.73 5.24932C124.08 6.42265 123.431 7.59631 122.781 8.76963C122.25 9.72866 121.72 10.6884 121.184 11.6457C121.14 11.7235 121.15 11.7693 121.219 11.8298C122.269 12.761 123.317 13.6938 124.365 14.6261C124.886 15.0889 125.406 15.5528 125.931 16.0133C126.031 16.1013 126.044 16.1767 125.953 16.2745C125.458 16.8056 124.969 17.3401 124.475 17.8716C124.36 17.9946 124.251 18.0068 124.078 17.9277C123.217 17.5341 122.356 17.1401 121.495 16.7462C121.427 16.7149 121.361 16.6803 121.291 16.6531C120.946 16.519 120.673 16.3247 120.422 16.0965C119.703 15.4418 118.965 14.7989 118.238 14.1496C118.161 14.0807 118.101 14.0739 117.998 14.1204C117.439 14.3727 116.876 14.6203 116.311 14.8648C116.194 14.9154 116.157 14.9789 116.157 15.0818C116.172 17.0946 116.18 19.1078 116.197 21.1209C116.198 21.2591 116.138 21.3396 115.986 21.4055C115.366 21.6738 114.751 21.9489 114.134 22.2219C114.121 22.2277 114.112 22.2386 114.101 22.2474C114.091 22.2474 114.081 22.2474 114.07 22.2474ZM110.938 6.40567C110.932 6.47494 110.925 6.52181 110.926 6.56901C110.938 9.99899 110.95 13.429 110.963 16.8586C110.968 18.0251 110.978 19.1917 110.98 20.3582C110.98 20.4533 111.021 20.5062 111.124 20.5524C111.807 20.8584 112.487 21.1688 113.169 21.4772C113.398 21.5811 113.629 21.683 113.893 21.8008C113.893 21.7251 113.893 21.6779 113.893 21.6307C113.884 18.706 113.874 15.7814 113.864 12.8567C113.858 11.1889 113.852 9.52117 113.85 7.85372C113.85 7.75626 113.815 7.69921 113.702 7.64861C113.035 7.35315 112.374 7.04989 111.71 6.75036C111.462 6.63795 111.213 6.52826 110.938 6.40567ZM119.141 11.4335C119.176 11.3798 119.207 11.3384 119.231 11.2946C119.462 10.8813 119.691 10.4676 119.92 10.054C120.568 8.88849 121.216 7.72332 121.863 6.55781C122.537 5.34373 123.209 4.12864 123.886 2.91558C123.937 2.82423 123.934 2.77499 123.811 2.71997C122.913 2.3189 122.019 1.91138 121.124 1.50658C121.08 1.48688 121.033 1.4733 120.981 1.45462C120.961 1.48484 120.949 1.50216 120.938 1.52016C120.451 2.40007 119.964 3.28065 119.476 4.16022C118.394 6.10749 117.312 8.05477 116.229 10.0014C116.194 10.0645 116.194 10.1019 116.281 10.1409C117.227 10.5661 118.172 10.9944 119.141 11.4335ZM111.145 6.11157C111.222 6.15334 111.269 6.18289 111.32 6.20666C112.185 6.60331 113.051 6.99861 113.916 7.39594C114.001 7.435 114.072 7.44077 114.161 7.39934C114.568 7.2112 114.978 7.02849 115.387 6.84239C115.429 6.82337 115.465 6.79689 115.52 6.76428C114.554 6.32892 113.614 5.90441 112.672 5.48195C112.643 5.46871 112.587 5.46701 112.559 5.47957C112.098 5.68333 111.639 5.88981 111.145 6.11157ZM116.166 12.8734C117.069 12.4662 117.938 12.0746 118.84 11.6681C117.922 11.2497 117.052 10.8534 116.166 10.4503C116.166 11.2688 116.166 12.0539 116.166 12.8734ZM118.509 13.8949C118.527 13.921 118.532 13.9333 118.542 13.9418C119.366 14.677 120.19 15.4126 121.016 16.1461C121.064 16.1882 121.128 16.2215 121.191 16.25C121.816 16.5353 122.443 16.8185 123.07 17.1017C123.11 17.1201 123.156 17.132 123.199 17.1469C123.185 17.1045 123.16 17.0783 123.133 17.0539C122.263 16.2792 121.392 15.5046 120.521 14.7303C120.115 14.3693 119.71 14.008 119.3 13.6497C119.266 13.6198 119.183 13.5845 119.154 13.5967C118.938 13.6881 118.73 13.7906 118.509 13.8949ZM124.513 2.62421C124.52 2.61368 124.527 2.60349 124.535 2.59296C124.502 2.56987 124.472 2.54134 124.434 2.52402C123.777 2.2228 123.121 1.92055 122.461 1.62476C122.365 1.58197 122.246 1.57212 122.138 1.54699C122.133 1.55888 122.128 1.5711 122.123 1.58299C122.144 1.59352 122.164 1.60472 122.185 1.61423C122.82 1.90289 123.454 2.19325 124.093 2.47818C124.225 2.53727 124.372 2.57632 124.513 2.62421Z" fill="#73B1E7"/>
<path d="M3.53368 22.2473C3.17328 22.0799 2.81462 21.9101 2.45247 21.7457C1.72122 21.4136 0.989531 21.0828 0.254796 20.7558C0.115075 20.6936 0.0580545 20.6149 0.0576192 20.4885C0.0567487 19.4819 0.0480434 18.4754 0.044126 17.4685C0.0332442 14.5513 0.0241035 11.6338 0.0140923 8.71659C0.0110454 7.88253 0.00886918 7.04847 -0.000706756 6.21441C-0.00201257 6.0891 0.0463023 6.01235 0.191682 5.94918C0.774073 5.69516 1.35037 5.43265 1.92623 5.1698C2.04158 5.11716 2.13777 5.11105 2.25878 5.16606C3.32127 5.64864 4.38681 6.12713 5.45279 6.60529C5.56987 6.65793 5.61645 6.72619 5.61558 6.83486C5.6121 7.59896 5.61732 8.36341 5.61949 9.12751C5.61949 9.17098 5.61949 9.21479 5.61949 9.25826C5.63473 9.26165 5.64996 9.26539 5.6652 9.26878C5.73093 9.15807 5.7997 9.04838 5.86151 8.93631C6.81518 7.21318 7.76755 5.4897 8.72036 3.76656C9.18218 2.93149 9.6453 2.09641 10.1076 1.26133C10.2112 1.07421 10.2669 1.04704 10.5319 1.08473C11.0181 1.15401 11.507 1.2165 11.9866 1.30717C12.169 1.34147 12.3322 1.442 12.5002 1.51807C13.4269 1.93815 14.3523 2.36028 15.2786 2.78138C15.4823 2.87409 15.5023 2.92028 15.4083 3.09008C14.2996 5.08693 13.1906 7.08311 12.0832 9.0803C11.6097 9.93406 11.1418 10.7895 10.6643 11.6419C10.6177 11.7248 10.6299 11.7713 10.7021 11.8355C11.7916 12.8003 12.8776 13.7671 13.9645 14.7333C14.4402 15.1561 14.9129 15.5813 15.3943 16.0004C15.5106 16.1012 15.5214 16.1827 15.4187 16.2917C14.9251 16.8188 14.4385 17.3496 13.9462 17.8773C13.8396 17.9918 13.7312 18.0081 13.5758 17.9368C12.4968 17.4433 11.4182 16.9499 10.3435 16.4513C10.2473 16.4069 10.1707 16.3321 10.0949 16.2649C9.31537 15.5745 8.53493 14.8848 7.76363 14.1889C7.64568 14.0826 7.55993 14.0769 7.4102 14.1458C6.87655 14.3917 6.33551 14.628 5.79404 14.8634C5.67913 14.9133 5.63517 14.9731 5.63604 15.0777C5.65127 17.0908 5.65998 19.1043 5.67695 21.1175C5.67826 21.2621 5.61079 21.343 5.45583 21.4102C4.82295 21.6856 4.19442 21.9678 3.56459 22.2473C3.55458 22.2473 3.54413 22.2473 3.53368 22.2473ZM3.37307 21.8035C3.37307 21.7213 3.37307 21.6697 3.37307 21.618C3.36306 18.7012 3.35305 15.7847 3.34303 12.8679C3.33738 11.1919 3.33041 9.51567 3.3278 7.83974C3.3278 7.75111 3.29472 7.69949 3.19243 7.65398C2.44899 7.32287 1.7099 6.98564 0.968639 6.65114C0.793661 6.57235 0.617376 6.4956 0.413234 6.40493C0.408882 6.47692 0.403658 6.52413 0.403658 6.57099C0.412364 9.27014 0.419329 11.969 0.430646 14.6681C0.43848 16.5661 0.452409 18.4638 0.458938 20.3619C0.459373 20.459 0.505077 20.5092 0.60693 20.5544C1.02261 20.7385 1.43481 20.9276 1.84832 21.1147C2.34322 21.3385 2.83812 21.562 3.37307 21.8035ZM10.4749 1.45218C10.4488 1.47596 10.4353 1.48343 10.4292 1.49395C9.68143 2.83979 8.93364 4.18563 8.18715 5.53181C7.36362 7.01723 6.54183 8.50298 5.71525 9.98738C5.66912 10.0702 5.6813 10.1069 5.78272 10.1517C6.34465 10.4007 6.90223 10.6554 7.46112 10.9084C7.84155 11.0806 8.22197 11.2534 8.61546 11.432C8.64767 11.3893 8.6777 11.3567 8.69816 11.3207C9.37935 10.0954 10.0592 8.86975 10.7396 7.64413C11.6158 6.06499 12.4911 4.4855 13.3695 2.90703C13.4182 2.81908 13.406 2.77255 13.292 2.72195C12.5298 2.38303 11.7725 2.03799 11.0129 1.695C10.8332 1.61315 10.653 1.53233 10.4749 1.45218ZM5.00228 6.77645C4.96006 6.75098 4.94918 6.74249 4.93569 6.73672C4.01683 6.3224 3.09841 5.90741 2.17651 5.49683C2.13124 5.4768 2.04506 5.48019 1.99762 5.50057C1.69336 5.62996 1.39433 5.76716 1.09356 5.90198C0.946005 5.9682 0.798448 6.03476 0.633916 6.10879C0.680055 6.14038 0.70356 6.16211 0.732723 6.1757C1.62503 6.58525 2.5182 6.99312 3.41007 7.40335C3.49407 7.44207 3.56241 7.43494 3.64207 7.39826C3.99463 7.23525 4.34981 7.07564 4.70369 6.91467C4.79727 6.87188 4.89042 6.82807 5.00228 6.77645ZM5.64692 10.4503C5.64692 11.267 5.64692 12.0549 5.64692 12.8726C6.5488 12.4661 7.41629 12.0752 8.31773 11.6687C7.40541 11.2524 6.53704 10.8564 5.64692 10.4503ZM7.9817 13.8979C8.00434 13.9237 8.01435 13.9376 8.02741 13.9495C8.84528 14.6786 9.66315 15.4081 10.4832 16.1359C10.5341 16.181 10.6003 16.2187 10.6673 16.2493C11.2249 16.504 11.7838 16.7563 12.3431 17.009C12.4502 17.0572 12.559 17.1027 12.6669 17.1496C12.6582 17.1027 12.6321 17.0742 12.6025 17.0477C11.749 16.2883 10.895 15.529 10.041 14.7696C9.62093 14.3961 9.20177 14.0222 8.77955 13.6503C8.74604 13.6208 8.6703 13.5797 8.6468 13.5899C8.42307 13.6856 8.20674 13.7916 7.9817 13.8979ZM11.6114 1.54388C11.6062 1.55542 11.6005 1.56731 11.5953 1.57885C11.6105 1.58768 11.6245 1.59787 11.6406 1.60534C12.3305 1.91778 13.0191 2.23191 13.712 2.54027C13.7995 2.57932 13.9079 2.58917 14.0067 2.6126C13.9815 2.56777 13.9488 2.54061 13.9092 2.52261C13.2576 2.2241 12.6064 1.92423 11.9505 1.63115C11.8495 1.58633 11.725 1.5724 11.6114 1.54388Z" fill="#3D1701"/>
<path d="M77.9518 0.847397C78.7026 1.18462 79.4543 1.52117 80.2043 1.85907C80.5499 2.01495 80.892 2.17558 81.2381 2.33111C81.3678 2.38953 81.4318 2.46186 81.4296 2.58785C81.4205 3.10133 81.4218 3.61515 81.4287 4.12862C81.4305 4.25156 81.3717 4.32389 81.2372 4.38434C79.7664 5.04487 78.2991 5.70947 76.8284 6.36965C76.7278 6.41482 76.6899 6.46406 76.6904 6.55406C76.7021 8.64532 76.7104 10.7362 76.7191 12.8275C76.7278 14.8858 76.7352 16.9442 76.7474 19.0025C76.7483 19.1258 76.6917 19.2008 76.5576 19.2592C75.9709 19.5156 75.3863 19.7744 74.8035 20.0366C74.6759 20.094 74.5724 20.0929 74.4422 20.0328C73.4102 19.5584 72.376 19.087 71.3374 18.6218C71.1746 18.5488 71.1107 18.4635 71.1102 18.3182C71.105 15.2492 71.095 12.1799 71.0858 9.11091C71.0858 9.07118 71.0802 9.03145 71.075 8.96794C70.9396 9.02499 70.8269 9.07152 70.715 9.12008C70.4765 9.224 70.2445 9.33845 69.9981 9.42878C69.9137 9.46002 69.7718 9.46206 69.693 9.42708C68.6248 8.95266 67.5636 8.46839 66.4981 7.98955C66.3828 7.93759 66.3388 7.87137 66.3388 7.77051C66.3388 7.24039 66.3353 6.71061 66.3279 6.18049C66.3266 6.07861 66.371 6.01579 66.4877 5.96349C70.2036 4.29605 73.9181 2.62623 77.6323 0.956408C77.7089 0.922109 77.782 0.883395 77.8569 0.846718C77.8882 0.847397 77.92 0.847397 77.9518 0.847397ZM74.4474 19.6667C74.43 15.5874 74.4126 11.5462 74.3952 7.48762C74.3247 7.5063 74.2938 7.51037 74.2681 7.52192C73.3802 7.92061 72.4939 8.32134 71.6038 8.71698C71.498 8.76384 71.4763 8.82055 71.4767 8.90579C71.4846 9.85464 71.4885 10.8038 71.4941 11.7527C71.5063 13.9095 71.5189 16.0663 71.5281 18.2231C71.5285 18.3127 71.5646 18.3644 71.6639 18.4089C72.3015 18.6945 72.9362 18.9848 73.5721 19.2731C73.8481 19.3978 74.1245 19.5214 74.4474 19.6667ZM80.8045 2.50431C79.8413 2.06419 78.9133 1.63867 77.9809 1.21892C77.9344 1.1982 77.8395 1.21179 77.7864 1.23556C74.4866 2.71792 71.1886 4.20266 67.8905 5.68773C67.5871 5.82425 67.2838 5.96111 66.953 6.1102C67.027 6.15197 67.0766 6.18457 67.1314 6.21004C67.9919 6.60432 68.8542 6.99622 69.7126 7.39355C69.8223 7.44415 69.8997 7.42751 69.9985 7.38302C73.5234 5.79471 77.049 4.20775 80.5743 2.62045C80.6452 2.58853 80.7118 2.55152 80.8045 2.50431ZM69.6516 9.05624C69.6516 8.97779 69.6516 8.93738 69.6516 8.89697C69.6516 8.54412 69.6486 8.19127 69.6538 7.83843C69.6551 7.74911 69.6172 7.69851 69.5167 7.65334C68.6248 7.25431 67.736 6.85087 66.8459 6.44946C66.8176 6.43689 66.7828 6.4335 66.7493 6.42569C66.7397 6.44844 66.731 6.45999 66.731 6.47153C66.7323 6.86547 66.7305 7.25941 66.7414 7.65301C66.7427 7.69614 66.8067 7.75251 66.8611 7.77764C67.5645 8.104 68.2714 8.42594 68.9774 8.7489C69.1889 8.84501 69.4 8.94111 69.6516 9.05624Z" fill="#8C6F5E"/>
</g>
<defs>
<clipPath id="clip0_1_762">
<rect width="126.007" height="21.4144" fill="white" transform="translate(0 0.79282)"/>
</clipPath>
</defs>
</svg>
