<svg width="88" height="89" viewBox="0 0 88 89" fill="none" xmlns="http://www.w3.org/2000/svg">
<path d="M87.8144 44.4999C87.8144 48.2029 82.4893 51.1563 81.5764 54.5684C80.6314 58.1021 83.7392 63.3168 81.9493 66.4105C80.134 69.5488 74.0437 69.4534 71.5005 72.0003C68.9572 74.5473 69.049 80.6339 65.9106 82.4492C62.8169 84.2392 57.6022 81.1321 54.0685 82.0763C50.6542 82.9892 47.7008 88.3143 44 88.3143C40.2993 88.3143 37.3437 82.9892 33.9315 82.0763C30.3979 81.1321 25.1831 84.2392 22.0895 82.4492C18.9511 80.6339 19.0466 74.5436 16.4996 72.0003C13.9527 69.4571 7.86608 69.5488 6.05076 66.4105C4.26081 63.3168 7.36862 58.1021 6.42367 54.5684C5.51154 51.1541 0.185669 48.2007 0.185669 44.4999C0.185669 40.7992 5.51154 37.8435 6.42367 34.4314C7.36862 30.8978 4.26081 25.683 6.05076 22.5894C7.86608 19.451 13.9564 19.5465 16.4996 16.9995C19.0429 14.4526 18.9511 8.36596 22.0895 6.55064C25.1831 4.76069 30.3979 7.8685 33.9315 6.92355C37.3459 6.01142 40.3001 0.685547 44 0.685547C47.7 0.685547 50.6564 6.01142 54.0685 6.92355C57.6022 7.8685 62.8169 4.76069 65.9106 6.55064C69.049 8.3667 68.9535 14.4563 71.5005 17.0002C74.0474 19.5442 80.134 19.451 81.9493 22.5894C83.7392 25.683 80.6314 30.8978 81.5764 34.4314C82.4893 37.8435 87.8144 40.7977 87.8144 44.4999Z" fill="#3D1701"/>
<path d="M39.2628 56.9643C38.828 56.7623 38.3954 56.5575 37.9585 56.3592C37.0764 55.9585 36.1938 55.5595 35.3075 55.165C35.139 55.0901 35.0702 54.995 35.0697 54.8426C35.0686 53.6284 35.0581 52.4142 35.0534 51.1996C35.0403 47.6806 35.0292 44.1613 35.0172 40.6423C35.0135 39.6362 35.0108 38.6301 34.9993 37.624C34.9977 37.4728 35.056 37.3802 35.2314 37.304C35.9339 36.9976 36.6291 36.6809 37.3237 36.3639C37.4629 36.3004 37.5789 36.293 37.7249 36.3594C39.0066 36.9415 40.2919 37.5187 41.5778 38.0955C41.719 38.159 41.7752 38.2413 41.7741 38.3724C41.7699 39.2941 41.7762 40.2163 41.7789 41.138C41.7789 41.1904 41.7789 41.2433 41.7789 41.2957C41.7973 41.2998 41.8156 41.3043 41.834 41.3084C41.9133 41.1749 41.9962 41.0425 42.0708 40.9074C43.2212 38.8288 44.37 36.7498 45.5194 34.6712C46.0765 33.6638 46.6352 32.6565 47.1928 31.6491C47.3177 31.4234 47.3849 31.3906 47.7047 31.4361C48.2912 31.5197 48.8808 31.595 49.4595 31.7044C49.6795 31.7458 49.8764 31.8671 50.079 31.9588C51.1969 32.4656 52.3132 32.9748 53.4305 33.4827C53.6762 33.5946 53.7004 33.6503 53.587 33.8551C52.2496 36.2639 50.9118 38.6719 49.576 41.0811C49.0048 42.1109 48.4403 43.1429 47.8643 44.1711C47.8081 44.271 47.8228 44.3272 47.91 44.4046C49.2242 45.5684 50.5343 46.7347 51.8453 47.9002C52.4192 48.4102 52.9894 48.9231 53.5701 49.4286C53.7103 49.5503 53.7235 49.6486 53.5996 49.7801C53.0041 50.4159 52.4171 51.0562 51.8233 51.6928C51.6946 51.8308 51.5639 51.8505 51.3764 51.7645C50.0748 51.1693 48.7737 50.574 47.4774 49.9726C47.3613 49.919 47.2689 49.8289 47.1775 49.7477C46.2372 48.9149 45.2957 48.0829 44.3653 47.2435C44.223 47.1153 44.1196 47.1083 43.939 47.1915C43.2952 47.4881 42.6426 47.7732 41.9894 48.0571C41.8508 48.1173 41.7978 48.1894 41.7988 48.3156C41.8172 50.744 41.8277 53.1729 41.8482 55.6013C41.8498 55.7758 41.7684 55.8733 41.5815 55.9544C40.818 56.2867 40.0598 56.6271 39.3001 56.9643C39.288 56.9643 39.2754 56.9643 39.2628 56.9643ZM39.069 56.4288C39.069 56.3297 39.069 56.2674 39.069 56.2052C39.057 52.6866 39.0449 49.1685 39.0328 45.65C39.026 43.6283 39.0176 41.6062 39.0144 39.5846C39.0144 39.4777 38.9745 39.4154 38.8511 39.3605C37.9543 38.9611 37.0628 38.5543 36.1686 38.1508C35.9575 38.0557 35.7449 37.9632 35.4986 37.8538C35.4934 37.9406 35.4871 37.9976 35.4871 38.0541C35.4976 41.3101 35.506 44.5656 35.5196 47.8215C35.5291 50.1111 35.5459 52.4003 35.5538 54.6898C35.5543 54.807 35.6094 54.8676 35.7323 54.9221C36.2337 55.1441 36.7309 55.3723 37.2298 55.598C37.8267 55.868 38.4237 56.1376 39.069 56.4288ZM47.6359 31.8794C47.6044 31.908 47.5881 31.917 47.5808 31.9297C46.6787 33.5532 45.7767 35.1767 44.8762 36.8006C43.8828 38.5924 42.8915 40.3846 41.8944 42.1752C41.8387 42.2752 41.8534 42.3194 41.9758 42.3735C42.6536 42.6738 43.3262 42.981 44.0004 43.2862C44.4593 43.4939 44.9182 43.7024 45.3929 43.9179C45.4317 43.8663 45.4679 43.827 45.4926 43.7836C46.3143 42.3055 47.1345 40.8271 47.9552 39.3486C49.0121 37.4437 50.068 35.5384 51.1276 33.6343C51.1864 33.5282 51.1717 33.4721 51.0341 33.4111C50.1147 33.0022 49.2011 32.586 48.2849 32.1723C48.068 32.0735 47.8507 31.976 47.6359 31.8794ZM41.0343 38.3019C40.9834 38.2712 40.9703 38.261 40.954 38.254C39.8456 37.7542 38.7377 37.2536 37.6256 36.7584C37.571 36.7342 37.4671 36.7383 37.4098 36.7629C37.0428 36.9189 36.6821 37.0844 36.3193 37.2471C36.1413 37.327 35.9633 37.4073 35.7648 37.4966C35.8205 37.5347 35.8488 37.5609 35.884 37.5773C36.9604 38.0713 38.0378 38.5633 39.1137 39.0582C39.215 39.1049 39.2974 39.0963 39.3935 39.052C39.8188 38.8554 40.2473 38.6629 40.6741 38.4687C40.787 38.4171 40.8994 38.3642 41.0343 38.3019ZM41.812 42.7336C41.812 43.7188 41.812 44.6692 41.812 45.6557C42.8999 45.1653 43.9463 44.6938 45.0337 44.2035C43.9332 43.7012 42.8857 43.2236 41.812 42.7336ZM44.6284 46.8924C44.6557 46.9236 44.6678 46.9404 44.6835 46.9547C45.6701 47.8342 46.6567 48.7142 47.6459 49.5921C47.7073 49.6466 47.7871 49.692 47.868 49.7289C48.5406 50.0361 49.2148 50.3405 49.8895 50.6453C50.0186 50.7035 50.1499 50.7584 50.2801 50.8149C50.2696 50.7584 50.2381 50.724 50.2024 50.692C49.1728 49.776 48.1426 48.86 47.1124 47.944C46.6058 47.4934 46.1001 47.0424 45.5908 46.5938C45.5504 46.5582 45.459 46.5086 45.4307 46.5209C45.1608 46.6364 44.8998 46.7642 44.6284 46.8924ZM49.0069 31.99C49.0005 32.0039 48.9937 32.0182 48.9874 32.0322C49.0058 32.0428 49.0226 32.0551 49.042 32.0641C49.8743 32.441 50.7049 32.8199 51.5408 33.1919C51.6463 33.239 51.7771 33.2509 51.8963 33.2791C51.8658 33.2251 51.8264 33.1923 51.7786 33.1706C50.9926 32.8105 50.2071 32.4488 49.4159 32.0952C49.2941 32.0412 49.1439 32.0244 49.0069 31.99Z" fill="#FF9D97"/>
<g>
<animateTransform
							attributeType="XML"
							attributeName="transform"
							type="rotate"
							from="0 44 44.5"
							to="360 44 44.5"
							dur="5s"
							repeatCount="indefinite" />
<path d="M47.725 17.0667L47.6847 17.4368L46.1777 17.2727L46.218 16.9026L47.725 17.0667Z" fill="white"/>
<path d="M50.0216 19.1777L50.7223 16.6752L51.1068 16.7828L50.802 17.8712L51.0562 17.9423L52.2603 17.1058L52.7556 17.2445L51.4079 18.1673L52.0679 19.7507L51.5726 19.612L51.0471 18.3263L50.7017 18.2296L50.4061 19.2853L50.0216 19.1777Z" fill="white"/>
<path d="M52.3783 20.8847L53.7348 17.5789L54.0917 17.7253L53.935 18.1072L53.9788 18.1252C54.0231 18.0946 54.0825 18.0568 54.157 18.0118C54.2331 17.9662 54.327 17.9365 54.4387 17.9226C54.552 17.9081 54.6868 17.933 54.8434 17.9972C55.0458 18.0803 55.2035 18.2041 55.3164 18.3687C55.4293 18.5333 55.4909 18.7262 55.5013 18.9475C55.5117 19.1688 55.4651 19.4057 55.3615 19.6582C55.257 19.9128 55.1231 20.1157 54.9599 20.267C54.797 20.4172 54.6179 20.5119 54.4226 20.5513C54.2276 20.5895 54.03 20.5676 53.8297 20.4854C53.6752 20.422 53.5621 20.3457 53.4902 20.2564C53.4187 20.1661 53.3714 20.0779 53.3483 19.9916C53.3256 19.9042 53.3097 19.8331 53.3006 19.7781L53.2693 19.7653L52.7477 21.0362L52.3783 20.8847ZM53.6047 18.93C53.5302 19.1116 53.4911 19.2827 53.4873 19.4433C53.484 19.6029 53.5175 19.7428 53.5876 19.863C53.6582 19.9822 53.7676 20.0722 53.9157 20.133C54.0702 20.1963 54.2157 20.2085 54.3524 20.1695C54.4906 20.1299 54.6143 20.0514 54.7234 19.934C54.834 19.816 54.9244 19.6715 54.9946 19.5004C55.064 19.3313 55.1004 19.1683 55.1039 19.0112C55.1089 18.8535 55.0755 18.7136 55.0037 18.5915C54.9333 18.4687 54.8199 18.3753 54.6634 18.311C54.5131 18.2494 54.3712 18.2356 54.2377 18.2699C54.1046 18.303 53.9841 18.3767 53.8763 18.491C53.7689 18.6042 53.6784 18.7505 53.6047 18.93Z" fill="white"/>
<path d="M55.3457 22.1846C55.2866 22.1516 55.2367 22.1172 55.1959 22.0816C55.1546 22.0468 55.1275 22.0201 55.1147 22.0013L55.3749 21.7436C55.4475 21.8126 55.518 21.8622 55.5863 21.8926C55.6546 21.923 55.7284 21.9261 55.8078 21.902C55.8876 21.8794 55.9808 21.8223 56.0875 21.7307L56.2515 21.5897L56.6861 18.8404L57.0643 19.0516L56.6809 21.2094L56.7045 21.2226L58.3406 19.7644L58.7187 19.9755L56.3037 22.0375C56.195 22.1305 56.0871 22.1975 55.9802 22.2386C55.8728 22.2806 55.7662 22.2967 55.6607 22.2868C55.5561 22.2775 55.4511 22.2434 55.3457 22.1846Z" fill="white"/>
<path d="M59.3549 20.8194L59.57 20.5156L61.2933 21.7357L61.0782 22.0395L60.3823 21.5467L59.0957 23.3639L58.7698 23.1332L60.0564 21.316L59.3549 20.8194Z" fill="white"/>
<path d="M61.3708 25.2136L62.8444 23.5355L62.3257 23.08C62.2087 22.9773 62.093 22.9237 61.9784 22.9191C61.8638 22.9146 61.7648 22.9598 61.6815 23.0547C61.5996 23.1479 61.5653 23.2477 61.5786 23.3539C61.5927 23.4609 61.6528 23.5609 61.7587 23.6539L62.3893 24.2076L62.1437 24.4873L61.5131 23.9336C61.3809 23.8175 61.2874 23.6941 61.2325 23.5634C61.1777 23.4327 61.1624 23.3014 61.1866 23.1695C61.2116 23.0368 61.2765 22.9107 61.3814 22.7912C61.4871 22.6709 61.605 22.5913 61.7352 22.5525C61.8653 22.5137 62.0013 22.5152 62.1431 22.5572C62.2857 22.5999 62.427 22.6826 62.5668 22.8054L63.3703 23.5109L61.6556 25.4637L61.3708 25.2136ZM60.069 24.0705L61.4762 23.5859L61.8016 23.8717L60.3945 24.3563L60.069 24.0705Z" fill="white"/>
<path d="M62.3464 26.1331L64.2677 24.3832L64.5365 24.6784L63.701 25.4394L63.8787 25.6346L65.3432 25.5639L65.6895 25.9442L64.0575 26.0118L63.7774 27.7042L63.431 27.3239L63.6673 25.9552L63.4258 25.6901L62.6153 26.4283L62.3464 26.1331Z" fill="white"/>
<path d="M67.3655 29.866L67.0531 30.0685L66.2285 28.7965L66.5408 28.594L67.3655 29.866Z" fill="white"/>
<path d="M67.1844 32.9897L69.5673 31.9526L69.7266 32.3187L68.6903 32.7698L68.7957 33.0118L70.2047 33.4171L70.4099 33.8887L68.8433 33.4265L68.0325 34.9382L67.8272 34.4666L68.4922 33.2472L68.3491 32.9183L67.3438 33.3558L67.1844 32.9897Z" fill="white"/>
<path d="M67.3486 35.8934L70.7684 34.8572L70.8802 35.2263L70.4851 35.3461L70.4989 35.3914C70.5506 35.4064 70.6174 35.4286 70.6994 35.4579C70.7827 35.4881 70.8651 35.5421 70.9465 35.62C71.0292 35.6986 71.0951 35.8189 71.1442 35.9808C71.2076 36.1902 71.2112 36.3907 71.1549 36.5821C71.0986 36.7736 70.988 36.9433 70.823 37.0911C70.658 37.2389 70.4449 37.3524 70.1836 37.4316C69.9203 37.5114 69.6784 37.5358 69.458 37.5047C69.2387 37.4733 69.0521 37.3943 68.8983 37.2677C68.7455 37.1408 68.6377 36.9737 68.5749 36.7664C68.5265 36.6066 68.5142 36.4707 68.5379 36.3586C68.5628 36.2462 68.6014 36.1538 68.6537 36.0813C68.7071 36.0086 68.7522 35.9513 68.789 35.9095L68.7792 35.8771L67.4644 36.2755L67.3486 35.8934ZM69.6386 35.6096C69.4508 35.6665 69.2935 35.7443 69.1666 35.8428C69.0408 35.9411 68.9534 36.0553 68.9045 36.1857C68.8567 36.3157 68.856 36.4573 68.9024 36.6106C68.9509 36.7703 69.0333 36.8909 69.1499 36.9722C69.2679 37.0543 69.4069 37.1006 69.5668 37.1111C69.7281 37.1223 69.8973 37.1011 70.0743 37.0475C70.2492 36.9945 70.3986 36.9197 70.5226 36.8233C70.648 36.7275 70.7353 36.6132 70.7847 36.4804C70.8354 36.3484 70.8362 36.2014 70.7872 36.0395C70.7401 35.884 70.6611 35.7654 70.5502 35.6834C70.4405 35.6012 70.3072 35.5544 70.1506 35.5429C69.995 35.5311 69.8243 35.5534 69.6386 35.6096Z" fill="white"/>
<path d="M68.2147 39.0143C68.203 38.9477 68.1981 38.8872 68.2 38.8331C68.2008 38.7791 68.2045 38.7412 68.211 38.7195L68.5751 38.7585C68.5675 38.8584 68.5735 38.9444 68.593 39.0165C68.6126 39.0886 68.6568 39.1479 68.7256 39.1942C68.7935 39.2418 68.8967 39.278 69.0351 39.3029L69.2479 39.3411L71.6543 37.9422L71.7293 38.3688L69.814 39.434L69.8186 39.4606L71.9825 39.8085L72.0575 40.2351L68.9337 39.6643C68.7929 39.6387 68.6728 39.5974 68.5735 39.5404C68.473 39.4837 68.3933 39.4112 68.3343 39.3231C68.2755 39.2361 68.2356 39.1332 68.2147 39.0143Z" fill="white"/>
<path d="M71.8041 41.2551L72.1754 41.2299L72.3181 43.3366L71.9467 43.3617L71.8891 42.511L69.6676 42.6614L69.6407 42.263L71.8621 42.1126L71.8041 41.2551Z" fill="white"/>
<path d="M69.6708 45.6308L71.9026 45.7138L71.9282 45.024C71.934 44.8685 71.9025 44.7448 71.8337 44.6531C71.7649 44.5614 71.6673 44.5132 71.5411 44.5085C71.4171 44.5039 71.3181 44.5402 71.2441 44.6176C71.1701 44.6961 71.1305 44.8059 71.1252 44.9467L71.094 45.7853L70.7221 45.7715L70.7533 44.9329C70.7598 44.7571 70.7964 44.6066 70.8632 44.4816C70.9299 44.3565 71.022 44.2617 71.1395 44.1972C71.2582 44.1328 71.397 44.1035 71.5559 44.1095C71.716 44.1154 71.8521 44.1566 71.9644 44.233C72.0767 44.3094 72.1614 44.4158 72.2184 44.5523C72.2753 44.6898 72.3004 44.8516 72.2934 45.0376L72.2537 46.1061L69.6568 46.0096L69.6708 45.6308ZM69.7352 43.8995L70.9995 44.6847L70.9834 45.1176L69.7191 44.3324L69.7352 43.8995Z" fill="white"/>
<path d="M69.5736 46.9743L72.1435 47.36L72.0843 47.7549L70.9666 47.5871L70.9274 47.8481L71.9065 48.9395L71.8302 49.4481L70.7477 48.2249L69.2582 49.0758L69.3345 48.5672L70.5453 47.8866L70.5985 47.5319L69.5143 47.3692L69.5736 46.9743Z" fill="white"/>
<path d="M69.8414 53.223L69.4874 53.108L69.9557 51.6662L70.3097 51.7812L69.8414 53.223Z" fill="white"/>
<path d="M67.3032 55.0434L69.6094 56.2414L69.4254 56.5957L68.4224 56.0747L68.3007 56.3089L68.8732 57.6587L68.6361 58.1151L68.0086 56.6071L66.3237 56.9292L66.5608 56.4727L67.9268 56.2214L68.0921 55.9031L67.1192 55.3977L67.3032 55.0434Z" fill="white"/>
<path d="M65.1482 57.0042L68.1078 59.0065L67.8916 59.326L67.5497 59.0947L67.5231 59.1339C67.5441 59.1835 67.569 59.2494 67.5978 59.3315C67.627 59.4153 67.6369 59.5132 67.6277 59.6255C67.6188 59.7393 67.567 59.8663 67.4722 60.0064C67.3496 60.1876 67.1962 60.3167 67.012 60.3937C66.8278 60.4707 66.6264 60.4917 66.4076 60.4567C66.1889 60.4217 65.9665 60.3278 65.7404 60.1748C65.5124 60.0206 65.3411 59.8482 65.2263 59.6575C65.1125 59.4675 65.0562 59.2728 65.0576 59.0735C65.0599 58.8749 65.1217 58.6859 65.2431 58.5065C65.3366 58.3683 65.4344 58.273 65.5364 58.2209C65.6394 58.1693 65.7355 58.141 65.8246 58.136C65.9148 58.1316 65.9877 58.1305 66.0433 58.1328L66.0623 58.1048L64.9244 57.335L65.1482 57.0042ZM66.8116 58.6035C66.649 58.4936 66.4895 58.4204 66.333 58.3839C66.1775 58.3482 66.0337 58.3523 65.9017 58.3965C65.7706 58.4413 65.6602 58.53 65.5705 58.6627C65.4769 58.8009 65.4353 58.941 65.4456 59.0827C65.4562 59.2261 65.5078 59.3632 65.6005 59.4939C65.6934 59.6263 65.8165 59.7443 65.9697 59.8479C66.1211 59.9503 66.2733 60.0192 66.4263 60.0547C66.5797 60.0917 66.7235 60.0875 66.8577 60.0421C66.9922 59.9983 67.1068 59.9063 67.2016 59.7662C67.2926 59.6317 67.335 59.4955 67.3288 59.3579C67.3234 59.2208 67.2758 59.0878 67.186 58.959C67.0971 58.8307 66.9723 58.7122 66.8116 58.6035Z" fill="white"/>
<path d="M63.2724 59.6427C63.3167 59.5916 63.3604 59.5496 63.4037 59.517C63.446 59.4835 63.4777 59.4625 63.4987 59.4537L63.6983 59.7608C63.616 59.8179 63.5531 59.8768 63.5095 59.9375C63.4659 59.9983 63.4478 60.0699 63.4554 60.1525C63.4613 60.2353 63.4983 60.3382 63.5663 60.4612L63.6711 60.6504L66.275 61.6338L65.9915 61.9612L63.9563 61.148L63.9386 61.1685L65.0347 63.0664L64.7511 63.3938L63.222 60.6107C63.153 60.4853 63.1093 60.3661 63.0908 60.2531C63.0714 60.1394 63.0773 60.0318 63.1083 59.9304C63.1387 59.8299 63.1934 59.734 63.2724 59.6427Z" fill="white"/>
<path d="M63.795 63.8468L64.049 64.1189L62.5053 65.5595L62.2513 65.2874L62.8747 64.7056L61.3556 63.0778L61.6476 62.8053L63.1667 64.4332L63.795 63.8468Z" fill="white"/>
<path d="M59.0853 64.9306L60.4306 66.7132L60.9816 66.2973C61.1059 66.2036 61.1818 66.101 61.2094 65.9897C61.2371 65.8784 61.2128 65.7724 61.1367 65.6715C61.062 65.5725 60.9713 65.5188 60.8645 65.5103C60.7569 65.5025 60.6468 65.5411 60.5343 65.626L59.8645 66.1315L59.6402 65.8344L60.3101 65.3289C60.4505 65.2229 60.5903 65.1563 60.7294 65.129C60.8685 65.1017 61.0002 65.1133 61.1244 65.1637C61.2493 65.215 61.3596 65.3041 61.4554 65.431C61.5519 65.5588 61.606 65.6904 61.6177 65.8257C61.6294 65.9611 61.6004 66.0939 61.5306 66.2243C61.4599 66.3553 61.3503 66.4769 61.2018 66.589L60.3483 67.2332L58.7828 65.1589L59.0853 64.9306ZM60.4681 63.8869L60.658 65.363L60.3123 65.6239L60.1224 64.1478L60.4681 63.8869Z" fill="white"/>
<path d="M57.9876 65.6999L59.3117 67.936L58.9681 68.1395L58.3923 67.167L58.1652 67.3015L57.9374 68.7498L57.4948 69.0119L57.7595 67.4001L56.1591 66.7826L56.6016 66.5206L57.894 67.0295L58.2026 66.8467L57.644 65.9034L57.9876 65.6999Z" fill="white"/>
<path d="M53.3102 69.8557L53.1757 69.5086L54.5892 68.9608L54.7237 69.3079L53.3102 69.8557Z" fill="white"/>
<path d="M50.2824 69.0414L50.8088 71.5863L50.4177 71.6672L50.1888 70.5604L49.9304 70.6139L49.2447 71.9098L48.741 72.014L49.5147 70.5755L48.2014 69.4718L48.7051 69.3677L49.7622 70.2686L50.1134 70.1959L49.8914 69.1223L50.2824 69.0414Z" fill="white"/>
<path d="M47.4172 68.6051L47.7342 72.1643L47.35 72.1985L47.3133 71.7873L47.2662 71.7915C47.241 71.8391 47.2056 71.9 47.1601 71.9742C47.1136 72.0497 47.044 72.1193 46.9511 72.1831C46.8573 72.2481 46.7261 72.2881 46.5576 72.3031C46.3396 72.3225 46.1426 72.2851 45.9666 72.1909C45.7907 72.0968 45.6471 71.9538 45.5361 71.7622C45.425 71.5705 45.3574 71.3387 45.3332 71.0668C45.3087 70.7927 45.3342 70.5509 45.4095 70.3415C45.485 70.1332 45.6004 69.9667 45.7557 69.8419C45.9112 69.7182 46.0967 69.6467 46.3124 69.6275C46.4787 69.6127 46.6143 69.6284 46.7192 69.6745C46.8242 69.7218 46.9068 69.7784 46.967 69.8444C47.0274 69.9115 47.0742 69.9673 47.1077 70.0119L47.1414 70.0089L47.0195 68.6405L47.4172 68.6051ZM47.228 70.9049C47.2105 70.7094 47.1665 70.5395 47.0959 70.3952C47.0254 70.252 46.9314 70.1431 46.8138 70.0687C46.6962 69.9953 46.5577 69.9658 46.3982 69.98C46.2319 69.9948 46.0971 70.051 45.9936 70.1485C45.8892 70.2473 45.8156 70.3739 45.7727 70.5283C45.7288 70.684 45.7151 70.8539 45.7315 71.0382C45.7477 71.2202 45.7904 71.3817 45.8596 71.5227C45.9277 71.665 46.0218 71.7738 46.1417 71.8492C46.2607 71.9258 46.4044 71.9566 46.5729 71.9416C46.7347 71.9272 46.867 71.8741 46.9698 71.7822C47.0727 71.6916 47.1457 71.5707 47.1889 71.4196C47.2321 71.2697 47.2452 71.0981 47.228 70.9049Z" fill="white"/>
<path d="M44.1513 68.8178C44.2189 68.8198 44.2791 68.8273 44.3317 68.8402C44.3844 68.8519 44.4208 68.8632 44.4407 68.8739L44.3287 69.2226C44.2325 69.1949 44.147 69.1833 44.0724 69.1878C43.9978 69.1923 43.9309 69.2236 43.8716 69.2816C43.8112 69.3384 43.7547 69.4321 43.7023 69.5625L43.6217 69.7632L44.5035 72.4033L44.0705 72.3903L43.416 70.2987L43.3889 70.2979L42.6094 72.3461L42.1765 72.3331L43.3689 69.39C43.4226 69.2573 43.4874 69.1481 43.5633 69.0624C43.6393 68.9755 43.7264 68.9122 43.8247 68.8722C43.9218 68.8323 44.0307 68.8141 44.1513 68.8178Z" fill="white"/>
<path d="M41.2096 71.8769L41.1588 72.2456L39.0671 71.9575L39.1178 71.5888L39.9626 71.7051L40.2664 69.4994L40.6619 69.5539L40.3581 71.7596L41.2096 71.8769Z" fill="white"/>
<path d="M37.4055 68.9086L36.8707 71.0769L37.5409 71.2423C37.692 71.2795 37.8195 71.2738 37.9233 71.2251C38.0271 71.1763 38.0941 71.0906 38.1243 70.968C38.1541 70.8475 38.1385 70.7432 38.0778 70.655C38.016 70.5666 37.9166 70.5055 37.7797 70.4717L36.965 70.2707L37.0541 69.9093L37.8689 70.1103C38.0397 70.1525 38.1796 70.2189 38.2885 70.3097C38.3974 70.4004 38.4714 70.5099 38.5107 70.6381C38.5496 70.7673 38.5501 70.9092 38.512 71.0636C38.4736 71.2191 38.4057 71.3441 38.308 71.4385C38.2104 71.5329 38.089 71.5941 37.9438 71.6222C37.7975 71.65 37.634 71.6417 37.4533 71.5971L36.4152 71.341L37.0376 68.8179L37.4055 68.9086ZM39.0876 69.3236L38.0618 70.4019L37.6413 70.2982L38.6671 69.2198L39.0876 69.3236Z" fill="white"/>
<path d="M36.112 68.5401L35.2088 70.9768L34.8344 70.838L35.2272 69.7783L34.9797 69.6866L33.7112 70.4217L33.2289 70.243L34.6477 69.4336L34.1195 67.8015L34.6017 67.9803L35.0202 69.3046L35.3566 69.4293L35.7376 68.4013L36.112 68.5401Z" fill="white"/>
<path d="M29.94 67.5236L30.1249 67.2006L31.4405 67.9537L31.2556 68.2767L29.94 67.5236Z" fill="white"/>
<path d="M28.6749 64.6676L27.0335 66.6823L26.7239 66.4301L27.4378 65.5539L27.2332 65.3872L25.7953 65.6735L25.3965 65.3487L27.0006 65.0406L27.0275 63.3254L27.4262 63.6502L27.3948 65.0388L27.6729 65.2654L28.3654 64.4154L28.6749 64.6676Z" fill="white"/>
<path d="M27.1895 62.1565L24.6292 64.6491L24.3601 64.3727L24.6559 64.0847L24.6229 64.0508C24.5701 64.0612 24.5005 64.0723 24.4142 64.0839C24.3263 64.0955 24.2284 64.0854 24.1203 64.0536C24.0107 64.0219 23.8968 63.9453 23.7788 63.8241C23.6262 63.6673 23.5308 63.491 23.4928 63.295C23.4547 63.0991 23.4749 62.8976 23.5535 62.6905C23.632 62.4833 23.7691 62.2846 23.9647 62.0941C24.1619 61.9022 24.3655 61.7693 24.5754 61.6955C24.7846 61.6225 24.9866 61.6069 25.1815 61.6486C25.3755 61.6911 25.5481 61.7899 25.6992 61.9451C25.8156 62.0647 25.889 62.1797 25.9195 62.2902C25.9491 62.4015 25.9573 62.5013 25.9442 62.5897C25.9302 62.6788 25.9165 62.7504 25.903 62.8045L25.9266 62.8287L26.911 61.8704L27.1895 62.1565ZM25.2864 63.4614C25.427 63.3245 25.531 63.1832 25.5984 63.0373C25.6649 62.8922 25.69 62.7506 25.6735 62.6124C25.6562 62.4749 25.5917 62.3488 25.4799 62.2341C25.3635 62.1145 25.2348 62.0453 25.0939 62.0267C24.9513 62.008 24.8066 62.0308 24.6598 62.0951C24.5114 62.1593 24.3709 62.2559 24.2384 62.385C24.1074 62.5124 24.0091 62.6475 23.9434 62.7902C23.8761 62.9329 23.8511 63.0745 23.8683 63.2151C23.884 63.3557 23.9508 63.4866 24.0689 63.6079C24.1822 63.7242 24.3069 63.7933 24.443 63.8151C24.5783 63.8376 24.7181 63.818 24.8625 63.7561C25.0061 63.695 25.1474 63.5968 25.2864 63.4614Z" fill="white"/>
<path d="M24.9876 59.7877C25.0287 59.8414 25.0609 59.8928 25.0842 59.9417C25.1084 59.99 25.1226 60.0253 25.1269 60.0476L24.7858 60.1809C24.7465 60.0888 24.7015 60.0153 24.6509 59.9603C24.6003 59.9053 24.5337 59.8731 24.4513 59.8638C24.3691 59.8529 24.2608 59.8683 24.1266 59.91L23.9201 59.9744L22.4303 62.3255L22.167 61.9816L23.375 60.1531L23.3586 60.1316L21.2782 60.821L21.0149 60.4771L24.0498 59.5426C24.1865 59.5004 24.3121 59.4817 24.4265 59.4864C24.5419 59.4904 24.646 59.5179 24.739 59.5689C24.8313 59.619 24.9142 59.6919 24.9876 59.7877Z" fill="white"/>
<path d="M20.764 59.4479L20.4461 59.6414L19.3483 57.8377L19.6662 57.6442L20.1096 58.3726L22.0115 57.215L22.2191 57.5561L20.3172 58.7137L20.764 59.4479Z" fill="white"/>
<path d="M20.658 54.6144L18.6389 55.5688L18.9339 56.1929C19.0004 56.3336 19.0854 56.4289 19.1887 56.4786C19.2921 56.5283 19.4008 56.5261 19.515 56.4721C19.6272 56.4191 19.6983 56.3412 19.7283 56.2385C19.7579 56.1347 19.7425 56.019 19.6822 55.8916L19.3236 55.1329L19.6601 54.9738L20.0188 55.7325C20.094 55.8916 20.1307 56.042 20.1291 56.1837C20.1275 56.3255 20.0894 56.452 20.0148 56.5634C19.9392 56.6752 19.8295 56.7652 19.6857 56.8331C19.5409 56.9016 19.401 56.9278 19.2662 56.9117C19.1313 56.8956 19.0072 56.8401 18.8937 56.7453C18.7798 56.6494 18.6831 56.5174 18.6035 56.3491L18.1465 55.3824L20.496 54.2718L20.658 54.6144ZM21.3984 56.1807L19.9145 56.0662L19.7294 55.6746L21.2133 55.7891L21.3984 56.1807Z" fill="white"/>
<path d="M20.1297 53.3858L17.6703 54.2252L17.5413 53.8473L18.6109 53.4823L18.5256 53.2325L17.1544 52.7137L16.9882 52.2269L18.512 52.8153L19.4433 51.3747L19.6095 51.8615L18.8473 53.0226L18.9632 53.3621L20.0007 53.0079L20.1297 53.3858Z" fill="white"/>
<path d="M17.0185 47.9568L17.3858 47.8962L17.6327 49.3919L17.2654 49.4525L17.0185 47.9568Z" fill="white"/>
<path d="M18.4336 45.1534L15.8349 45.1532L15.8349 44.7539L16.9651 44.754L16.9651 44.4901L15.835 43.5561L15.835 43.0417L17.0869 44.0908L18.4338 43.0284L18.4337 43.5427L17.3373 44.3953L17.3373 44.754L18.4336 44.7541L18.4336 45.1534Z" fill="white"/>
<path d="M19.4434 42.3895L15.894 41.977L15.9386 41.5938L16.3486 41.6415L16.3541 41.5944C16.3127 41.5601 16.2602 41.5131 16.1967 41.4535C16.1323 41.3926 16.0783 41.3103 16.0347 41.2064C15.9901 41.1013 15.9776 40.9647 15.9971 40.7967C16.0224 40.5793 16.099 40.394 16.227 40.2408C16.3549 40.0877 16.524 39.9762 16.7342 39.9063C16.9445 39.8365 17.1852 39.8174 17.4563 39.8489C17.7297 39.8807 17.9612 39.9547 18.151 40.071C18.3396 40.1872 18.4792 40.334 18.5699 40.5114C18.6594 40.6888 18.6917 40.885 18.6667 41.1001C18.6474 41.2659 18.6045 41.3955 18.538 41.4888C18.4704 41.582 18.3982 41.6514 18.3214 41.697C18.2434 41.7424 18.1792 41.777 18.1288 41.8007L18.1249 41.8343L19.4895 41.9929L19.4434 42.3895ZM17.23 41.7371C17.425 41.7597 17.6003 41.7512 17.7559 41.7113C17.9105 41.6714 18.0361 41.6014 18.1329 41.5014C18.2286 41.4012 18.2857 41.2716 18.3042 41.1125C18.3234 40.9467 18.2958 40.8032 18.2213 40.6821C18.1458 40.5598 18.0368 40.462 17.8943 40.3886C17.7508 40.3141 17.5872 40.2661 17.4035 40.2447C17.222 40.2236 17.0551 40.2326 16.903 40.2717C16.7498 40.3096 16.6242 40.3796 16.526 40.4817C16.4268 40.5826 16.3675 40.7171 16.348 40.8851C16.3292 41.0465 16.3543 41.1868 16.4234 41.3061C16.4913 41.4253 16.5948 41.5213 16.7339 41.5943C16.872 41.6671 17.0373 41.7147 17.23 41.7371Z" fill="white"/>
<path d="M19.8887 39.1996C19.8729 39.2655 19.8534 39.3228 19.8301 39.3718C19.8079 39.421 19.7895 39.4543 19.7749 39.4717L19.4563 39.2911C19.503 39.2025 19.5317 39.1212 19.5424 39.0473C19.5531 38.9733 19.5361 38.9014 19.4914 38.8315C19.448 38.7608 19.3677 38.6866 19.2507 38.6087L19.0705 38.4891L16.3064 38.8161L16.4071 38.3949L18.588 38.1788L18.5943 38.1525L16.7471 36.9732L16.8478 36.5519L19.4873 38.3174C19.6063 38.3969 19.7001 38.4825 19.7686 38.5742C19.8382 38.6663 19.8826 38.7644 19.9017 38.8688C19.9211 38.972 19.9168 39.0823 19.8887 39.1996Z" fill="white"/>
<path d="M17.4916 35.699L17.1411 35.5739L17.8507 33.5852L18.2013 33.7103L17.9147 34.5134L20.0117 35.2618L19.8775 35.6378L17.7805 34.8895L17.4916 35.699Z" fill="white"/>
<path d="M21.1779 32.5771L19.1651 31.6095L18.866 32.2316C18.7986 32.3719 18.7781 32.4978 18.8046 32.6094C18.831 32.721 18.9012 32.8041 19.015 32.8589C19.1268 32.9126 19.2321 32.9188 19.3309 32.8774C19.4301 32.835 19.5102 32.7503 19.5713 32.6232L19.9349 31.8669L20.2704 32.0282L19.9068 32.7845C19.8306 32.9431 19.7369 33.0664 19.6257 33.1544C19.5146 33.2424 19.3923 33.2924 19.2588 33.3046C19.1243 33.3163 18.9853 33.2876 18.842 33.2187C18.6977 33.1493 18.5893 33.0572 18.5169 32.9423C18.4445 32.8274 18.4094 32.696 18.4116 32.5481C18.4144 32.3993 18.456 32.241 18.5367 32.0732L19 31.1096L21.3421 32.2356L21.1779 32.5771ZM20.4272 34.1385L19.5819 32.9136L19.7696 32.5233L20.6149 33.7482L20.4272 34.1385Z" fill="white"/>
<path d="M21.8025 31.3888L19.6014 30.0072L19.8137 29.669L20.771 30.2699L20.9113 30.0463L20.4505 28.6545L20.724 28.2188L21.2267 29.7729L22.9323 29.589L22.6588 30.0246L21.2769 30.164L21.0862 30.4677L22.0148 31.0506L21.8025 31.3888Z" fill="white"/>
<path d="M24.0528 25.5537L24.3316 25.8003L23.3273 26.9358L23.0485 26.6892L24.0528 25.5537Z" fill="white"/>
<path d="M27.1054 24.8934L25.4643 22.8784L25.7739 22.6262L26.4876 23.5025L26.6923 23.3359L26.7027 21.8698L27.1015 21.545L27.0788 23.1782L28.7531 23.5514L28.3543 23.8762L27.0008 23.5646L26.7227 23.7911L27.415 24.6412L27.1054 24.8934Z" fill="white"/>
<path d="M29.8663 23.9456L27.9442 20.9334L28.2694 20.7259L28.4914 21.0739L28.5314 21.0484C28.5318 20.9946 28.5351 20.9243 28.5412 20.8374C28.5477 20.749 28.5774 20.6551 28.6304 20.5557C28.6837 20.4548 28.7817 20.3588 28.9243 20.2678C29.1088 20.1501 29.3008 20.0924 29.5004 20.0949C29.7 20.0973 29.8932 20.158 30.0801 20.2768C30.2671 20.3957 30.4339 20.5702 30.5808 20.8003C30.7288 21.0323 30.8177 21.2586 30.8474 21.4792C30.8765 21.6988 30.8508 21.8998 30.7705 22.0821C30.6896 22.2636 30.5579 22.4125 30.3753 22.529C30.2346 22.6188 30.107 22.6674 29.9927 22.6748C29.8777 22.6813 29.7783 22.6691 29.6945 22.6384C29.61 22.6066 29.5426 22.5787 29.4924 22.5545L29.4639 22.5727L30.2029 23.7308L29.8663 23.9456ZM28.974 21.8176C29.0796 21.983 29.197 22.1135 29.3262 22.209C29.4548 22.3036 29.5884 22.3568 29.7271 22.3687C29.8652 22.3796 30.0017 22.3419 30.1367 22.2558C30.2775 22.166 30.3712 22.054 30.418 21.9197C30.4652 21.7839 30.4722 21.6377 30.439 21.4809C30.4062 21.3225 30.34 21.1654 30.2405 21.0094C30.1422 20.8554 30.0299 20.7317 29.9035 20.6385C29.7774 20.5436 29.6438 20.4904 29.5026 20.4788C29.3617 20.4657 29.22 20.5046 29.0773 20.5956C28.9404 20.683 28.8475 20.7911 28.7986 20.92C28.7491 21.0479 28.7401 21.1888 28.7714 21.3428C28.8021 21.4958 28.8697 21.6541 28.974 21.8176Z" fill="white"/>
<path d="M32.6314 22.2703C32.5704 22.2997 32.5136 22.3207 32.4609 22.3336C32.4087 22.3474 32.3713 22.3542 32.3486 22.3538L32.2874 21.9927C32.3856 21.973 32.4668 21.9439 32.5309 21.9056C32.595 21.8672 32.6401 21.8086 32.666 21.7298C32.6934 21.6515 32.7003 21.5424 32.6868 21.4024L32.6658 21.1872L30.6668 19.2502L31.0571 19.0624L32.6017 20.6172L32.6261 20.6054L32.3742 18.4283L32.7645 18.2405L33.0621 21.402C33.0756 21.5445 33.0684 21.6712 33.0405 21.7823C33.0131 21.8944 32.965 21.9908 32.8962 22.0715C32.8284 22.1517 32.7401 22.2179 32.6314 22.2703Z" fill="white"/>
<path d="M33.823 18.2045L33.6985 17.8538L35.6883 17.1474L35.8128 17.4982L35.0092 17.7834L35.7541 19.8817L35.3778 20.0153L34.633 17.917L33.823 18.2045Z" fill="white"/>
<path d="M38.5805 19.088L38.06 16.9162L37.3887 17.0771C37.2373 17.1134 37.1267 17.177 37.0569 17.268C36.9871 17.3589 36.9669 17.4658 36.9963 17.5887C37.0253 17.7093 37.0869 17.7949 37.1814 17.8453C37.2769 17.8955 37.3932 17.9042 37.5304 17.8713L38.3464 17.6757L38.4332 18.0377L37.6171 18.2333C37.446 18.2743 37.2912 18.2795 37.1528 18.2488C37.0144 18.2182 36.8984 18.155 36.8046 18.0591C36.7107 17.9622 36.6451 17.8364 36.6081 17.6818C36.5707 17.526 36.5738 17.3838 36.6171 17.2551C36.6605 17.1264 36.7402 17.0162 36.8563 16.9246C36.9735 16.8327 37.1226 16.7651 37.3035 16.7217L38.3434 16.4725L38.9491 18.9997L38.5805 19.088ZM36.8957 19.4918L37.3118 18.0629L37.733 17.9619L37.3169 19.3908L36.8957 19.4918Z" fill="white"/>
<path d="M39.8844 18.824L39.5652 16.2449L39.9615 16.1959L40.1003 17.3175L40.3622 17.2851L41.1502 16.0487L41.6607 15.9856L40.7734 17.3569L41.9933 18.563L41.4829 18.6262L40.502 17.6428L40.146 17.6869L40.2807 18.7749L39.8844 18.824Z" fill="white"/>
</g>
</svg>
