<svg width="50" height="50" viewBox="0 0 50 50" fill="none" xmlns="http://www.w3.org/2000/svg">
<rect width="50" height="50" rx="25" fill="#48C2FF"/>
<path d="M21.2847 36.0467C20.3739 36.0467 20.4567 35.7155 20.2083 34.8875L17.5587 26.1936L37.8446 14.2705" fill="#C8DAEA"/>
<path d="M21.2847 36.0467C21.8643 36.0467 22.1955 35.7155 22.6095 35.3843L26.3354 31.824L21.6987 29.0088" fill="#A9C9DD"/>
<path d="M21.6987 29.0087L32.8766 37.2058C34.0358 37.951 35.0294 37.537 35.3606 36.0466L39.9145 14.6844C40.3285 12.8628 39.1693 12.0348 37.9273 12.6144L11.3488 22.8815C9.60998 23.5439 9.60998 24.6203 11.0176 25.0343L17.8899 27.1871L33.6218 17.1684C34.367 16.7544 35.0294 16.92 34.5326 17.4996" fill="#F6FBFE"/>
</svg>
