<svg width="113" height="52" viewBox="0 0 113 52" fill="none" xmlns="http://www.w3.org/2000/svg">
<g clip-path="url(#clip0_1_452)">
<path fill-rule="evenodd" clip-rule="evenodd" d="M46.3641 23.7476L53.8196 2.91281H54.6305V23.7476H62.4013V14.0623H63.6852C64.023 15.1659 64.9015 16.5399 67.1764 18.5896L72.9651 23.7701H83.4163L70.3974 11.8324L82.6054 0.6604H73.2805L66.7935 6.58424C64.879 8.29608 63.933 9.57995 63.6627 10.7512H62.3563V0.6604H45.9812L41.071 14.4677C40.5079 16.1119 40.0574 18.995 40.0574 20.842H38.6384C38.6384 18.995 38.3681 16.2471 37.6924 14.4677L32.8497 0.6604H24.2455L32.4668 23.7476H46.3641Z" fill="black"/>
<path fill-rule="evenodd" clip-rule="evenodd" d="M112.81 34.2889V28.5227H97.7191C96.1425 28.5227 94.791 27.6443 94.791 25.4595V19.851H87.0202V22.5088C87.0202 25.2117 87.7184 27.8921 91.6827 27.8921V28.5227H81.8171V31.8563H80.9387C78.889 27.6443 74.7445 26.2478 68.2576 26.2478C61.5679 26.2478 56.1621 28.4326 56.1621 34.2889C56.1621 39.3343 60.4417 41.1813 64.5636 41.5192L70.8929 42.0823C72.875 42.285 74.1589 42.5778 74.1589 43.9968C74.1589 45.4158 72.4471 46.2492 68.618 46.2492C64.406 46.2492 62.6266 44.4698 62.6266 43.1859H46.8146C45.9362 45.1005 42.6702 45.5735 40.3277 45.5735C35.6877 45.5735 32.9172 44.0869 32.9172 40.3929H54.5404V37.1945C54.5404 30.9328 49.067 26.2478 39.8772 26.2478C33.8182 26.2478 29.0431 28.0272 26.7682 32.014H25.8672V28.5002H19.3127C17.736 28.5002 16.3845 27.6218 16.3845 26.1802C16.3845 24.7162 17.736 23.7701 19.3127 23.7701H25.8672V17.2832H16.5873C11.249 17.2832 8.99663 18.5671 8.68129 22.1484C8.5011 24.108 9.42459 27.7794 13.1636 27.7794V28.4777H0.189697V34.2439H9.28944V50.3036H17.1278V34.2664H25.8672C25.4392 35.5503 25.2365 37.0594 25.2365 38.7487C25.2365 47.9611 31.2955 51.2271 40.3953 51.2271C46.184 51.2271 51.86 49.5152 54.0449 44.8302H55.126C56.2748 47.9611 59.4732 51.2946 68.7081 51.2946C75.195 51.2946 81.4567 49.2449 81.4567 43.0508C81.4567 39.0865 79.407 36.3611 71.8389 35.6404L66.3656 35.1448C64.2483 34.9421 63.2347 34.5142 63.2347 33.2978C63.2347 31.8113 65.2168 31.1806 68.5729 31.1806C72.5372 31.1806 74.4968 32.6672 74.4968 34.2439H87.8085V42.2174C87.8085 47.9836 90.6691 50.3261 96.9984 50.3261H104.251V43.8617H99.3859C96.6605 43.8617 95.6244 42.6454 95.6244 40.4605V34.2664H112.81V34.2889ZM39.9673 31.7887C43.5937 31.7887 46.7921 33.433 46.7921 36.1359H33.0073C33.0073 33.433 35.8454 31.7887 39.9673 31.7887Z" fill="black"/>
</g>
<defs>
<clipPath id="clip0_1_452">
<rect width="112.621" height="50.6793" fill="white" transform="translate(0.189697 0.6604)"/>
</clipPath>
</defs>
</svg>
