<svg width="51" height="50" viewBox="0 0 51 50" fill="none" xmlns="http://www.w3.org/2000/svg">
<path opacity="0.4" d="M26.6042 4.604C25.8542 4.02067 24.8126 4.02067 24.0626 4.604C20.1042 7.62484 8.41663 17.479 8.47913 28.9582C8.47913 38.2498 16.0417 45.8332 25.3542 45.8332C34.6667 45.8332 42.2292 38.2707 42.2292 28.979C42.25 17.6665 30.5417 7.64567 26.6042 4.604Z" fill="#44B5B1"/>
<path d="M42.1876 29.5832C42.1459 30.854 41.9584 32.104 41.6251 33.3123L26.8959 40.479V45.7707C26.375 45.8123 25.8542 45.8332 25.3334 45.8332C24.8125 45.8332 24.2917 45.8123 23.7709 45.7707V4.81234C23.875 4.729 23.9584 4.6665 24.0417 4.604C24.8126 4.02067 25.8542 4.02067 26.6042 4.604C26.6875 4.6665 26.7917 4.74984 26.8959 4.83317V16.1665L34.7709 12.3332C35.4584 13.1248 36.1042 13.9373 36.75 14.7915C36.6667 14.8748 36.5833 14.9373 36.4792 14.979L26.8959 19.6457V26.5832L40 20.2082C40.0208 20.2082 40.0209 20.1873 40.0417 20.1873C40.5 21.1248 40.8959 22.0832 41.2084 23.0832L26.8959 30.0623V36.9998L40.6875 30.2915L42.1876 29.5832Z" fill="#44B5B1"/>
</svg>
