<svg width="26" height="25" viewBox="0 0 26 25" fill="none" xmlns="http://www.w3.org/2000/svg">
<path d="M24.0625 20.3124V22.1093H1.5625V20.3124C1.57846 17.8145 2.43116 15.3939 3.98437 13.4375C5.0234 12.0873 6.36142 10.9966 7.89324 10.251C9.42506 9.50546 11.1089 9.12536 12.8125 9.14058C14.5337 9.13445 16.2331 9.52608 17.778 10.285C19.3229 11.0439 20.6716 12.1495 21.7187 13.5156C23.2173 15.4666 24.04 17.8524 24.0625 20.3124Z" stroke="#FF9D97" stroke-width="2" stroke-linecap="round" stroke-linejoin="round"/>
<path d="M22.9687 10.5469C22.9693 11.1001 22.859 11.6479 22.6443 12.1578C22.4296 12.6677 22.1149 13.1294 21.7187 13.5156C20.6716 12.1496 19.3229 11.044 17.778 10.285C16.2331 9.52615 14.5337 9.13451 12.8125 9.14064C11.1089 9.12542 9.42505 9.50552 7.89323 10.2511C6.3614 10.9967 5.02339 12.0874 3.98436 13.4375C3.25186 12.6507 2.83471 11.6217 2.81249 10.5469C2.8021 10.0068 2.89951 9.47015 3.09901 8.96822C3.29852 8.46628 3.59611 8.00918 3.97439 7.62363C4.35267 7.23808 4.80403 6.93182 5.30208 6.72279C5.80012 6.51376 6.33486 6.40617 6.87499 6.40627C7.5618 6.42049 8.23378 6.60866 8.82811 6.95315C8.888 5.91684 9.34231 4.94273 10.0978 4.23084C10.8533 3.51895 11.8526 3.12328 12.8906 3.12501C13.9232 3.14156 14.9123 3.54335 15.6639 4.25158C16.4155 4.95981 16.8753 5.92338 16.9531 6.95315C17.5474 6.60866 18.2194 6.42049 18.9062 6.40627C19.4464 6.40617 19.9811 6.51376 20.4791 6.72279C20.9772 6.93182 21.4286 7.23808 21.8068 7.62363C22.1851 8.00918 22.4827 8.46628 22.6822 8.96822C22.8817 9.47015 22.9791 10.0068 22.9687 10.5469Z" stroke="#FF9D97" stroke-width="2" stroke-linecap="round" stroke-linejoin="round"/>
<path d="M7.73438 15.3906L8.75 14.375" stroke="#FF9D97" stroke-width="2" stroke-linecap="round" stroke-linejoin="round"/>
<path d="M12.7344 17.1094L13.75 18.2031" stroke="#FF9D97" stroke-width="2" stroke-linecap="round" stroke-linejoin="round"/>
<path d="M16.4062 14.9218L16.9531 14.375" stroke="#FF9D97" stroke-width="2" stroke-linecap="round" stroke-linejoin="round"/>
</svg>
