<svg width="20" height="20" viewBox="0 0 20 20" fill="none" xmlns="http://www.w3.org/2000/svg">
<path d="M13.9583 2.9665V1.6665C13.9583 1.32484 13.675 1.0415 13.3333 1.0415C12.9916 1.0415 12.7083 1.32484 12.7083 1.6665V2.9165H7.29165V1.6665C7.29165 1.32484 7.00831 1.0415 6.66665 1.0415C6.32498 1.0415 6.04165 1.32484 6.04165 1.6665V2.9665C3.79165 3.17484 2.69999 4.5165 2.53332 6.50817C2.51665 6.74984 2.71665 6.94983 2.94999 6.94983H17.05C17.2916 6.94983 17.4916 6.7415 17.4666 6.50817C17.3 4.5165 16.2083 3.17484 13.9583 2.9665Z" fill="#44B5B1"/>
<path opacity="0.4" d="M16.6667 8.19971C17.125 8.19971 17.5 8.57471 17.5 9.03304V14.1664C17.5 16.6664 16.25 18.333 13.3333 18.333H6.66667C3.75 18.333 2.5 16.6664 2.5 14.1664V9.03304C2.5 8.57471 2.875 8.19971 3.33333 8.19971H16.6667Z" fill="#44B5B1"/>
<path d="M7.08333 12.4999C6.975 12.4999 6.86666 12.4749 6.76666 12.4333C6.66666 12.3916 6.57501 12.3332 6.49167 12.2582C6.41667 12.1749 6.35832 12.0833 6.31666 11.9833C6.27499 11.8833 6.25 11.7749 6.25 11.6666C6.25 11.5582 6.27499 11.4499 6.31666 11.3499C6.35832 11.2499 6.41667 11.1583 6.49167 11.0749C6.57501 10.9999 6.66666 10.9416 6.76666 10.8999C6.96666 10.8166 7.2 10.8166 7.4 10.8999C7.5 10.9416 7.59166 10.9999 7.67499 11.0749C7.74999 11.1583 7.80834 11.2499 7.85001 11.3499C7.89168 11.4499 7.91667 11.5582 7.91667 11.6666C7.91667 11.7749 7.89168 11.8833 7.85001 11.9833C7.80834 12.0833 7.74999 12.1749 7.67499 12.2582C7.59166 12.3332 7.5 12.3916 7.4 12.4333C7.3 12.4749 7.19167 12.4999 7.08333 12.4999Z" fill="#44B5B1"/>
<path d="M10 12.5003C9.89169 12.5003 9.78335 12.4753 9.68335 12.4336C9.58335 12.392 9.49169 12.3336 9.40836 12.2586C9.25836 12.1003 9.16669 11.8836 9.16669 11.667C9.16669 11.4503 9.25836 11.2336 9.40836 11.0753C9.49169 11.0003 9.58335 10.942 9.68335 10.9003C9.88335 10.8086 10.1167 10.8086 10.3167 10.9003C10.4167 10.942 10.5083 11.0003 10.5917 11.0753C10.7417 11.2336 10.8334 11.4503 10.8334 11.667C10.8334 11.8836 10.7417 12.1003 10.5917 12.2586C10.5083 12.3336 10.4167 12.392 10.3167 12.4336C10.2167 12.4753 10.1084 12.5003 10 12.5003Z" fill="#44B5B1"/>
<path d="M7.08333 15.4164C6.975 15.4164 6.86666 15.3914 6.76666 15.3498C6.66666 15.3081 6.57501 15.2497 6.49167 15.1747C6.34167 15.0164 6.25 14.7998 6.25 14.5831C6.25 14.3664 6.34167 14.1498 6.49167 13.9914C6.57501 13.9164 6.66666 13.8581 6.76666 13.8164C6.96666 13.7331 7.2 13.7331 7.4 13.8164C7.5 13.8581 7.59166 13.9164 7.67499 13.9914C7.82499 14.1498 7.91667 14.3664 7.91667 14.5831C7.91667 14.7998 7.82499 15.0164 7.67499 15.1747C7.59166 15.2497 7.5 15.3081 7.4 15.3498C7.3 15.3914 7.19167 15.4164 7.08333 15.4164Z" fill="#44B5B1"/>
</svg>
