<svg width="14" height="15" viewBox="0 0 14 15" fill="none" xmlns="http://www.w3.org/2000/svg">
<path d="M9.77082 2.57675V1.66675C9.77082 1.42758 9.57249 1.22925 9.33332 1.22925C9.09415 1.22925 8.89582 1.42758 8.89582 1.66675V2.54175H5.10415V1.66675C5.10415 1.42758 4.90582 1.22925 4.66665 1.22925C4.42749 1.22925 4.22915 1.42758 4.22915 1.66675V2.57675C2.65415 2.72258 1.88999 3.66175 1.77332 5.05591C1.76166 5.22508 1.90166 5.36508 2.06499 5.36508H11.935C12.1041 5.36508 12.2441 5.21925 12.2266 5.05591C12.11 3.66175 11.3458 2.72258 9.77082 2.57675Z" fill="#FF9D97"/>
<path opacity="0.4" d="M11.6667 6.24023C11.9875 6.24023 12.25 6.50273 12.25 6.82357V10.4169C12.25 12.1669 11.375 13.3336 9.33333 13.3336H4.66667C2.625 13.3336 1.75 12.1669 1.75 10.4169V6.82357C1.75 6.50273 2.0125 6.24023 2.33333 6.24023H11.6667Z" fill="#FF9D97"/>
<path d="M4.95833 9.24994C4.8825 9.24994 4.80666 9.23245 4.73666 9.20328C4.66666 9.17411 4.6025 9.13327 4.54417 9.08077C4.49167 9.02243 4.45083 8.95828 4.42166 8.88828C4.39249 8.81828 4.375 8.74244 4.375 8.66661C4.375 8.59077 4.39249 8.51494 4.42166 8.44494C4.45083 8.37494 4.49167 8.31078 4.54417 8.25244C4.6025 8.19994 4.66666 8.1591 4.73666 8.12993C4.87666 8.0716 5.04 8.0716 5.18 8.12993C5.25 8.1591 5.31416 8.19994 5.37249 8.25244C5.42499 8.31078 5.46584 8.37494 5.49501 8.44494C5.52417 8.51494 5.54167 8.59077 5.54167 8.66661C5.54167 8.74244 5.52417 8.81828 5.49501 8.88828C5.46584 8.95828 5.42499 9.02243 5.37249 9.08077C5.31416 9.13327 5.25 9.17411 5.18 9.20328C5.11 9.23245 5.03417 9.24994 4.95833 9.24994Z" fill="#FF9D97"/>
<path d="M7.00001 9.25016C6.92418 9.25016 6.84834 9.23267 6.77834 9.20351C6.70834 9.17434 6.64418 9.13349 6.58585 9.08099C6.48085 8.97016 6.41668 8.8185 6.41668 8.66683C6.41668 8.51516 6.48085 8.3635 6.58585 8.25267C6.64418 8.20017 6.70834 8.15932 6.77834 8.13016C6.91834 8.06599 7.08168 8.06599 7.22168 8.13016C7.29168 8.15932 7.35584 8.20017 7.41417 8.25267C7.51917 8.3635 7.58335 8.51516 7.58335 8.66683C7.58335 8.8185 7.51917 8.97016 7.41417 9.08099C7.35584 9.13349 7.29168 9.17434 7.22168 9.20351C7.15168 9.23267 7.07585 9.25016 7.00001 9.25016Z" fill="#FF9D97"/>
<path d="M4.95833 11.2917C4.8825 11.2917 4.80666 11.2742 4.73666 11.245C4.66666 11.2159 4.6025 11.175 4.54417 11.1225C4.43917 11.0117 4.375 10.86 4.375 10.7084C4.375 10.5567 4.43917 10.405 4.54417 10.2942C4.6025 10.2417 4.66666 10.2008 4.73666 10.1717C4.87666 10.1133 5.04 10.1133 5.18 10.1717C5.25 10.2008 5.31416 10.2417 5.37249 10.2942C5.47749 10.405 5.54167 10.5567 5.54167 10.7084C5.54167 10.86 5.47749 11.0117 5.37249 11.1225C5.31416 11.175 5.25 11.2159 5.18 11.245C5.11 11.2742 5.03417 11.2917 4.95833 11.2917Z" fill="#FF9D97"/>
</svg>
