<svg width="21" height="20" viewBox="0 0 21 20" fill="none" xmlns="http://www.w3.org/2000/svg">
<path opacity="0.4" d="M10.325 11.8415L7.59996 14.5665C7.29996 14.2998 7.00829 14.0248 6.72496 13.7415C5.86663 12.8748 5.09163 11.9665 4.39996 11.0165C3.71663 10.0665 3.16663 9.1165 2.76663 8.17484C2.36663 7.22484 2.16663 6.3165 2.16663 5.44984C2.16663 4.88317 2.26663 4.3415 2.46663 3.8415C2.66663 3.33317 2.98329 2.8665 3.42496 2.44984C3.95829 1.92484 4.54163 1.6665 5.15829 1.6665C5.39163 1.6665 5.62496 1.7165 5.83329 1.8165C6.04996 1.9165 6.24163 2.0665 6.39163 2.28317L8.32496 5.00817C8.47496 5.2165 8.58329 5.40817 8.65829 5.5915C8.73329 5.7665 8.77496 5.9415 8.77496 6.09984C8.77496 6.29984 8.71663 6.49984 8.59996 6.6915C8.49163 6.88317 8.33329 7.08317 8.13329 7.28317L7.49996 7.9415C7.40829 8.03317 7.36663 8.1415 7.36663 8.27484C7.36663 8.3415 7.37496 8.39984 7.39163 8.4665C7.41663 8.53317 7.44163 8.58317 7.45829 8.63317C7.60829 8.90817 7.86663 9.2665 8.23329 9.69984C8.60829 10.1332 9.00829 10.5748 9.44163 11.0165C9.74163 11.3082 10.0333 11.5915 10.325 11.8415Z" fill="#44B5B1"/>
<path d="M18.8083 15.2752C18.8083 15.5085 18.7667 15.7502 18.6833 15.9835C18.6583 16.0502 18.6333 16.1169 18.6 16.1835C18.4583 16.4835 18.275 16.7669 18.0333 17.0335C17.625 17.4835 17.175 17.8085 16.6667 18.0169C16.6583 18.0169 16.65 18.0252 16.6417 18.0252C16.15 18.2252 15.6167 18.3335 15.0417 18.3335C14.1917 18.3335 13.2833 18.1335 12.325 17.7252C11.3667 17.3169 10.4083 16.7669 9.45833 16.0752C9.13333 15.8335 8.80833 15.5919 8.5 15.3335L11.225 12.6085C11.4583 12.7835 11.6667 12.9169 11.8417 13.0085C11.8833 13.0252 11.9333 13.0502 11.9917 13.0752C12.0583 13.1002 12.125 13.1085 12.2 13.1085C12.3417 13.1085 12.45 13.0585 12.5417 12.9669L13.175 12.3419C13.3833 12.1335 13.5833 11.9752 13.775 11.8752C13.9667 11.7585 14.1583 11.7002 14.3667 11.7002C14.525 11.7002 14.6917 11.7335 14.875 11.8085C15.0583 11.8835 15.25 11.9919 15.4583 12.1335L18.2167 14.0919C18.4333 14.2419 18.5833 14.4169 18.675 14.6252C18.7583 14.8335 18.8083 15.0419 18.8083 15.2752Z" fill="#44B5B1"/>
</svg>
