<svg width="10" height="10" viewBox="0 0 10 10" fill="none" xmlns="http://www.w3.org/2000/svg">
<path d="M6.32495 4.99998L9.19995 2.12498C9.56245 1.76248 9.56245 1.16248 9.19995 0.799982C8.83745 0.437482 8.23745 0.437482 7.87495 0.799982L4.99995 3.67498L2.12495 0.799982C1.76245 0.437482 1.16245 0.437482 0.799951 0.799982C0.437451 1.16248 0.437451 1.76248 0.799951 2.12498L3.67495 4.99998L0.799951 7.87498C0.437451 8.23748 0.437451 8.83748 0.799951 9.19998C0.987451 9.38748 1.22495 9.47498 1.46245 9.47498C1.69995 9.47498 1.93745 9.38748 2.12495 9.19998L4.99995 6.32498L7.87495 9.19998C8.06245 9.38748 8.29995 9.47498 8.53745 9.47498C8.77495 9.47498 9.01245 9.38748 9.19995 9.19998C9.56245 8.83748 9.56245 8.23748 9.19995 7.87498L6.32495 4.99998Z" fill="#FF9D97"/>
</svg>
