<svg width="25" height="25" viewBox="0 0 25 25" fill="none" xmlns="http://www.w3.org/2000/svg">
<path d="M7.26563 23.4375C6.78907 23.4375 6.33201 23.2482 5.99504 22.9112C5.65806 22.5742 5.46875 22.1172 5.46875 21.6406L6.25 11.875H8.35937L9.14062 21.6406C9.14085 21.8833 9.09192 22.1235 8.99677 22.3468C8.90163 22.5701 8.76223 22.7717 8.58701 22.9396C8.4118 23.1076 8.20438 23.2382 7.97727 23.3238C7.75017 23.4094 7.50809 23.448 7.26563 23.4375Z" stroke="#FF9D97" stroke-width="2" stroke-linecap="round" stroke-linejoin="round"/>
<path d="M7.26563 11.875C9.55243 11.875 11.4062 9.56647 11.4062 6.71875C11.4062 3.87104 9.55243 1.5625 7.26563 1.5625C4.97882 1.5625 3.125 3.87104 3.125 6.71875C3.125 9.56647 4.97882 11.875 7.26563 11.875Z" stroke="#FF9D97" stroke-width="2" stroke-linecap="round" stroke-linejoin="round"/>
<path d="M18.125 23.4375C17.6484 23.4375 17.1914 23.2482 16.8544 22.9112C16.5174 22.5742 16.3281 22.1172 16.3281 21.6406L17.1094 11.875H19.2187L20 21.6406C20.0002 21.8833 19.9513 22.1235 19.8561 22.3468C19.761 22.5701 19.6216 22.7717 19.4464 22.9396C19.2712 23.1076 19.0638 23.2382 18.8366 23.3238C18.6095 23.4094 18.3675 23.448 18.125 23.4375Z" stroke="#FF9D97" stroke-width="2" stroke-linecap="round" stroke-linejoin="round"/>
<path d="M21.6406 8.35938C21.6202 9.29889 21.2326 10.193 20.5608 10.8502C19.8891 11.5073 18.9866 11.8752 18.0469 11.875C17.1145 11.875 16.2203 11.5046 15.561 10.8453C14.9016 10.186 14.5312 9.29178 14.5312 8.35938H21.6406Z" stroke="#FF9D97" stroke-width="2" stroke-linecap="round" stroke-linejoin="round"/>
<path d="M14.5312 1.875V8.35939" stroke="#FF9D97" stroke-width="2" stroke-linecap="round" stroke-linejoin="round"/>
<path d="M18.0469 1.875V8.20313" stroke="#FF9D97" stroke-width="2" stroke-linecap="round" stroke-linejoin="round"/>
<path d="M21.6406 1.875V8.35939" stroke="#FF9D97" stroke-width="2" stroke-linecap="round" stroke-linejoin="round"/>
</svg>
