<svg width="50" height="50" viewBox="0 0 50 50" fill="none" xmlns="http://www.w3.org/2000/svg">
<path opacity="0.4" d="M33.7292 4.16666H16.2708C8.6875 4.16666 4.16666 8.68749 4.16666 16.2708V33.7083C4.16666 41.3125 8.6875 45.8333 16.2708 45.8333H33.7083C41.2917 45.8333 45.8125 41.3125 45.8125 33.7292V16.2708C45.8333 8.68749 41.3125 4.16666 33.7292 4.16666Z" fill="#FF9D97"/>
<path d="M32.2917 21.1041C34.4548 21.1041 36.2083 19.3506 36.2083 17.1875C36.2083 15.0244 34.4548 13.2708 32.2917 13.2708C30.1285 13.2708 28.375 15.0244 28.375 17.1875C28.375 19.3506 30.1285 21.1041 32.2917 21.1041Z" fill="#FF9D97"/>
<path d="M17.7083 21.1041C19.8714 21.1041 21.625 19.3506 21.625 17.1875C21.625 15.0244 19.8714 13.2708 17.7083 13.2708C15.5452 13.2708 13.7917 15.0244 13.7917 17.1875C13.7917 19.3506 15.5452 21.1041 17.7083 21.1041Z" fill="#FF9D97"/>
<path d="M32.5 26.9167H17.5C16.0417 26.9167 14.8542 28.1042 14.8542 29.5833C14.8542 35.1875 19.4167 39.75 25.0208 39.75C30.625 39.75 35.1875 35.1875 35.1875 29.5833C35.1667 28.125 33.9583 26.9167 32.5 26.9167Z" fill="#FF9D97"/>
</svg>
