<svg width="24" height="24" viewBox="0 0 24 24" fill="none" xmlns="http://www.w3.org/2000/svg">
<path opacity="0.4" d="M13.25 21.55C12.55 22.14 11.42 22.14 10.74 21.55L9.16 20.2C8.85999 19.95 8.28999 19.74 7.88999 19.74H6.19C5.13 19.74 4.25999 18.87 4.25999 17.81V16.11C4.25999 15.71 4.04999 15.15 3.79999 14.85L2.45 13.27C1.85999 12.57 1.85999 11.44 2.45 10.76L3.79999 9.17999C4.04999 8.87999 4.25999 8.31999 4.25999 7.91999L4.25999 6.21999C4.25999 5.15999 5.13 4.28999 6.19 4.28999L7.88999 4.28999C8.28999 4.28999 8.84999 4.07999 9.14999 3.82999L10.73 2.47999C11.43 1.88999 12.56 1.88999 13.24 2.47999L14.82 3.82999C15.12 4.07999 15.69 4.28999 16.08 4.28999H17.83C18.89 4.28999 19.76 5.15999 19.76 6.21999V7.92999C19.76 8.31999 19.96 8.88999 20.21 9.17999L21.56 10.77C22.14 11.46 22.14 12.58 21.56 13.27L20.21 14.86C19.96 15.16 19.76 15.72 19.76 16.11V17.8C19.76 18.86 18.89 19.73 17.83 19.73H16.1C15.7 19.73 15.14 19.94 14.84 20.19L13.25 21.55Z" fill="#44B5B1"/>
<path d="M12 7.13C12.55 7.13 13 7.58 13 8.13C13 8.68 12.56 9.13 12 9.13C11.45 9.13 11 8.68 11 8.13C11 7.58 11.44 7.13 12 7.13Z" fill="#44B5B1"/>
<path d="M12 10.28C12.41 10.28 12.75 10.62 12.75 11.03V15.87C12.75 16.28 12.41 16.62 12 16.62C11.59 16.62 11.25 16.28 11.25 15.87V11.04C11.25 10.62 11.58 10.28 12 10.28Z" fill="#44B5B1"/>
</svg>
