<svg width="50" height="50" viewBox="0 0 50 50" fill="none" xmlns="http://www.w3.org/2000/svg">
<path opacity="0.4" d="M45.1042 20.896C44.2917 19.7293 42.8542 19.0627 41.2083 19.0627H32.6667C32.1042 19.0627 31.5833 18.8335 31.2292 18.4168C30.8542 18.0002 30.7083 17.4168 30.7917 16.8127L31.8542 9.97934C32.3125 7.93767 30.9583 5.64601 28.9167 4.95851C27.0208 4.25017 24.7917 5.20851 23.8958 6.56267L15.1042 19.6252L14.8542 20.0418V38.4585L15.1667 38.771L21.7708 43.8752C22.6458 44.7502 24.625 45.2293 26.0208 45.2293H34.1458C36.9375 45.2293 39.75 43.1252 40.375 40.5627L45.5 24.9585C46.0417 23.4793 45.8958 22.0418 45.1042 20.896Z" fill="#44B5B1"/>
<path d="M10.8542 13.2915H8.70833C5.47916 13.2915 4.16666 14.5415 4.16666 17.6248V38.5832C4.16666 41.6665 5.47916 42.9165 8.70833 42.9165H10.8542C14.0833 42.9165 15.3958 41.6665 15.3958 38.5832V17.6248C15.3958 14.5415 14.0833 13.2915 10.8542 13.2915Z" fill="#44B5B1"/>
</svg>
