<svg width="50" height="50" viewBox="0 0 50 50" fill="none" xmlns="http://www.w3.org/2000/svg">
<path d="M40.625 15.6247L37.5209 18.7288L31.2709 12.4788L34.375 9.37467C35.25 8.49967 36.375 8.08301 37.5 8.08301C38.625 8.08301 39.75 8.49967 40.625 9.37467C42.3542 11.1038 42.3542 13.8955 40.625 15.6247Z" fill="#44B5B1"/>
<path opacity="0.4" d="M37.5208 18.729L13.5417 42.7082C11.8125 44.4373 9.02084 44.4373 7.29167 42.7082C5.56251 40.979 5.56251 38.1873 7.29167 36.4582L31.2708 12.479L37.5208 18.729Z" fill="#44B5B1"/>
<path d="M20.7292 7.29158L21.5834 4.39575C21.6667 4.12491 21.5834 3.83325 21.3959 3.62491C21.2084 3.41658 20.875 3.33325 20.6042 3.41658L17.7084 4.27075L14.8125 3.41658C14.5417 3.33325 14.25 3.41658 14.0417 3.60408C13.8334 3.81241 13.7709 4.10408 13.8542 4.37491L14.6875 7.29158L13.8334 10.1874C13.75 10.4582 13.8334 10.7499 14.0209 10.9582C14.2292 11.1666 14.5209 11.2291 14.7917 11.1457L17.7084 10.3124L20.6042 11.1666C20.6875 11.1874 20.75 11.2082 20.8334 11.2082C21.0417 11.2082 21.2292 11.1249 21.3959 10.9791C21.6042 10.7707 21.6667 10.4791 21.5834 10.2082L20.7292 7.29158Z" fill="#44B5B1"/>
<path d="M12.3959 19.7916L13.25 16.8957C13.3334 16.6249 13.25 16.3332 13.0625 16.1249C12.8542 15.9166 12.5625 15.8541 12.2917 15.9374L9.37504 16.7707L6.4792 15.9166C6.20837 15.8332 5.9167 15.9166 5.70837 16.1041C5.50004 16.3124 5.43754 16.6041 5.52087 16.8749L6.3542 19.7916L5.50004 22.6874C5.4167 22.9582 5.50004 23.2499 5.68754 23.4582C5.89587 23.6666 6.18754 23.7291 6.45837 23.6457L9.3542 22.7916L12.25 23.6457C12.3125 23.6666 12.3959 23.6666 12.4792 23.6666C12.6875 23.6666 12.875 23.5832 13.0417 23.4374C13.25 23.2291 13.3125 22.9374 13.2292 22.6666L12.3959 19.7916Z" fill="#44B5B1"/>
<path d="M43.6459 30.2082L44.5001 27.3124C44.5834 27.0416 44.5001 26.7499 44.3126 26.5416C44.1042 26.3332 43.8126 26.2707 43.5417 26.3541L40.6459 27.2082L37.7501 26.3541C37.4792 26.2707 37.1876 26.3541 36.9792 26.5416C36.7709 26.7499 36.7084 27.0416 36.7917 27.3124L37.6459 30.2082L36.7917 33.1041C36.7084 33.3749 36.7917 33.6666 36.9792 33.8749C37.1876 34.0832 37.4792 34.1457 37.7501 34.0624L40.6459 33.2082L43.5417 34.0624C43.6042 34.0832 43.6876 34.0832 43.7709 34.0832C43.9792 34.0832 44.1667 33.9999 44.3334 33.8541C44.5417 33.6457 44.6042 33.3541 44.5209 33.0832L43.6459 30.2082Z" fill="#44B5B1"/>
</svg>
