<svg width="21" height="21" viewBox="0 0 21 21" fill="none" xmlns="http://www.w3.org/2000/svg">
<path opacity="0.4" d="M15.4833 9.49167V12.825C15.4833 13.0417 15.475 13.25 15.45 13.45C15.2583 15.7 13.9333 16.8167 11.4916 16.8167H11.1583C10.95 16.8167 10.75 16.9167 10.625 17.0833L9.62497 18.4167C9.1833 19.0083 8.46663 19.0083 8.02496 18.4167L7.02495 17.0833C6.91662 16.9417 6.67496 16.8167 6.49163 16.8167H6.1583C3.49997 16.8167 2.16663 16.1583 2.16663 12.825V9.49167C2.16663 7.05001 3.29163 5.72501 5.5333 5.53334C5.7333 5.50834 5.94163 5.5 6.1583 5.5H11.4916C14.15 5.5 15.4833 6.83334 15.4833 9.49167Z" fill="white"/>
<path d="M8.82503 12.1667C8.35837 12.1667 7.9917 11.7917 7.9917 11.3333C7.9917 10.875 8.3667 10.5 8.82503 10.5C9.28337 10.5 9.65837 10.875 9.65837 11.3333C9.65837 11.7917 9.2917 12.1667 8.82503 12.1667Z" fill="white"/>
<path d="M11.7417 12.1667C11.275 12.1667 10.9083 11.7917 10.9083 11.3333C10.9083 10.875 11.2833 10.5 11.7417 10.5C12.2 10.5 12.575 10.875 12.575 11.3333C12.575 11.7917 12.2 12.1667 11.7417 12.1667Z" fill="white"/>
<path d="M5.91671 12.1667C5.45004 12.1667 5.08337 11.7917 5.08337 11.3333C5.08337 10.875 5.45837 10.5 5.91671 10.5C6.37504 10.5 6.75004 10.875 6.75004 11.3333C6.75004 11.7917 6.37504 12.1667 5.91671 12.1667Z" fill="white"/>
<path d="M18.8167 6.15834V9.49167C18.8167 11.9417 17.6917 13.2583 15.45 13.45C15.475 13.25 15.4833 13.0417 15.4833 12.825V9.49167C15.4833 6.83334 14.15 5.5 11.4917 5.5H6.15833C5.94166 5.5 5.73333 5.50834 5.53333 5.53334C5.72499 3.29167 7.04999 2.16667 9.49166 2.16667H14.825C17.4833 2.16667 18.8167 3.50001 18.8167 6.15834Z" fill="white"/>
</svg>
