<svg width="25" height="25" viewBox="0 0 25 25" fill="none" xmlns="http://www.w3.org/2000/svg">
<path d="M3.59375 13.9844C3.59375 16.4915 4.5897 18.8959 6.3625 20.6687C8.13531 22.4416 10.5398 23.4375 13.0469 23.4375C15.554 23.4375 17.9584 22.4416 19.7312 20.6687C21.504 18.8959 22.5 16.4915 22.5 13.9844H3.59375Z" stroke="#FF9D97" stroke-width="2" stroke-linecap="round" stroke-linejoin="round"/>
<path d="M5.54688 10.7812C5.68531 9.77101 6.18494 8.84511 6.95334 8.17483C7.72174 7.50455 8.7069 7.13525 9.72657 7.13525C10.7462 7.13525 11.7314 7.50455 12.4998 8.17483C13.2682 8.84511 13.7678 9.77101 13.9062 10.7812" stroke="#FF9D97" stroke-width="2" stroke-linecap="round" stroke-linejoin="round"/>
<path d="M11.1719 6.64068C11.7391 5.99909 12.4367 5.48598 13.2181 5.13569C13.9996 4.78539 14.8468 4.60597 15.7031 4.60942C16.51 4.60936 17.3088 4.76953 18.0533 5.08065C18.7978 5.39176 19.473 5.84762 20.0399 6.42177C20.6068 6.99593 21.054 7.67696 21.3556 8.42533C21.6572 9.17369 21.8072 9.97451 21.7969 10.7813" stroke="#FF9D97" stroke-width="2" stroke-linecap="round" stroke-linejoin="round"/>
<path d="M13.2031 8.51559C13.8126 7.99716 14.5906 7.71932 15.3906 7.73434C16.2889 7.73411 17.1516 8.08554 17.7941 8.7134C18.4365 9.34125 18.8077 10.1956 18.8281 11.0937" stroke="#FF9D97" stroke-width="2" stroke-linecap="round" stroke-linejoin="round"/>
<path d="M8.43749 6.875L3.67188 2.34375" stroke="#FF9D97" stroke-width="2" stroke-linecap="round" stroke-linejoin="round"/>
<path d="M5.85938 9.21875L3.125 6.64062" stroke="#FF9D97" stroke-width="2" stroke-linecap="round" stroke-linejoin="round"/>
</svg>
