<svg width="21" height="20" viewBox="0 0 21 20" fill="none" xmlns="http://www.w3.org/2000/svg">
<path opacity="0.4" d="M15.1084 6.47484C15.05 6.46651 14.9917 6.46651 14.9334 6.47484C13.6417 6.43317 12.6167 5.37484 12.6167 4.07484C12.6167 2.74984 13.6917 1.6665 15.025 1.6665C16.35 1.6665 17.4334 2.7415 17.4334 4.07484C17.425 5.37484 16.4 6.43317 15.1084 6.47484Z" fill="#44B5B1"/>
<path opacity="0.4" d="M17.825 12.2498C16.8917 12.8748 15.5834 13.1082 14.375 12.9498C14.6917 12.2665 14.8584 11.5082 14.8667 10.7082C14.8667 9.87485 14.6834 9.08318 14.3334 8.39152C15.5667 8.22485 16.875 8.45817 17.8167 9.08317C19.1334 9.94984 19.1334 11.3748 17.825 12.2498Z" fill="#44B5B1"/>
<path opacity="0.4" d="M5.86662 6.47484C5.92496 6.46651 5.98329 6.46651 6.04163 6.47484C7.33329 6.43317 8.35829 5.37484 8.35829 4.07484C8.35829 2.74984 7.28329 1.6665 5.94996 1.6665C4.62496 1.6665 3.54163 2.7415 3.54163 4.07484C3.54996 5.37484 4.57496 6.43317 5.86662 6.47484Z" fill="#44B5B1"/>
<path opacity="0.4" d="M5.95831 10.7083C5.95831 11.5167 6.13331 12.2833 6.44997 12.975C5.27497 13.1 4.04998 12.85 3.14998 12.2583C1.83331 11.3833 1.83331 9.95833 3.14998 9.08333C4.04164 8.48333 5.29998 8.24167 6.48331 8.37501C6.14164 9.07501 5.95831 9.86668 5.95831 10.7083Z" fill="#44B5B1"/>
<path d="M10.6 13.225C10.5333 13.2167 10.4583 13.2167 10.3833 13.225C8.85 13.175 7.625 11.9167 7.625 10.3667C7.625 8.78334 8.9 7.5 10.4917 7.5C12.075 7.5 13.3583 8.78334 13.3583 10.3667C13.3583 11.9167 12.1417 13.175 10.6 13.225Z" fill="#44B5B1"/>
<path d="M7.89163 14.9502C6.63329 15.7919 6.63329 17.1752 7.89163 18.0085C9.32496 18.9669 11.675 18.9669 13.1083 18.0085C14.3666 17.1669 14.3666 15.7835 13.1083 14.9502C11.6833 13.9919 9.33329 13.9919 7.89163 14.9502Z" fill="#44B5B1"/>
</svg>
