<svg width="25" height="26" viewBox="0 0 25 26" fill="none" xmlns="http://www.w3.org/2000/svg">
<path d="M12.7344 24.5166L7.57809 16.2354L2.34375 7.95414C9.19053 6.23436 16.3563 6.23436 23.2031 7.95414L17.9688 16.2354L12.7344 24.5166Z" stroke="#FF9D97" stroke-width="2" stroke-linecap="round" stroke-linejoin="round"/>
<path d="M10.3907 12.72C11.2967 12.72 12.0313 11.9854 12.0313 11.0794C12.0313 10.1733 11.2967 9.43872 10.3907 9.43872C9.48456 9.43872 8.75 10.1733 8.75 11.0794C8.75 11.9854 9.48456 12.72 10.3907 12.72Z" stroke="#FF9D97" stroke-width="2" stroke-linecap="round" stroke-linejoin="round"/>
<path d="M16.4063 13.0325C17.1398 13.0325 17.7343 12.4379 17.7343 11.7044C17.7343 10.9709 17.1398 10.3762 16.4063 10.3762C15.6728 10.3762 15.0781 10.9709 15.0781 11.7044C15.0781 12.4379 15.6728 13.0325 16.4063 13.0325Z" fill="#FF9D97"/>
<path d="M12.7344 17.8762C13.4679 17.8762 14.0625 17.2816 14.0625 16.5481C14.0625 15.8146 13.4679 15.22 12.7344 15.22C12.0009 15.22 11.4062 15.8146 11.4062 16.5481C11.4062 17.2816 12.0009 17.8762 12.7344 17.8762Z" fill="#FF9D97"/>
<path d="M4.14062 6.93869C4.14063 6.04773 4.49453 5.19326 5.12453 4.56325C5.75454 3.93325 6.60903 3.5793 7.49999 3.5793C7.97078 3.57156 8.43771 3.66526 8.86909 3.85398C9.30046 4.04271 9.68616 4.32206 10 4.67307V4.51681C10 3.79161 10.2881 3.0961 10.8008 2.58331C11.3136 2.07051 12.0092 1.78243 12.7344 1.78243C13.0964 1.77162 13.4568 1.83496 13.7934 1.96854C14.1301 2.10213 14.4358 2.30315 14.6919 2.55925C14.948 2.81535 15.1491 3.12111 15.2826 3.45775C15.4162 3.79439 15.4796 4.15479 15.4688 4.51681V4.67307C15.9356 4.17782 16.539 3.83231 17.2025 3.68034C17.8659 3.52838 18.5596 3.57679 19.1955 3.81943C19.8314 4.06208 20.3809 4.48805 20.7745 5.04336C21.1681 5.59866 21.3879 6.2583 21.4062 6.93869" stroke="#FF9D97" stroke-width="2" stroke-linecap="round" stroke-linejoin="round"/>
</svg>
