<svg width="51" height="50" viewBox="0 0 51 50" fill="none" xmlns="http://www.w3.org/2000/svg">
<path opacity="0.4" d="M18.7291 29.1665H8.99998C6.70831 29.1665 4.83331 31.0415 4.83331 33.3332V45.8332H18.7291V29.1665Z" fill="#44B5B1"/>
<path d="M28.4375 20.8335H22.875C20.5833 20.8335 18.7083 22.7085 18.7083 25.0002V45.8335H32.6042V25.0002C32.6042 22.7085 30.75 20.8335 28.4375 20.8335Z" fill="#44B5B1"/>
<path opacity="0.4" d="M42.3333 35.4165H32.6041V45.8332H46.5V39.5832C46.5 37.2915 44.625 35.4165 42.3333 35.4165Z" fill="#44B5B1"/>
<path d="M31.9375 10.1044C32.5833 9.45852 32.8333 8.68769 32.625 8.02102C32.4167 7.35435 31.7708 6.8752 30.8542 6.72936L28.8542 6.39602C28.7708 6.37519 28.5833 6.25016 28.5417 6.16682L27.4375 3.9585C26.6042 2.271 24.7083 2.271 23.875 3.9585L22.7708 6.16682C22.7292 6.25016 22.5417 6.37519 22.4583 6.39602L20.4583 6.72936C19.5417 6.8752 18.9167 7.35435 18.6875 8.02102C18.4792 8.68769 18.7292 9.45852 19.375 10.1044L20.9167 11.6669C20.9792 11.7294 21.0625 11.9794 21.0417 12.0627L20.6042 13.9793C20.2708 15.396 20.8125 16.0418 21.1667 16.3126C21.5208 16.5626 22.2917 16.896 23.5625 16.146L25.4375 15.0418C25.5208 14.9793 25.7917 14.9793 25.875 15.0418L27.75 16.146C28.3333 16.5002 28.8125 16.6043 29.1875 16.6043C29.625 16.6043 29.9375 16.4376 30.125 16.3126C30.4792 16.0626 31.0208 15.4168 30.6875 13.9793L30.25 12.0627C30.2292 11.9585 30.2917 11.7294 30.375 11.6669L31.9375 10.1044Z" fill="#44B5B1"/>
</svg>
