<svg width="50" height="50" viewBox="0 0 50 50" fill="none" xmlns="http://www.w3.org/2000/svg">
<path d="M45.7708 37.5V39.5833C45.7708 43.0208 45.7708 45.8333 39.5208 45.8333H10.3541C4.10409 45.8333 4.1041 43.0208 4.1041 39.5833V37.5C4.1041 36.3542 5.0416 35.4167 6.18743 35.4167H43.6874C44.8333 35.4167 45.7708 36.3542 45.7708 37.5Z" fill="#FF9D97"/>
<path opacity="0.4" d="M43.1667 27.0833V35.4167H6.81253V27.0833C6.81253 19.0833 12.4584 12.3958 19.9792 10.7917C21.1042 10.5417 22.2709 10.4167 23.4792 10.4167H26.5C27.7084 10.4167 28.8959 10.5417 30.0209 10.7917C37.5417 12.4167 43.1667 19.0833 43.1667 27.0833Z" fill="#FF9D97"/>
<path d="M30.2083 9.37499C30.2083 9.87499 30.1458 10.3333 30.0208 10.7917C28.8958 10.5417 27.7083 10.4167 26.5 10.4167H23.4792C22.2708 10.4167 21.1042 10.5417 19.9792 10.7917C19.8542 10.3333 19.7917 9.87499 19.7917 9.37499C19.7917 6.49999 22.125 4.16666 25 4.16666C27.875 4.16666 30.2083 6.49999 30.2083 9.37499Z" fill="#FF9D97"/>
<path d="M31.25 24.4792H18.75C17.8958 24.4792 17.1875 23.7708 17.1875 22.9167C17.1875 22.0625 17.8958 21.3542 18.75 21.3542H31.25C32.1042 21.3542 32.8125 22.0625 32.8125 22.9167C32.8125 23.7708 32.1042 24.4792 31.25 24.4792Z" fill="#FF9D97"/>
</svg>
