<svg width="20" height="20" viewBox="0 0 20 20" fill="none" xmlns="http://www.w3.org/2000/svg">
<path d="M12.0833 8.95825H7.08333C6.74166 8.95825 6.45833 8.67492 6.45833 8.33325C6.45833 7.99159 6.74166 7.70825 7.08333 7.70825H12.0833C12.425 7.70825 12.7083 7.99159 12.7083 8.33325C12.7083 8.67492 12.425 8.95825 12.0833 8.95825Z" fill="#FF9D97"/>
<path d="M9.58333 11.4583H7.08333C6.74166 11.4583 6.45833 11.1749 6.45833 10.8333C6.45833 10.4916 6.74166 10.2083 7.08333 10.2083H9.58333C9.92499 10.2083 10.2083 10.4916 10.2083 10.8333C10.2083 11.1749 9.92499 11.4583 9.58333 11.4583Z" fill="#FF9D97"/>
<path opacity="0.4" d="M9.58334 17.5001C13.9556 17.5001 17.5 13.9557 17.5 9.58341C17.5 5.21116 13.9556 1.66675 9.58334 1.66675C5.21108 1.66675 1.66667 5.21116 1.66667 9.58341C1.66667 13.9557 5.21108 17.5001 9.58334 17.5001Z" fill="#FF9D97"/>
<path d="M17.75 18.3335C17.6 18.3335 17.45 18.2751 17.3417 18.1668L15.7917 16.6168C15.5667 16.3918 15.5667 16.0251 15.7917 15.7918C16.0167 15.5668 16.3833 15.5668 16.6167 15.7918L18.1667 17.3418C18.3917 17.5668 18.3917 17.9335 18.1667 18.1668C18.05 18.2751 17.9 18.3335 17.75 18.3335Z" fill="#FF9D97"/>
</svg>
