<svg width="51" height="50" viewBox="0 0 51 50" fill="none" xmlns="http://www.w3.org/2000/svg">
<path opacity="0.4" d="M44.8542 23.7293V36.2085C44.8542 41.9585 40.1876 46.6252 34.4376 46.6252H16.2292C10.4792 46.6252 5.81256 41.9585 5.81256 36.2085V23.8752C7.39589 25.5835 9.64589 26.5627 12.0834 26.5627C14.7084 26.5627 17.2292 25.2502 18.8126 23.146C20.2292 25.2502 22.6459 26.5627 25.3334 26.5627C28.0001 26.5627 30.3751 25.3127 31.8126 23.2293C33.4167 25.2918 35.8959 26.5627 38.4792 26.5627C41.0001 26.5627 43.2917 25.5418 44.8542 23.7293Z" fill="#44B5B1"/>
<path d="M31.5626 2.604H19.0626L17.5209 17.9373C17.3959 19.354 17.6042 20.6873 18.1251 21.8957C19.3334 24.729 22.1667 26.5623 25.3334 26.5623C28.5417 26.5623 31.3126 24.7707 32.5626 21.9165C32.9376 21.0207 33.1667 19.979 33.1876 18.9165V18.5207L31.5626 2.604Z" fill="#44B5B1"/>
<path opacity="0.6" d="M46.9167 17.229L46.3126 11.4582C45.4376 5.1665 42.5834 2.604 36.4792 2.604H28.4792L30.0209 18.229C30.0417 18.4373 30.0626 18.6665 30.0626 19.0623C30.1876 20.1457 30.5209 21.1457 31.0209 22.0415C32.5209 24.7915 35.4376 26.5623 38.4792 26.5623C41.2501 26.5623 43.7501 25.3332 45.3126 23.1665C46.5626 21.4998 47.1251 19.3957 46.9167 17.229Z" fill="#44B5B1"/>
<path opacity="0.6" d="M14.0625 2.604C7.93748 2.604 5.10415 5.1665 4.20832 11.5207L3.64582 17.2498C3.43748 19.479 4.04165 21.6457 5.35415 23.3332C6.93748 25.3957 9.37498 26.5623 12.0833 26.5623C15.125 26.5623 18.0416 24.7915 19.5208 22.0832C20.0625 21.1457 20.4166 20.0623 20.5208 18.9373L22.1458 2.62484H14.0625V2.604Z" fill="#44B5B1"/>
<path d="M23.9792 34.7082C21.3334 34.979 19.3334 37.229 19.3334 39.8957V46.6249H31.3125V40.6249C31.3334 36.2707 28.7709 34.2082 23.9792 34.7082Z" fill="#44B5B1"/>
</svg>
