<svg width="23" height="24" viewBox="0 0 23 24" fill="none" xmlns="http://www.w3.org/2000/svg">
<path opacity="0.4" d="M16.2917 20.1457H6.70833C3.83333 20.1457 1.91666 18.7082 1.91666 15.354V8.64567C1.91666 5.2915 3.83333 3.854 6.70833 3.854H16.2917C19.1667 3.854 21.0833 5.2915 21.0833 8.64567V15.354C21.0833 18.7082 19.1667 20.1457 16.2917 20.1457Z" fill="#FF9D97"/>
<path d="M11.5 12.834C10.695 12.834 9.88045 12.5848 9.25754 12.0769L6.25795 9.68105C5.95128 9.43188 5.89379 8.98146 6.14295 8.6748C6.39212 8.36813 6.84254 8.31064 7.14921 8.5598L10.1488 10.9556C10.8771 11.5402 12.1134 11.5402 12.8417 10.9556L15.8413 8.5598C16.1479 8.31064 16.608 8.35855 16.8475 8.6748C17.0967 8.98146 17.0488 9.44147 16.7325 9.68105L13.733 12.0769C13.1196 12.5848 12.305 12.834 11.5 12.834Z" fill="#FF9D97"/>
</svg>
