<svg width="50" height="50" viewBox="0 0 50 50" fill="none" xmlns="http://www.w3.org/2000/svg">
<path opacity="0.4" d="M35.475 0H14.525C5.425 0 0 5.425 0 14.525V35.475C0 44.575 5.425 50 14.525 50H35.475C44.575 50 50 44.575 50 35.475V14.525C50 5.425 44.575 0 35.475 0Z" fill="#FF9D97"/>
<path d="M40.775 17.175C40.775 18.2 39.95 19.05 38.9 19.05H25.775C24.75 19.05 23.9 18.2 23.9 17.175C23.9 16.15 24.75 15.3 25.775 15.3H38.9C39.95 15.3 40.775 16.15 40.775 17.175Z" fill="#FF9D97"/>
<path d="M19.925 14.75L14.3 20.375C13.925 20.75 13.45 20.925 12.975 20.925C12.5 20.925 12 20.75 11.65 20.375L9.77502 18.5C9.02502 17.775 9.02502 16.575 9.77502 15.85C10.5 15.125 11.675 15.125 12.425 15.85L12.975 16.4L17.275 12.1C18 11.375 19.175 11.375 19.925 12.1C20.65 12.825 20.65 14.025 19.925 14.75Z" fill="#FF9D97"/>
<path d="M40.775 34.675C40.775 35.7 39.95 36.55 38.9 36.55H25.775C24.75 36.55 23.9 35.7 23.9 34.675C23.9 33.65 24.75 32.8 25.775 32.8H38.9C39.95 32.8 40.775 33.65 40.775 34.675Z" fill="#FF9D97"/>
<path d="M19.925 32.25L14.3 37.875C13.925 38.25 13.45 38.425 12.975 38.425C12.5 38.425 12 38.25 11.65 37.875L9.77502 36C9.02502 35.275 9.02502 34.075 9.77502 33.35C10.5 32.625 11.675 32.625 12.425 33.35L12.975 33.9L17.275 29.6C18 28.875 19.175 28.875 19.925 29.6C20.65 30.325 20.65 31.525 19.925 32.25Z" fill="#FF9D97"/>
</svg>
