<svg width="51" height="50" viewBox="0 0 51 50" fill="none" xmlns="http://www.w3.org/2000/svg">
<path opacity="0.4" d="M25.6666 45.833C35.6423 45.833 43.7291 37.7461 43.7291 27.7705C43.7291 17.7949 35.6423 9.70801 25.6666 9.70801C15.691 9.70801 7.60413 17.7949 7.60413 27.7705C7.60413 37.7461 15.691 45.833 25.6666 45.833Z" fill="#44B5B1"/>
<path d="M25.6666 28.6457C24.8125 28.6457 24.1041 27.9373 24.1041 27.0832V16.6665C24.1041 15.8123 24.8125 15.104 25.6666 15.104C26.5208 15.104 27.2291 15.8123 27.2291 16.6665V27.0832C27.2291 27.9373 26.5208 28.6457 25.6666 28.6457Z" fill="#44B5B1"/>
<path d="M31.6875 7.18734H19.6458C18.8125 7.18734 18.1458 6.52067 18.1458 5.68734C18.1458 4.854 18.8125 4.1665 19.6458 4.1665H31.6875C32.5208 4.1665 33.1875 4.83317 33.1875 5.6665C33.1875 6.49984 32.5208 7.18734 31.6875 7.18734Z" fill="#44B5B1"/>
</svg>
