<svg width="22" height="21" viewBox="0 0 22 21" fill="none" xmlns="http://www.w3.org/2000/svg">
<g clip-path="url(#clip0_1_671)">
<path fill-rule="evenodd" clip-rule="evenodd" d="M17.0636 14.793C16.8125 15.5036 15.8146 16.0915 15.0188 16.2634C14.474 16.3791 13.7635 16.4706 11.3698 15.4786C8.68125 14.3647 4.94792 10.397 4.94792 7.75663C4.94792 6.41248 5.72292 4.84729 7.07813 4.84729C7.73021 4.84729 7.87396 4.86001 8.08855 5.37474C8.33959 5.98117 8.95209 7.47529 9.02501 7.62846C9.32605 8.25677 8.71875 8.62459 8.27812 9.17163C8.1375 9.33626 7.97813 9.51431 8.15626 9.82064C8.33334 10.1207 8.94584 11.119 9.84583 11.9202C11.0083 12.956 11.951 13.2866 12.2885 13.4273C12.5396 13.5315 12.8396 13.5072 13.0229 13.3113C13.2552 13.0602 13.5438 12.6436 13.8375 12.2331C14.0448 11.9392 14.3083 11.9025 14.5844 12.0067C14.7708 12.0713 17.1406 13.1719 17.2406 13.348C17.3146 13.4761 17.3146 14.0823 17.0636 14.793ZM11.0021 0.0834961H10.9969C5.25416 0.0834961 0.583336 4.75574 0.583336 10.5002C0.583336 12.7779 1.31772 14.8911 2.56668 16.6052L1.26876 20.4759L5.27189 19.1967C6.91876 20.2866 8.88438 20.9168 11.0021 20.9168C16.7448 20.9168 21.4167 16.2446 21.4167 10.5002C21.4167 4.75574 16.7448 0.0834961 11.0021 0.0834961Z" fill="#86C206"/>
</g>
<defs>
<clipPath id="clip0_1_671">
<rect width="20.8333" height="20.8333" fill="white" transform="translate(0.583336 0.0834961)"/>
</clipPath>
</defs>
</svg>
